####
#
# OBJ File Generated by Meshlab
#
####
# Object template_mouth_cropped.obj
#
# Vertices: 335
# Faces: 600
#
####
vn 0.9617382 -1.9750934 5.6848006
v 0.0253430 -0.0445260 0.0468700
vn 2.4302249 1.1313878 5.5286574
v 0.0244220 -0.0451560 0.0470460
vn 3.2258878 3.0267339 4.3883815
v 0.0234910 -0.0445210 0.0473570
vn 0.4129265 -1.1530664 5.2960796
v 0.0243440 -0.0443800 0.0469360
vn 0.0278453 5.1852984 -2.0548365
v 0.0222730 -0.0436450 0.0459150
vn 0.2042859 5.6107244 -1.8085003
v 0.0231960 -0.0440650 0.0449770
vn 2.5523636 5.7307014 -0.1399139
v 0.0233310 -0.0440450 0.0462280
vn 2.4947526 5.6536765 0.3591952
v 0.0224570 -0.0436300 0.0470330
vn 1.3587623 0.5110927 3.0028787
v 0.0286990 -0.0298240 0.0475420
vn 1.2648935 0.0985943 2.5813966
v 0.0320140 -0.0334730 0.0464260
vn -2.2575383 -0.1425904 -0.2122576
v 0.0239890 -0.0446790 0.0410570
vn -2.4399788 0.8552365 -0.3856443
v 0.0238950 -0.0453850 0.0408050
vn -2.3612802 1.3605759 -0.7029874
v 0.0237240 -0.0457350 0.0408540
vn 1.0082219 -0.3672919 2.5071006
v 0.0343240 -0.0506960 0.0428930
vn 2.2912459 -0.8829762 5.7747598
v 0.0307290 -0.0485660 0.0446180
vn 2.2667301 -1.3050799 5.7063770
v 0.0317180 -0.0455600 0.0449250
vn 1.0390356 -0.4718867 2.5283387
v 0.0353420 -0.0462400 0.0432460
vn 1.0562925 0.8229965 2.7297437
v 0.0260930 -0.0260520 0.0476510
vn 0.6159966 0.5682958 1.6239182
v 0.0220370 -0.0215710 0.0475170
vn 1.1944495 -1.0607392 5.7794328
v 0.0056300 -0.0375070 0.0613520
vn 0.8932372 0.7874708 5.9374690
v 0.0053470 -0.0347610 0.0613960
vn -0.2216512 -3.2440267 -0.4511137
v 0.0072600 -0.0436570 0.0498640
vn -0.3538938 -3.2527230 -0.6848563
v 0.0126760 -0.0438610 0.0486740
vn -0.5818118 -3.1499009 -0.8869328
v 0.0163620 -0.0437700 0.0470710
vn 0.4919874 -5.3333244 1.5511879
v 0.0120660 -0.0447720 0.0542340
vn 0.1949900 -5.5498705 1.6209867
v 0.0068400 -0.0444190 0.0561520
vn 0.9687192 -3.8787665 4.4331560
v 0.0064680 -0.0426780 0.0586910
vn 1.8293287 -3.8451383 4.4356222
v 0.0117830 -0.0431140 0.0563120
vn 1.6142125 1.3205514 2.8847284
v 0.0179070 -0.0234900 0.0498400
vn 1.6376643 1.2038190 2.1776171
v 0.0138480 -0.0229890 0.0523420
vn 1.8153284 0.9782535 2.3155916
v 0.0097670 -0.0229750 0.0558900
vn 1.4479942 0.5485835 2.7210493
v 0.0065720 -0.0231710 0.0585240
vn 2.5722013 1.1368349 5.5494671
v 0.0099700 -0.0332140 0.0594940
vn 0.8096403 1.3459277 5.9938869
v 0.0052280 -0.0326000 0.0608650
vn 0.7934951 0.9901449 6.0750012
v 0.0042870 -0.0284840 0.0601010
vn 2.5461311 1.6366761 5.4561386
v 0.0086350 -0.0286490 0.0587840
vn 3.2795012 2.0574675 4.9385452
v 0.0131700 -0.0294530 0.0563170
vn 3.3779953 0.9275407 5.1918702
v 0.0149170 -0.0348790 0.0568780
vn 2.6132622 0.2832538 5.6337585
v 0.0103230 -0.0355300 0.0596440
vn 2.4192774 -1.2728800 5.5116596
v 0.0107150 -0.0380690 0.0593310
vn 3.3566041 0.0085939 5.2156096
v 0.0153830 -0.0372470 0.0568930
vn 3.0280380 -1.5792968 5.1368098
v 0.0156330 -0.0394920 0.0564380
vn 3.6656015 0.0692078 5.0980139
v 0.0196010 -0.0372360 0.0537000
vn 3.3821094 1.8710300 4.9389348
v 0.0184750 -0.0313000 0.0534180
vn 3.0307209 1.0005487 5.3930459
v 0.0242290 -0.0332870 0.0502420
vn 3.4110851 -1.0786635 5.1562724
v 0.0235140 -0.0396420 0.0506850
vn 2.5019519 -1.4327364 5.5693569
v 0.0314180 -0.0426180 0.0457900
vn 1.2635151 -1.5523795 5.9443331
v 0.0268300 -0.0448010 0.0465820
vn 1.6114367 -2.8035274 5.3450937
v 0.0267580 -0.0436180 0.0470230
vn 2.4714093 -2.8201160 5.0197053
v 0.0264570 -0.0425350 0.0478350
vn 2.8226376 -0.9118232 5.5206428
v 0.0307290 -0.0396340 0.0468010
vn 1.3431747 -0.5057279 2.7000520
v 0.0348300 -0.0419140 0.0442230
vn 1.4010757 -0.2229169 2.5621617
v 0.0339250 -0.0375480 0.0452910
vn 2.9048808 -0.0691507 5.5495749
v 0.0286170 -0.0364960 0.0482060
vn 3.0265350 -1.9287987 5.1505265
v 0.0255940 -0.0412510 0.0488900
vn 1.6867536 -3.9864573 4.4964514
v 0.0254590 -0.0438760 0.0473500
vn 0.2798104 -5.0977826 3.3767812
v 0.0244850 -0.0441190 0.0471990
vn 2.4943144 -3.9639702 4.1470900
v 0.0251100 -0.0433410 0.0480500
vn 1.6951386 -5.3502526 2.7191803
v 0.0242190 -0.0439240 0.0478010
vn 2.8937030 -3.0493569 4.5817032
v 0.0245080 -0.0427220 0.0489570
vn 2.2494962 -4.5937729 3.4978456
v 0.0236620 -0.0437070 0.0485720
vn 2.5617459 -3.7804213 4.2413769
v 0.0225100 -0.0431400 0.0498310
vn 3.2377541 -2.2129555 4.8422194
v 0.0230800 -0.0416740 0.0504350
vn 1.1200410 -6.1635051 -0.4036762
v 0.0225860 -0.0445310 0.0460460
vn 0.0042429 -6.0835910 -0.6792256
v 0.0214420 -0.0447980 0.0469260
vn 1.2888455 -5.8358412 1.2860591
v 0.0214080 -0.0447660 0.0480810
vn 1.5166862 -6.0118299 0.2087918
v 0.0224760 -0.0446310 0.0469770
vn 2.0004454 -5.9351711 0.0128428
v 0.0233140 -0.0443600 0.0452980
vn 1.9121406 -5.9665976 0.0137258
v 0.0230960 -0.0444290 0.0464150
vn -1.8364289 -2.7740958 -0.1887506
v 0.0235900 -0.0443910 0.0416540
vn -1.0572840 -2.8484318 -0.4357763
v 0.0228300 -0.0441230 0.0422560
vn 1.9594955 0.5944422 -0.3268672
v 0.0236840 -0.0441630 0.0448500
vn 2.0886641 -0.0933050 -0.0634298
v 0.0237250 -0.0442310 0.0457820
vn 3.2825725 -0.5062319 1.7749741
v 0.0236060 -0.0441900 0.0469090
vn 1.7847625 -5.9646931 0.4918703
v 0.0234880 -0.0442630 0.0472230
vn 1.9165959 -5.6367631 1.8191700
v 0.0229300 -0.0443290 0.0478760
vn 2.0644035 -4.9867053 3.1128464
v 0.0218840 -0.0441990 0.0489580
vn 2.7261593 -2.9325721 4.7745857
v 0.0156970 -0.0415910 0.0553740
vn 3.1797793 -2.5249906 4.7139344
v 0.0193010 -0.0412910 0.0532230
vn 2.7581289 -3.7622614 4.1817493
v 0.0190730 -0.0430400 0.0520570
vn 2.2981806 -4.2367034 3.8408580
v 0.0156610 -0.0438080 0.0536770
vn 2.1036615 -4.9628267 2.9845116
v 0.0188020 -0.0444180 0.0507480
vn 0.4684519 -5.5444431 0.8405798
v 0.0156710 -0.0449760 0.0517850
vn -0.7100372 -2.9873600 -0.7513323
v 0.0199070 -0.0438530 0.0445350
vn 0.0562447 -5.8477077 0.1207595
v 0.0188450 -0.0449510 0.0492220
vn 3.6340346 -0.9097360 4.9747005
v 0.0195600 -0.0394390 0.0536890
vn 2.2132225 -2.6129086 5.2409053
v 0.0111470 -0.0405380 0.0580890
vn 1.2736537 -2.6212130 5.4975815
v 0.0060270 -0.0400210 0.0601920
vn 3.3246789 4.3065524 2.6334000
v 0.0228130 -0.0439360 0.0474970
vn 2.0277371 -0.1588644 5.8388419
v 0.0258490 -0.0459080 0.0465850
vn -1.6587501 1.3297654 -0.9158527
v 0.0230150 -0.0466150 0.0413290
vn 1.1654060 -0.2168333 2.3952298
v 0.0313580 -0.0550890 0.0435010
vn 1.6972368 -0.0815056 2.6092281
v 0.0263280 -0.0584240 0.0462160
vn 3.5211411 -0.1138128 5.2000999
v 0.0243930 -0.0543750 0.0476490
vn 2.8173308 -0.3987201 5.5795627
v 0.0283760 -0.0517740 0.0452520
vn 3.9341118 0.1915529 4.8894835
v 0.0215130 -0.0485020 0.0498140
vn 3.5375891 0.7441125 5.1257071
v 0.0242370 -0.0470000 0.0476820
vn 3.7933588 1.3944113 4.7657938
v 0.0229250 -0.0457070 0.0484140
vn 4.2451425 0.5430466 4.5944519
v 0.0203110 -0.0463230 0.0506900
vn 4.2144876 1.3631530 4.3904910
v 0.0195090 -0.0445860 0.0512230
vn 4.0856061 1.9391769 4.3430753
v 0.0220050 -0.0445510 0.0487200
vn -0.3940495 5.4793119 -2.0719323
v 0.0177200 -0.0423100 0.0507110
vn -0.0589866 5.4235840 -1.8945856
v 0.0133880 -0.0415150 0.0531190
vn -0.6514812 2.3683441 -2.1119385
v 0.0130160 -0.0459900 0.0482650
vn -1.1698171 2.2306485 -1.9521412
v 0.0175040 -0.0464930 0.0459890
vn -1.7357552 2.1435275 -1.7876854
v 0.0217810 -0.0465790 0.0428190
vn -0.5002676 5.0936041 -2.1585684
v 0.0210690 -0.0431840 0.0471220
vn 2.2814338 4.6653137 1.6766962
v 0.0182080 -0.0423410 0.0511540
vn 2.3512077 5.2540607 0.8484865
v 0.0211370 -0.0430610 0.0483410
vn 2.0911291 4.9698310 2.0041802
v 0.0139300 -0.0416340 0.0541570
vn 3.8821244 3.3694639 3.1516981
v 0.0215460 -0.0435700 0.0487010
vn 3.9205518 2.7530191 3.9230266
v 0.0187800 -0.0430340 0.0512020
vn 3.4617743 2.9595478 4.2026987
v 0.0145540 -0.0426370 0.0546300
vn 3.8776784 1.6549199 4.6254516
v 0.0154070 -0.0446900 0.0548790
vn 4.0490847 0.2923745 4.6835103
v 0.0162330 -0.0470560 0.0547840
vn 3.9443810 -0.6000806 4.8029933
v 0.0170060 -0.0499460 0.0538940
vn 3.4091773 -0.3388884 5.2546110
v 0.0191650 -0.0572800 0.0512960
vn 1.5781662 -0.0995218 2.3670583
v 0.0206240 -0.0622570 0.0501140
vn 2.6542673 -0.4754477 5.6193647
v 0.0129190 -0.0587250 0.0544060
vn 1.3211021 0.0882539 2.6358941
v 0.0140910 -0.0639000 0.0541460
vn 2.9512126 -1.7146012 5.1428328
v 0.0119370 -0.0509860 0.0574860
vn 2.9869857 -0.2002861 5.1034188
v 0.0114980 -0.0474890 0.0587730
vn 2.9252753 1.7209381 5.1157794
v 0.0108370 -0.0446580 0.0585180
vn 2.5717022 3.1332128 4.5700278
v 0.0102100 -0.0423410 0.0577580
vn 0.5836826 0.1657013 3.0127478
v 0.0033060 -0.0234290 0.0598680
vn 1.4849434 4.9030719 2.3724864
v 0.0095450 -0.0410740 0.0569540
vn -0.0130798 5.5581722 -1.7055387
v 0.0086660 -0.0408960 0.0553040
vn 0.1419538 5.4909649 -1.3638268
v 0.0046930 -0.0404740 0.0563590
vn -0.2272536 2.5108974 -2.1190968
v 0.0045200 -0.0453330 0.0506370
vn -0.4450882 2.4659309 -2.1165056
v 0.0082880 -0.0454870 0.0498850
vn 0.6561729 5.1274414 2.7716992
v 0.0049780 -0.0408010 0.0581620
vn 1.0354847 3.4753351 4.9296007
v 0.0054670 -0.0421410 0.0593630
vn 1.2909544 1.6576800 5.6539779
v 0.0059680 -0.0445810 0.0605070
vn 0.8769610 0.3450594 2.8766096
v 0.0074220 -0.0640990 0.0572030
vn 1.4806266 -0.2175974 6.0348535
v 0.0066000 -0.0591070 0.0567270
vn 1.4230038 -0.5911819 5.7242184
v 0.0065080 -0.0477920 0.0607700
vn 1.3025656 -2.3741806 5.5423484
v 0.0063810 -0.0516470 0.0594450
vn -1.5031979 -1.9840647 5.5588460
v -0.0254360 -0.0444270 0.0463340
vn -2.9809704 1.0755367 5.2796946
v -0.0245930 -0.0450720 0.0465920
vn -3.5235994 2.9956214 4.1705313
v -0.0236810 -0.0444050 0.0469860
vn -0.8651068 -1.1694479 5.2458329
v -0.0244650 -0.0442480 0.0465030
vn -0.6230733 5.0375342 -1.7992656
v -0.0224070 -0.0432880 0.0455400
vn -0.7597490 5.7070031 -1.7527006
v -0.0232280 -0.0438330 0.0446310
vn -2.9625053 5.5371437 -0.0184983
v -0.0233930 -0.0438390 0.0458310
vn -3.0343251 5.4228196 0.7377466
v -0.0226000 -0.0434390 0.0466670
vn -1.4495819 0.5758744 2.9561000
v -0.0288790 -0.0297920 0.0467850
vn -1.3264320 0.1545746 2.5583210
v -0.0321180 -0.0334050 0.0456490
vn 2.2279506 -0.3823680 -0.1921578
v -0.0240510 -0.0444440 0.0407090
vn 2.3676655 0.8242334 -0.4062594
v -0.0240160 -0.0451180 0.0404500
vn 2.2614803 1.4439979 -0.7377310
v -0.0238580 -0.0454080 0.0404930
vn -1.0828714 -0.3353329 2.4790113
v -0.0343400 -0.0506410 0.0419240
vn -2.4914351 -0.7901374 5.6834731
v -0.0307840 -0.0484940 0.0437070
vn -2.3273308 -1.4662238 5.6451521
v -0.0317750 -0.0454830 0.0440650
vn -1.0516067 -0.5376588 2.5119762
v -0.0353860 -0.0461830 0.0423390
vn -1.1415904 0.9157751 2.6544180
v -0.0262790 -0.0260290 0.0468230
vn -0.6811042 0.6174676 1.5840757
v -0.0221980 -0.0215750 0.0467160
vn -1.3454933 -1.0184880 5.7762074
v -0.0053340 -0.0374700 0.0611250
vn -1.0729550 0.9270141 5.9155111
v -0.0051540 -0.0347650 0.0611130
vn 0.1891242 -3.2433107 -0.4391960
v -0.0069110 -0.0435180 0.0497040
vn 0.3329569 -3.2536409 -0.6802186
v -0.0123820 -0.0436600 0.0483970
vn 0.5173261 -3.1474731 -0.8437499
v -0.0161550 -0.0435540 0.0466760
vn -0.4632855 -5.4272141 1.4519981
v -0.0118030 -0.0445900 0.0539380
vn -0.2777691 -5.6377654 1.5432210
v -0.0064820 -0.0442410 0.0559560
vn -1.0871215 -3.8787200 4.3801241
v -0.0061660 -0.0425980 0.0585220
vn -1.8252921 -3.8850393 4.3695765
v -0.0116090 -0.0429950 0.0560510
vn -1.6989582 1.3795295 2.8176236
v -0.0181150 -0.0234430 0.0493040
vn -1.6422584 1.2223541 2.1678271
v -0.0140340 -0.0228930 0.0519110
vn -1.7675133 0.9755278 2.3454282
v -0.0098680 -0.0228820 0.0554680
vn -1.4652880 0.5315480 2.7198944
v -0.0065860 -0.0231180 0.0580800
vn -2.5477846 1.1671996 5.5685606
v -0.0098900 -0.0332120 0.0591100
vn -1.0635440 1.4123406 5.9797297
v -0.0051950 -0.0326320 0.0604850
vn -1.0836190 1.0788268 6.0465121
v -0.0042570 -0.0284950 0.0597400
vn -2.5157325 1.6514571 5.4774861
v -0.0086570 -0.0286350 0.0583630
vn -3.2227585 2.0170221 4.9872885
v -0.0132870 -0.0293880 0.0559450
vn -3.3486130 0.8849682 5.2210145
v -0.0148880 -0.0347950 0.0565170
vn -2.6081247 0.3127976 5.6321630
v -0.0101680 -0.0354820 0.0593250
vn -2.4296145 -1.2767169 5.5223508
v -0.0104730 -0.0379830 0.0590390
vn -3.3135767 -0.0139907 5.2410784
v -0.0152950 -0.0371710 0.0565710
vn -2.9778197 -1.6145400 5.1613364
v -0.0155100 -0.0394070 0.0561250
vn -3.6890116 0.1087693 5.0802512
v -0.0195890 -0.0371170 0.0533580
vn -3.4204383 1.8330809 4.9205523
v -0.0186140 -0.0312090 0.0530260
vn -3.1446106 1.0435511 5.3183336
v -0.0242850 -0.0331630 0.0497670
vn -3.5384810 -1.0331585 5.0802088
v -0.0234950 -0.0395440 0.0502730
vn -2.5476985 -1.5886439 5.5058336
v -0.0314880 -0.0425460 0.0450510
vn -1.6584311 -1.6963943 5.7955484
v -0.0269080 -0.0447020 0.0458920
vn -1.8912832 -2.9165626 5.1940570
v -0.0267570 -0.0434940 0.0464330
vn -2.7039287 -2.7796168 4.9226961
v -0.0264350 -0.0424090 0.0472880
vn -2.8738124 -0.9977599 5.4784274
v -0.0307960 -0.0395570 0.0461360
vn -1.3568007 -0.5802327 2.6823020
v -0.0349370 -0.0418600 0.0434570
vn -1.4279728 -0.2214515 2.5413077
v -0.0340690 -0.0374850 0.0445700
vn -3.0142391 -0.0503787 5.4862432
v -0.0287250 -0.0364140 0.0475900
vn -3.2187524 -1.8931348 5.0453176
v -0.0255670 -0.0411400 0.0483870
vn -1.9473958 -3.9407628 4.4147525
v -0.0255190 -0.0437620 0.0468440
vn -0.3722236 -5.0985374 3.3862789
v -0.0245630 -0.0439820 0.0467550
vn -2.6833749 -3.8817339 4.0860224
v -0.0251510 -0.0432240 0.0475770
vn -1.7078760 -5.3605518 2.6826611
v -0.0242600 -0.0437890 0.0473670
vn -3.0682642 -2.9756527 4.4951167
v -0.0245390 -0.0426210 0.0485050
vn -2.2960978 -4.6273665 3.4142809
v -0.0236810 -0.0435810 0.0481600
vn -2.6084168 -3.8130717 4.1691051
v -0.0225180 -0.0430380 0.0494590
vn -3.3542113 -2.1593199 4.7712116
v -0.0231010 -0.0415930 0.0500390
vn -0.9353825 -6.1878433 -0.4343382
v -0.0226090 -0.0443570 0.0457350
vn 0.1481251 -6.1066365 -0.7445762
v -0.0214660 -0.0445820 0.0465900
vn -1.0715897 -5.8885841 1.0884866
v -0.0213830 -0.0445940 0.0477290
vn -1.3549497 -6.0531278 0.1398276
v -0.0224660 -0.0444560 0.0466090
vn -2.1945584 -5.8185673 -0.0019022
v -0.0233590 -0.0441990 0.0449590
vn -1.8506843 -5.9868269 -0.0205039
v -0.0231100 -0.0442600 0.0460320
vn 1.4587612 -3.0210226 -0.1553569
v -0.0235800 -0.0442130 0.0413080
vn 1.1306578 -2.8176701 -0.4466443
v -0.0228100 -0.0439090 0.0419070
vn -2.2189822 0.8520290 -0.2769552
v -0.0237360 -0.0439330 0.0444860
vn -2.3859880 -0.0789987 -0.0349145
v -0.0237630 -0.0440300 0.0453860
vn -3.4011276 -0.6478792 1.5315851
v -0.0236900 -0.0440160 0.0465260
vn -1.6896644 -5.9948511 0.4302848
v -0.0235260 -0.0441050 0.0468280
vn -1.8588623 -5.6866684 1.7303585
v -0.0229370 -0.0441740 0.0474920
vn -2.0326185 -5.0608215 2.9959378
v -0.0218750 -0.0440640 0.0485980
vn -2.6919611 -2.9482884 4.7934036
v -0.0155570 -0.0414920 0.0550650
vn -3.1473000 -2.5588937 4.7062783
v -0.0192860 -0.0412100 0.0529040
vn -2.7169120 -3.8284342 4.1407938
v -0.0190400 -0.0429350 0.0517430
vn -2.1974168 -4.3449774 3.7140925
v -0.0155560 -0.0436770 0.0533860
vn -1.8963931 -5.1288075 2.7244134
v -0.0187530 -0.0442670 0.0504280
vn -0.3864554 -5.6892309 0.6872498
v -0.0155060 -0.0447410 0.0514310
vn 0.6883174 -2.9830203 -0.7233072
v -0.0198260 -0.0436080 0.0441190
vn 0.0973637 -5.9983621 -0.0707853
v -0.0188050 -0.0446690 0.0488620
vn -3.6372597 -0.8857650 4.9590282
v -0.0195700 -0.0393640 0.0533610
vn -2.2447011 -2.5709743 5.2525110
v -0.0109520 -0.0404290 0.0578030
vn -1.4176449 -2.5703063 5.5007448
v -0.0057270 -0.0399410 0.0599860
vn -3.4985821 4.2455916 2.4965918
v -0.0230040 -0.0437860 0.0471560
vn -2.5752444 -0.1134949 5.5987167
v -0.0259580 -0.0458330 0.0459670
vn 1.5975480 1.4050483 -0.9261716
v -0.0231490 -0.0461680 0.0409620
vn -1.2939520 -0.1460802 2.3272114
v -0.0314800 -0.0550670 0.0427490
vn -1.7857137 -0.0417006 2.5532873
v -0.0266500 -0.0584250 0.0458560
vn -3.7354529 -0.0723075 5.0498328
v -0.0247050 -0.0543450 0.0473280
vn -3.1420736 -0.2012733 5.4135685
v -0.0285880 -0.0517530 0.0445650
vn -4.1374731 0.2825674 4.7150912
v -0.0219210 -0.0484910 0.0495940
vn -3.9665797 0.7885638 4.7990918
v -0.0244560 -0.0469520 0.0472410
vn -4.0922041 1.4135904 4.4947691
v -0.0232180 -0.0456530 0.0480860
vn -4.3097878 0.7217602 4.5028658
v -0.0207080 -0.0462890 0.0504970
vn -4.2092566 1.5730624 4.3272471
v -0.0198380 -0.0445210 0.0509830
vn -4.2121382 2.0589709 4.1607366
v -0.0222850 -0.0444620 0.0484290
vn -0.1559267 5.3353634 -1.2359982
v -0.0180220 -0.0419780 0.0503870
vn 0.0775936 5.4042268 -1.6279013
v -0.0136280 -0.0413080 0.0527760
vn 0.7176037 2.4165380 -2.0666926
v -0.0131340 -0.0456270 0.0479550
vn 1.1882050 2.2694581 -1.8929900
v -0.0176610 -0.0460530 0.0456330
vn 1.7033889 2.2664032 -1.8062612
v -0.0219880 -0.0460340 0.0424140
vn -0.0451859 4.8810644 -1.5334859
v -0.0213020 -0.0427570 0.0467440
vn -2.8109362 4.5320716 2.3701873
v -0.0184720 -0.0422050 0.0508640
vn -2.9509296 5.1152749 1.4456012
v -0.0213400 -0.0428910 0.0480130
vn -2.1475759 4.9670529 2.2638752
v -0.0141490 -0.0415250 0.0538580
vn -3.9261343 3.4347575 3.0561845
v -0.0217950 -0.0434480 0.0483930
vn -3.9150171 2.8441327 3.8711109
v -0.0190700 -0.0429340 0.0509230
vn -3.3909273 3.0685043 4.1930532
v -0.0148270 -0.0425510 0.0543360
vn -3.8082426 1.8329386 4.6113286
v -0.0157470 -0.0446070 0.0546310
vn -3.9928274 0.4592496 4.7091846
v -0.0165730 -0.0469950 0.0546410
vn -3.8981357 -0.5325875 4.8240967
v -0.0174010 -0.0499030 0.0538250
vn -3.4439914 -0.4971207 5.2158184
v -0.0194730 -0.0572500 0.0510260
vn -1.5829046 -0.1281516 2.3686051
v -0.0209150 -0.0622650 0.0497910
vn -2.5945108 -0.6184910 5.6284466
v -0.0132000 -0.0586930 0.0541030
vn -1.3000743 0.0467853 2.6466336
v -0.0143310 -0.0639340 0.0537930
vn -2.8315175 -1.7020029 5.1885147
v -0.0122910 -0.0509440 0.0573180
vn -2.8686147 -0.0567012 5.1456962
v -0.0118850 -0.0473970 0.0584990
vn -2.8262675 1.8091670 5.1483097
v -0.0111560 -0.0446070 0.0581850
vn -2.5430157 3.1025281 4.6215301
v -0.0104820 -0.0423160 0.0574460
vn -0.7895234 0.1831169 2.9745841
v -0.0032970 -0.0233990 0.0595190
vn -1.4654042 4.8355794 2.5286539
v -0.0097810 -0.0410380 0.0566970
vn 0.1523546 5.5475888 -1.5759242
v -0.0088900 -0.0408090 0.0550690
vn -0.0440832 5.5196662 -1.3685020
v -0.0047760 -0.0405150 0.0562420
vn 0.3256657 2.4939413 -2.0824797
v -0.0046510 -0.0453550 0.0505030
vn 0.5696083 2.4605761 -2.0577769
v -0.0084270 -0.0453740 0.0496320
vn -0.7120346 5.0522313 2.8650763
v -0.0050650 -0.0408370 0.0580090
vn -1.1665330 3.3726525 5.0247612
v -0.0055690 -0.0422020 0.0591190
vn -1.4269732 1.6152463 5.6817660
v -0.0061040 -0.0446000 0.0601890
vn -0.9386730 0.3068389 2.8757048
v -0.0076220 -0.0641400 0.0567600
vn -1.6007007 -0.2849112 5.9947839
v -0.0068420 -0.0590650 0.0563460
vn -1.5229433 -0.5424637 5.8029971
v -0.0066630 -0.0477410 0.0603930
vn -1.3955647 -2.3520806 5.5525370
v -0.0067350 -0.0515540 0.0591420
vn -2.9148223 2.0625103 5.1432376
v -0.0217460 -0.0288420 0.0497430
vn -3.3670683 2.4795008 4.6861229
v -0.0164640 -0.0269790 0.0525140
vn -3.3552663 2.1552196 4.8419452
v -0.0115370 -0.0262050 0.0557130
vn -2.7220583 1.3474703 5.4431610
v -0.0075300 -0.0258810 0.0581670
vn -1.3436356 0.5088850 6.0598965
v -0.0036480 -0.0259520 0.0595830
vn -0.0835262 0.5612232 3.0316215
v -0.0001270 -0.0637670 0.0586610
vn -0.1811729 0.2810011 6.2043686
v -0.0001330 -0.0593690 0.0576650
vn -0.1527998 -0.9071932 5.9168506
v -0.0000580 -0.0482170 0.0612880
vn -0.1086206 3.5993271 5.0119591
v 0.0000120 -0.0420530 0.0596790
vn -0.1406349 1.6479998 5.8098021
v -0.0000100 -0.0445210 0.0610040
vn -0.1724609 -0.0059274 3.3588574
v -0.0000930 -0.0237920 0.0599130
vn -0.0571558 5.1908169 2.8323498
v 0.0000110 -0.0406440 0.0583240
vn -0.1460351 -2.4882810 5.7344933
v -0.0000640 -0.0519350 0.0597350
vn 0.0251911 2.4392142 -2.0867200
v -0.0001460 -0.0454100 0.0508430
vn -0.0109204 5.4561577 -1.3539549
v -0.0000240 -0.0403260 0.0566510
vn -0.2841933 0.0344785 6.2754946
v 0.0000100 -0.0266210 0.0598490
vn -0.0918625 -4.2000937 4.1804690
v 0.0001350 -0.0426890 0.0593310
vn -0.0792348 -5.8311148 1.2297430
v 0.0001750 -0.0442410 0.0564320
vn -0.1960711 1.4718922 6.0725780
v -0.0000100 -0.0330680 0.0606170
vn -0.2419644 0.7836515 6.1782618
v -0.0000090 -0.0292210 0.0598740
vn -0.1545361 1.2319859 6.1048546
v 0.0000380 -0.0355380 0.0614620
vn -0.1202902 -0.9313176 5.8207293
v 0.0001120 -0.0379820 0.0617810
vn -0.1221492 -2.8428717 5.5054536
v 0.0001180 -0.0403100 0.0607370
vn -0.0334293 -3.2737155 -0.4044981
v 0.0002270 -0.0434730 0.0503650
vn 2.7807083 1.9697616 5.2442808
v 0.0215480 -0.0289220 0.0502750
vn 3.3339682 2.4586926 4.7223539
v 0.0162800 -0.0270800 0.0529220
vn 3.4367857 2.1544225 4.7887597
v 0.0114180 -0.0262920 0.0561050
vn 2.7399569 1.3394170 5.4122043
v 0.0075450 -0.0259230 0.0586150
vn 0.9760387 0.4745729 6.0946841
v 0.0036830 -0.0259570 0.0599340
vn -0.1599950 -1.7371618 5.9954772
v -0.0000690 -0.0555720 0.0582160
vn -3.0463946 -1.1875800 5.3506227
v -0.0268770 -0.0391590 0.0482800
vn -2.6263614 -1.8867747 5.3811932
v -0.0283060 -0.0411770 0.0469070
vn -2.3434527 -0.6143448 5.7433062
v -0.0280690 -0.0468180 0.0450740
vn -3.5221887 0.8195273 5.1140623
v -0.0194570 -0.0343160 0.0532820
vn -3.3826189 -0.1359755 5.2682977
v -0.0239390 -0.0368770 0.0503630
vn -3.6397662 -0.8563696 4.9877195
v -0.0183910 -0.0533130 0.0525410
vn -2.0984852 -2.1990736 5.4931698
v -0.0287520 -0.0430730 0.0459550
vn -2.6291413 -1.7851937 5.3708363
v -0.0127180 -0.0545040 0.0556840
vn -1.9389058 -1.6672406 5.7355299
v -0.0290110 -0.0449320 0.0452200
vn -1.3599823 -2.0766151 5.7456727
v -0.0068280 -0.0549460 0.0573480
vn -0.2229620 1.1921941 6.1617260
v 0.0000030 -0.0310020 0.0602770
vn -2.4432893 1.5701754 5.5153580
v -0.0093260 -0.0308440 0.0587680
vn -0.8739550 1.2871795 5.9856629
v -0.0045350 -0.0305780 0.0602230
vn -3.2581389 1.4943736 5.1347179
v -0.0143480 -0.0321190 0.0562630
vn -3.4851134 0.1722751 5.1883574
v -0.0260140 -0.0489800 0.0461480
vn -3.9885662 -0.0640064 4.8469214
v -0.0230040 -0.0513820 0.0487730
vn 2.9295080 -1.1291703 5.4274111
v 0.0268700 -0.0392530 0.0488280
vn 2.5184920 -1.8226790 5.4507489
v 0.0283150 -0.0412810 0.0475300
vn 2.0176077 -0.6969791 5.8870044
v 0.0279890 -0.0469200 0.0458750
vn 3.4926829 0.8489767 5.1269884
v 0.0194430 -0.0344380 0.0536540
vn 3.2937059 -0.1325732 5.3254600
v 0.0239140 -0.0369930 0.0508080
vn 3.6187673 -0.7393858 5.0496960
v 0.0178510 -0.0533110 0.0527150
vn 1.9716179 -2.0718784 5.5856509
v 0.0286960 -0.0431680 0.0466310
vn 2.7433443 -1.6690141 5.3543744
v 0.0123710 -0.0545240 0.0559020
vn 1.7922161 -1.4861488 5.8321843
v 0.0289430 -0.0450220 0.0460020
vn 1.2872050 -2.0213754 5.7761574
v 0.0065100 -0.0550590 0.0576920
vn 2.4627244 1.6001458 5.4829206
v 0.0093420 -0.0308510 0.0591800
vn 0.5947078 1.2730384 6.0000424
v 0.0045500 -0.0305480 0.0605450
vn 3.3017194 1.5750618 5.0882888
v 0.0142770 -0.0321770 0.0566290
vn 3.0768590 -0.0241939 5.4441295
v 0.0258520 -0.0490370 0.0466840
vn 3.7423635 -0.0928728 5.0450897
v 0.0226000 -0.0513830 0.0489920
# 335 vertices, 0 vertices normals

f 20//20 295//295 296//296
f 135//135 280//280 134//134
f 132//132 284//284 133//133
f 131//131 283//283 132//132
f 54//54 9//9 45//45
f 27//27 292//292 26//26
f 330//330 287//287 304//304
f 5//5 7//7 6//6
f 17//17 15//15 14//14
f 28//28 26//26 25//25
f 39//39 20//20 40//40
f 38//38 39//39 41//41
f 327//327 48//48 329//329
f 322//322 47//47 51//51
f 325//325 43//43 46//46
f 44//44 333//333 324//324
f 51//51 52//52 53//53
f 52//52 16//16 17//17
f 54//54 53//53 10//10
f 59//59 56//56 58//58
f 325//325 54//54 45//45
f 49//49 1//1 48//48
f 61//61 58//58 60//60
f 67//67 65//65 64//64
f 73//73 68//68 72//72
f 13//13 72//72 12//12
f 72//72 11//11 12//12
f 74//74 73//73 7//7
f 75//75 57//57 59//59
f 69//69 74//74 75//75
f 57//57 74//74 4//4
f 67//67 75//75 76//76
f 66//66 76//76 77//77
f 77//77 61//61 62//62
f 78//78 79//79 42//42
f 76//76 59//59 61//61
f 23//23 83//83 25//25
f 81//81 80//80 78//78
f 21//21 293//293 295//295
f 24//24 85//85 83//83
f 83//83 82//82 81//81
f 65//65 84//84 71//71
f 66//66 85//85 65//65
f 86//86 46//46 43//43
f 42//42 86//86 41//41
f 87//87 27//27 28//28
f 40//40 88//88 87//87
f 95//95 93//93 92//92
f 74//74 3//3 4//4
f 3//3 98//98 2//2
f 334//334 96//96 335//335
f 90//90 334//334 323//323
f 101//101 99//99 98//98
f 299//299 44//44 45//45
f 98//98 96//96 97//97
f 2//2 97//97 90//90
f 107//107 105//105 102//102
f 14//14 95//95 92//92
f 334//334 94//94 95//95
f 112//112 109//109 108//108
f 335//335 117//117 94//94
f 285//285 303//303 125//125
f 121//121 330//330 328//328
f 108//108 113//113 112//112
f 112//112 114//114 100//100
f 303//303 32//32 125//125
f 8//8 107//107 109//109
f 96//96 326//326 335//335
f 120//120 117//117 119//119
f 93//93 117//117 118//118
f 99//99 116//116 96//96
f 115//115 121//121 116//116
f 119//119 326//326 328//328
f 113//113 123//123 114//114
f 291//291 88//88 297//297
f 36//36 301//301 302//302
f 126//126 132//132 124//124
f 25//25 22//22 23//23
f 103//103 130//130 127//127
f 110//110 124//124 113//113
f 122//122 137//137 121//121
f 328//328 135//135 119//119
f 50//50 327//327 322//322
f 103//103 126//126 110//110
f 46//46 321//321 325//325
f 41//41 40//40 42//42
f 4//4 2//2 1//1
f 63//63 55//55 46//46
f 100//100 111//111 112//112
f 128//128 288//288 289//289
f 135//135 304//304 281//281
f 69//69 64//64 68//68
f 6//6 73//73 72//72
f 45//45 324//324 325//325
f 68//68 70//70 11//11
f 30//30 301//301 300//300
f 26//26 298//298 22//22
f 139//139 141//141 138//138
f 142//142 144//144 145//145
f 152//152 154//154 151//151
f 36//36 332//332 331//331
f 163//163 165//165 162//162
f 159//159 162//162 160//160
f 317//317 173//173 316//316
f 318//318 170//170 316//316
f 176//176 157//157 158//158
f 170//170 158//158 171//171
f 175//175 176//176 170//170
f 177//177 178//178 179//179
f 318//318 181//181 308//308
f 309//309 180//180 308//308
f 311//311 185//185 186//186
f 306//306 184//184 311//311
f 189//189 153//153 184//184
f 188//188 189//189 184//184
f 190//190 191//191 147//147
f 306//306 192//192 305//305
f 309//309 191//191 305//305
f 138//138 194//194 193//193
f 193//193 196//196 195//195
f 187//187 193//193 195//195
f 186//186 138//138 193//193
f 197//197 187//187 195//195
f 198//198 195//195 196//196
f 199//199 197//197 198//198
f 200//200 192//192 197//197
f 202//202 204//204 201//201
f 201//201 206//206 205//205
f 207//207 205//205 148//148
f 208//208 201//201 207//207
f 205//205 210//210 209//209
f 143//143 210//210 144//144
f 150//150 209//209 143//143
f 148//148 209//209 149//149
f 211//211 144//144 210//210
f 211//211 206//206 212//212
f 194//194 212//212 196//196
f 194//194 141//141 211//211
f 212//212 204//204 213//213
f 213//213 203//203 214//214
f 198//198 214//214 199//199
f 196//196 213//213 198//198
f 215//215 216//216 217//217
f 218//218 217//217 219//219
f 162//162 218//218 220//220
f 160//160 220//220 161//161
f 220//220 219//219 222//222
f 161//161 222//222 221//221
f 202//202 221//221 222//222
f 203//203 222//222 219//219
f 217//217 199//199 214//214
f 219//219 214//214 203//203
f 223//223 183//183 200//200
f 216//216 200//200 199//199
f 178//178 180//180 223//223
f 179//179 223//223 216//216
f 224//224 179//179 215//215
f 165//165 215//215 218//218
f 224//224 164//164 225//225
f 177//177 225//225 157//157
f 145//145 211//211 226//226
f 227//227 138//138 185//185
f 307//307 153//153 152//152
f 211//211 140//140 226//226
f 230//230 232//232 229//229
f 151//151 232//232 152//152
f 319//319 233//233 234//234
f 319//319 227//227 307//307
f 236//236 238//238 235//235
f 235//235 140//140 139//139
f 234//234 139//139 227//227
f 233//233 235//235 234//234
f 239//239 241//241 242//242
f 242//242 244//244 239//239
f 239//239 246//246 245//245
f 247//247 239//239 245//245
f 248//248 145//145 226//226
f 238//238 226//226 140//140
f 237//237 248//248 238//238
f 249//249 246//246 248//248
f 243//243 142//142 244//244
f 244//244 145//145 246//246
f 250//250 245//245 249//249
f 251//251 249//249 237//237
f 252//252 237//237 236//236
f 253//253 236//236 233//233
f 310//310 233//233 320//320
f 230//230 254//254 231//231
f 254//254 257//257 256//256
f 258//258 252//252 253//253
f 260//260 250//250 251//251
f 310//310 256//256 312//312
f 291//291 225//225 164//164
f 60//60 50//50 55//55
f 263//263 240//240 247//247
f 264//264 266//266 267//267
f 268//268 264//264 263//263
f 269//269 263//263 261//261
f 270//270 261//261 260//260
f 240//240 267//267 241//241
f 259//259 251//251 252//252
f 261//261 247//247 250//250
f 256//256 271//271 272//272
f 260//260 273//273 270//270
f 259//259 274//274 273//273
f 312//312 272//272 314//314
f 127//127 131//131 126//126
f 64//64 71//71 70//70
f 143//143 228//228 150//150
f 5//5 106//106 107//107
f 33//33 21//21 39//39
f 100//100 115//115 99//99
f 25//25 81//81 28//28
f 91//91 6//6 13//13
f 102//102 104//104 103//103
f 111//111 8//8 109//109
f 79//79 63//63 86//86
f 28//28 78//78 87//87
f 41//41 43//43 38//38
f 119//119 134//134 120//120
f 80//80 62//62 79//79
f 87//87 42//42 40//40
f 1//1 90//90 48//48
f 323//323 16//16 329//329
f 123//123 136//136 122//122
f 82//82 77//77 80//80
f 102//102 110//110 108//108
f 109//109 102//102 108//108
f 8//8 74//74 7//7
f 191//191 146//146 147//147
f 275//275 146//146 182//182
f 181//181 275//275 182//182
f 275//275 156//156 155//155
f 276//276 166//166 275//275
f 62//62 60//60 63//63
f 55//55 322//322 321//321
f 57//57 1//1 56//56
f 50//50 56//56 49//49
f 277//277 167//167 276//276
f 174//174 276//276 181//181
f 101//101 89//89 111//111
f 333//333 33//33 38//38
f 297//297 157//157 225//225
f 157//157 295//295 158//158
f 317//317 294//294 172//172
f 158//158 293//293 171//171
f 298//298 163//163 159//159
f 124//124 133//133 123//123
f 292//292 164//164 163//163
f 265//265 288//288 266//266
f 286//286 265//265 268//268
f 114//114 122//122 115//115
f 283//283 268//268 269//269
f 284//284 269//269 270//270
f 274//274 282//282 273//273
f 270//270 282//282 284//284
f 314//314 287//287 274//274
f 280//280 272//272 271//271
f 127//127 129//129 128//128
f 300//300 37//37 44//44
f 299//299 19//19 29//29
f 332//332 294//294 315//315
f 9//9 299//299 45//45
f 300//300 29//29 30//30
f 20//20 297//297 88//88
f 128//128 286//286 131//131
f 133//133 282//282 136//136
f 282//282 137//137 136//136
f 168//168 278//278 169//169
f 277//277 173//173 278//278
f 169//169 279//279 262//262
f 278//278 172//172 279//279
f 285//285 279//279 290//290
f 290//290 172//172 294//294
f 272//272 304//304 314//314
f 293//293 317//317 171//171
f 258//258 314//314 274//274
f 253//253 312//312 258//258
f 254//254 320//320 231//231
f 152//152 319//319 307//307
f 231//231 319//319 232//232
f 185//185 307//307 227//227
f 183//183 305//305 192//192
f 188//188 305//305 191//191
f 187//187 311//311 186//186
f 184//184 313//313 311//311
f 182//182 308//308 181//181
f 175//175 308//308 180//180
f 174//174 316//316 173//173
f 171//171 316//316 170//170
f 47//47 329//329 16//16
f 328//328 116//116 121//121
f 321//321 51//51 54//54
f 324//324 38//38 43//43
f 302//302 31//31 32//32
f 35//35 302//302 303//303
f 332//332 293//293 34//34
f 290//290 35//35 303//303
f 323//323 48//48 90//90
f 15//15 334//334 95//95
f 37//37 331//331 333//333
f 331//331 34//34 33//33
f 20//20 21//21 295//295
f 135//135 281//281 280//280
f 132//132 283//283 284//284
f 131//131 286//286 283//283
f 54//54 10//10 9//9
f 27//27 291//291 292//292
f 330//330 137//137 287//287
f 5//5 8//8 7//7
f 17//17 16//16 15//15
f 28//28 27//27 26//26
f 39//39 21//21 20//20
f 38//38 33//33 39//39
f 327//327 49//49 48//48
f 322//322 327//327 47//47
f 325//325 324//324 43//43
f 44//44 37//37 333//333
f 51//51 47//47 52//52
f 52//52 47//47 16//16
f 54//54 51//51 53//53
f 59//59 57//57 56//56
f 325//325 321//321 54//54
f 49//49 56//56 1//1
f 61//61 59//59 58//58
f 67//67 66//66 65//65
f 73//73 69//69 68//68
f 13//13 6//6 72//72
f 72//72 68//68 11//11
f 75//75 74//74 57//57
f 69//69 73//73 74//74
f 67//67 69//69 75//75
f 66//66 67//67 76//76
f 77//77 76//76 61//61
f 78//78 80//80 79//79
f 76//76 75//75 59//59
f 23//23 24//24 83//83
f 81//81 82//82 80//80
f 21//21 34//34 293//293
f 24//24 84//84 85//85
f 83//83 85//85 82//82
f 65//65 85//85 84//84
f 66//66 82//82 85//85
f 86//86 63//63 46//46
f 42//42 79//79 86//86
f 87//87 88//88 27//27
f 40//40 20//20 88//88
f 95//95 94//94 93//93
f 74//74 89//89 3//3
f 3//3 101//101 98//98
f 334//334 97//97 96//96
f 90//90 97//97 334//334
f 101//101 100//100 99//99
f 299//299 300//300 44//44
f 98//98 99//99 96//96
f 2//2 98//98 97//97
f 107//107 106//106 105//105
f 14//14 15//15 95//95
f 334//334 335//335 94//94
f 112//112 111//111 109//109
f 335//335 326//326 117//117
f 285//285 290//290 303//303
f 121//121 137//137 330//330
f 108//108 110//110 113//113
f 112//112 113//113 114//114
f 303//303 302//302 32//32
f 8//8 5//5 107//107
f 96//96 116//116 326//326
f 120//120 118//118 117//117
f 93//93 94//94 117//117
f 99//99 115//115 116//116
f 115//115 122//122 121//121
f 119//119 117//117 326//326
f 113//113 124//124 123//123
f 291//291 27//27 88//88
f 36//36 37//37 301//301
f 126//126 131//131 132//132
f 25//25 26//26 22//22
f 103//103 104//104 130//130
f 110//110 126//126 124//124
f 122//122 136//136 137//137
f 328//328 330//330 135//135
f 50//50 49//49 327//327
f 103//103 127//127 126//126
f 46//46 55//55 321//321
f 41//41 39//39 40//40
f 4//4 3//3 2//2
f 63//63 60//60 55//55
f 100//100 101//101 111//111
f 128//128 129//129 288//288
f 135//135 330//330 304//304
f 69//69 67//67 64//64
f 6//6 7//7 73//73
f 45//45 44//44 324//324
f 68//68 64//64 70//70
f 30//30 31//31 301//301
f 26//26 292//292 298//298
f 139//139 140//140 141//141
f 142//142 143//143 144//144
f 152//152 153//153 154//154
f 36//36 35//35 332//332
f 163//163 164//164 165//165
f 159//159 163//163 162//162
f 317//317 172//172 173//173
f 318//318 175//175 170//170
f 176//176 177//177 157//157
f 170//170 176//176 158//158
f 175//175 178//178 176//176
f 177//177 176//176 178//178
f 318//318 174//174 181//181
f 309//309 183//183 180//180
f 311//311 313//313 185//185
f 306//306 188//188 184//184
f 189//189 154//154 153//153
f 188//188 190//190 189//189
f 190//190 188//188 191//191
f 306//306 187//187 192//192
f 309//309 182//182 191//191
f 138//138 141//141 194//194
f 193//193 194//194 196//196
f 187//187 186//186 193//193
f 186//186 185//185 138//138
f 197//197 192//192 187//187
f 198//198 197//197 195//195
f 199//199 200//200 197//197
f 200//200 183//183 192//192
f 202//202 203//203 204//204
f 201//201 204//204 206//206
f 207//207 201//201 205//205
f 208//208 202//202 201//201
f 205//205 206//206 210//210
f 143//143 209//209 210//210
f 150//150 149//149 209//209
f 148//148 205//205 209//209
f 211//211 210//210 206//206
f 194//194 211//211 212//212
f 212//212 206//206 204//204
f 213//213 204//204 203//203
f 198//198 213//213 214//214
f 196//196 212//212 213//213
f 215//215 179//179 216//216
f 218//218 215//215 217//217
f 162//162 165//165 218//218
f 160//160 162//162 220//220
f 220//220 218//218 219//219
f 161//161 220//220 222//222
f 202//202 208//208 221//221
f 203//203 202//202 222//222
f 217//217 216//216 199//199
f 219//219 217//217 214//214
f 223//223 180//180 183//183
f 216//216 223//223 200//200
f 178//178 175//175 180//180
f 179//179 178//178 223//223
f 224//224 177//177 179//179
f 165//165 224//224 215//215
f 224//224 165//165 164//164
f 177//177 224//224 225//225
f 145//145 144//144 211//211
f 227//227 139//139 138//138
f 307//307 313//313 153//153
f 211//211 141//141 140//140
f 230//230 231//231 232//232
f 151//151 229//229 232//232
f 319//319 320//320 233//233
f 319//319 234//234 227//227
f 236//236 237//237 238//238
f 235//235 238//238 140//140
f 234//234 235//235 139//139
f 233//233 236//236 235//235
f 239//239 240//240 241//241
f 242//242 243//243 244//244
f 239//239 244//244 246//246
f 247//247 240//240 239//239
f 248//248 246//246 145//145
f 238//238 248//248 226//226
f 237//237 249//249 248//248
f 249//249 245//245 246//246
f 243//243 228//228 142//142
f 244//244 142//142 145//145
f 250//250 247//247 245//245
f 251//251 250//250 249//249
f 252//252 251//251 237//237
f 253//253 252//252 236//236
f 310//310 253//253 233//233
f 230//230 255//255 254//254
f 254//254 255//255 257//257
f 258//258 259//259 252//252
f 260//260 261//261 250//250
f 310//310 254//254 256//256
f 291//291 297//297 225//225
f 60//60 58//58 50//50
f 263//263 264//264 240//240
f 264//264 265//265 266//266
f 268//268 265//265 264//264
f 269//269 268//268 263//263
f 270//270 269//269 261//261
f 240//240 264//264 267//267
f 259//259 260//260 251//251
f 261//261 263//263 247//247
f 256//256 257//257 271//271
f 260//260 259//259 273//273
f 259//259 258//258 274//274
f 312//312 256//256 272//272
f 127//127 128//128 131//131
f 64//64 65//65 71//71
f 143//143 142//142 228//228
f 5//5 91//91 106//106
f 33//33 34//34 21//21
f 100//100 114//114 115//115
f 25//25 83//83 81//81
f 91//91 5//5 6//6
f 102//102 105//105 104//104
f 111//111 89//89 8//8
f 79//79 62//62 63//63
f 28//28 81//81 78//78
f 41//41 86//86 43//43
f 119//119 135//135 134//134
f 80//80 77//77 62//62
f 87//87 78//78 42//42
f 1//1 2//2 90//90
f 323//323 15//15 16//16
f 123//123 133//133 136//136
f 82//82 66//66 77//77
f 102//102 103//103 110//110
f 109//109 107//107 102//102
f 8//8 89//89 74//74
f 191//191 182//182 146//146
f 275//275 155//155 146//146
f 181//181 276//276 275//275
f 275//275 166//166 156//156
f 276//276 167//167 166//166
f 62//62 61//61 60//60
f 55//55 50//50 322//322
f 57//57 4//4 1//1
f 50//50 58//58 56//56
f 277//277 168//168 167//167
f 174//174 277//277 276//276
f 101//101 3//3 89//89
f 333//333 331//331 33//33
f 297//297 296//296 157//157
f 157//157 296//296 295//295
f 317//317 315//315 294//294
f 158//158 295//295 293//293
f 298//298 292//292 163//163
f 124//124 132//132 133//133
f 292//292 291//291 164//164
f 265//265 289//289 288//288
f 286//286 289//289 265//265
f 114//114 123//123 122//122
f 283//283 286//286 268//268
f 284//284 283//283 269//269
f 274//274 287//287 282//282
f 270//270 273//273 282//282
f 314//314 304//304 287//287
f 280//280 281//281 272//272
f 127//127 130//130 129//129
f 300//300 301//301 37//37
f 299//299 18//18 19//19
f 332//332 35//35 294//294
f 9//9 18//18 299//299
f 300//300 299//299 29//29
f 20//20 296//296 297//297
f 128//128 289//289 286//286
f 133//133 284//284 282//282
f 282//282 287//287 137//137
f 168//168 277//277 278//278
f 277//277 174//174 173//173
f 169//169 278//278 279//279
f 278//278 173//173 172//172
f 285//285 262//262 279//279
f 290//290 279//279 172//172
f 272//272 281//281 304//304
f 293//293 315//315 317//317
f 258//258 312//312 314//314
f 253//253 310//310 312//312
f 254//254 310//310 320//320
f 152//152 232//232 319//319
f 231//231 320//320 319//319
f 185//185 313//313 307//307
f 183//183 309//309 305//305
f 188//188 306//306 305//305
f 187//187 306//306 311//311
f 184//184 153//153 313//313
f 182//182 309//309 308//308
f 175//175 318//318 308//308
f 174//174 318//318 316//316
f 171//171 317//317 316//316
f 47//47 327//327 329//329
f 328//328 326//326 116//116
f 321//321 322//322 51//51
f 324//324 333//333 38//38
f 302//302 301//301 31//31
f 35//35 36//36 302//302
f 332//332 315//315 293//293
f 290//290 294//294 35//35
f 323//323 329//329 48//48
f 15//15 323//323 334//334
f 37//37 36//36 331//331
f 331//331 332//332 34//34
# 600 faces, 0 coords texture

# End of File
