# https://github.com/mikedh/trimesh
v 0.00797200 -0.01773400 0.05776700
v 0.00950800 -0.01741600 0.05700500
v 0.01181400 -0.01697500 0.05758300
v 0.01311800 -0.01587000 0.05917100
v 0.00442200 -0.01561200 0.06529900
v 0.00448300 -0.01661800 0.06282100
v 0.00943400 -0.01315300 0.06633400
v 0.01116400 -0.01329600 0.06453600
v 0.02956900 0.00374200 0.03970000
v 0.01183600 0.01278500 0.04463800
v 0.01219000 0.01462300 0.04186700
v 0.01589400 0.01109200 0.04073400
v 0.01551000 0.00915900 0.04293500
v 0.02059500 0.00860000 0.03978300
v 0.01971500 0.00665000 0.04132500
v 0.00922100 0.01619100 0.04695700
v 0.00987700 0.01764100 0.04346600
v 0.00780200 0.02213800 0.04569600
v 0.00437300 0.02196200 0.05150300
v 0.00458800 0.02594400 0.04986200
v 0.00750700 0.02577500 0.04638600
v 0.02455700 0.00493800 0.04042200
v 0.02541000 0.00713800 0.03935000
v 0.00459600 0.01890800 0.05434900
v 0.00461800 0.01593000 0.05702000
v 0.01283300 -0.01406800 0.06214900
v 0.00187800 -0.01702400 0.06759100
v 0.00253000 -0.01546200 0.07051000
v 0.00620100 -0.01411200 0.06933100
v 0.00461700 -0.01572600 0.06731600
v 0.00568900 -0.01725900 0.06042500
v 0.01728700 0.01974700 0.03576700
v 0.01794400 0.01920500 0.03598000
v 0.01652700 0.01971700 0.03556200
v 0.01720200 0.01899100 0.03584300
v 0.02057900 0.01705200 0.03675600
v -0.00812000 -0.01769000 0.05759000
v -0.00964800 -0.01735600 0.05681300
v 0.01406300 0.02505300 0.03627800
v 0.01387300 0.02211300 0.03585800
v 0.01567000 0.01980400 0.03547600
v 0.01643300 0.01869000 0.03561800
v 0.01455100 0.01971700 0.03576100
v 0.01553300 0.01821700 0.03596500
v 0.02376800 0.01464400 0.03746700
v 0.02321100 0.01371700 0.03751000
v 0.01993700 0.01646100 0.03687600
v 0.01899900 0.01563000 0.03692600
v 0.02518900 -0.01786600 0.04679000
v 0.02907200 -0.02148800 0.04663300
v 0.02609300 -0.02605200 0.04765100
v 0.02203700 -0.02157100 0.04751700
v 0.01824700 -0.01702100 0.04788800
v 0.02110600 -0.01375100 0.04686800
v 0.01621300 -0.00905900 0.05110500
v 0.01695800 -0.01278000 0.05241400
v 0.01642500 -0.01388500 0.05582500
v 0.01670900 -0.01164400 0.05463900
v 0.01477400 -0.01802500 0.05445000
v 0.01709500 -0.01502800 0.05090500
v 0.01082300 -0.01938500 0.05511600
v -0.01193000 -0.01688000 0.05738400
v -0.01319200 -0.01575500 0.05895500
v 0.01063700 -0.01887100 0.05611500
v 0.01490400 -0.01839900 0.05289800
v -0.00449300 -0.01562000 0.06518100
v -0.00462400 -0.01664800 0.06272500
v 0.01516000 -0.01932300 0.05094900
v 0.01134400 -0.01996900 0.05392900
v 0.01006900 -0.01808100 0.05700000
v 0.01297400 -0.01769400 0.05692100
v -0.00941700 -0.01310500 0.06617600
v -0.01119100 -0.01321900 0.06436100
v 0.01450700 -0.01542500 0.05833000
v 0.00390900 -0.01662000 0.06503300
v 0.00509200 -0.01523000 0.06702100
v 0.00922900 0.01405400 0.04998000
v 0.01194900 0.01047700 0.04712800
v 0.00936300 0.01143500 0.05223700
v 0.01192200 0.00818900 0.04926600
v 0.01391200 -0.01305100 0.06167400
v 0.01528000 -0.01124000 0.06017400
v 0.01147700 -0.01185400 0.06537000
v 0.01234600 -0.00922400 0.06505000
v 0.00192500 -0.02038700 0.06099700
v 0.00227900 -0.02101000 0.06054200
v 0.00168200 -0.01901400 0.06260300
v 0.01790700 -0.02349000 0.04984000
v 0.01384800 -0.02298900 0.05234200
v 0.00976700 -0.02297500 0.05589000
v 0.00657200 -0.02317100 0.05852400
v 0.00582600 -0.02115000 0.05871300
v 0.00828000 -0.02058800 0.05655400
v 0.00543200 -0.02032900 0.05896500
v 0.00774800 -0.01989000 0.05707400
v 0.00758600 -0.01924800 0.05759200
v 0.00800900 -0.01836800 0.05787200
v 0.00632600 -0.01833500 0.05910000
v 0.00679200 -0.01765000 0.05895300
v 0.00533900 -0.01962300 0.05927900
v 0.00448400 0.00616400 0.06523700
v 0.00439800 0.00957800 0.06225300
v 0.00428700 -0.02848400 0.06010100
v 0.00863500 -0.02864900 0.05878400
v 0.01317000 -0.02945300 0.05631700
v 0.00268500 -0.02178100 0.06021100
v 0.01847500 -0.03130000 0.05341800
v -0.02936800 0.00388000 0.03902600
v 0.00524400 -0.00154000 0.07179200
v 0.00487600 0.00268500 0.06830800
v 0.00330600 -0.02342900 0.05986800
v 0.00511400 -0.01815800 0.06036200
v 0.00402500 -0.01753300 0.06248200
v 0.00741800 -0.01366300 0.06781700
v 0.00160000 -0.01801500 0.06490100
v 0.01006800 -0.01205800 0.06717400
v 0.00837800 -0.01251500 0.06869300
v 0.00899300 -0.01088500 0.06950800
v 0.01014000 -0.01027600 0.06832100
v 0.00695200 -0.01310600 0.07002000
v 0.00825000 -0.01108100 0.07057500
v 0.00305800 -0.01429500 0.07194300
v 0.00412200 -0.01085600 0.07407300
v 0.00519300 -0.00516000 0.07384200
v 0.00462400 -0.00857400 0.07454800
v 0.00953500 -0.00926100 0.07005800
v 0.01074100 -0.00742900 0.06835400
v 0.01089900 -0.00437700 0.06624900
v 0.01286100 -0.00658200 0.06262300
v 0.00443900 0.01296500 0.05948700
v 0.01527900 0.00713500 0.04494200
v 0.01492100 0.00509400 0.04686900
v 0.01457600 0.00261700 0.04885400
v 0.01834200 0.00237500 0.04491700
v 0.01774100 -0.00052000 0.04676200
v 0.01144500 0.00300800 0.05400400
v 0.01178900 0.00560100 0.05156700
v 0.01392000 0.00018000 0.05074000
v 0.01353100 -0.00281900 0.05251300
v 0.01139500 0.00008400 0.05633700
v 0.01756500 -0.01504200 0.04879900
v 0.01853600 -0.01033800 0.04743900
v 0.01592600 -0.00636100 0.04926800
v 0.02151700 -0.00330900 0.04549800
v 0.02024400 -0.00651400 0.04673000
v 0.01681400 -0.00314400 0.04812900
v 0.02264000 -0.00015500 0.04353300
v 0.01443500 -0.00616600 0.05488800
v 0.01564200 -0.00940300 0.05792600
v 0.01186100 -0.00327800 0.05948300
v 0.01027500 -0.00109400 0.06288900
v 0.00978500 0.00242900 0.05971000
v 0.01895800 0.00456800 0.04316500
v 0.02372000 0.00234100 0.04195000
v 0.02395900 -0.00975500 0.04636800
v 0.02854800 -0.01283000 0.04614400
v 0.02612400 -0.00565200 0.04469800
v 0.03041700 -0.00814200 0.04431100
v 0.02723200 -0.00230100 0.04290900
v 0.03170200 -0.00454200 0.04240700
v 0.03264700 -0.01673500 0.04573700
v -0.01172900 0.01285200 0.04423100
v -0.01206800 0.01470000 0.04144600
v -0.01581200 0.01119200 0.04028900
v -0.01543300 0.00924800 0.04247300
v 0.03509100 -0.01136300 0.04370200
v 0.03668900 -0.00736200 0.04165500
v 0.03287500 -0.00104000 0.04054500
v 0.02845600 0.00077200 0.04119900
v 0.02679600 0.01033200 0.03820000
v 0.02219200 0.01190800 0.03808800
v 0.01744500 0.01394900 0.03799500
v 0.00939500 0.00560300 0.05726600
v 0.00934800 0.00853700 0.05464100
v 0.01420000 0.01671700 0.03786200
v -0.02046000 0.00873600 0.03927800
v -0.01962300 0.00676700 0.04084400
v 0.01240600 0.01932700 0.03774500
v 0.01155500 0.02206700 0.03790700
v 0.01143700 0.02538000 0.03838200
v -0.00903300 0.01623300 0.04661300
v -0.00969300 0.01768000 0.04308900
v -0.00728000 0.02205200 0.04537000
v -0.00351300 0.02178200 0.05114200
v -0.00339400 0.02574300 0.04935100
v -0.00667700 0.02562800 0.04592700
v -0.02457500 0.00506600 0.03992400
v -0.02537400 0.00724700 0.03878300
v -0.00367900 0.01876100 0.05407800
v -0.00367100 0.01577500 0.05674400
v -0.01286900 -0.01397100 0.06195500
v -0.00177200 -0.01701400 0.06754600
v -0.00226900 -0.01536700 0.07040800
v -0.00602900 -0.01402500 0.06917000
v -0.00454200 -0.01568800 0.06719000
v -0.00585800 -0.01725100 0.06029000
v -0.01614000 0.01970400 0.03453100
v -0.01682900 0.01897300 0.03476700
v -0.02021900 0.01702800 0.03563700
v -0.01372200 0.02493800 0.03565600
v -0.01357500 0.02207100 0.03521400
v -0.01534200 0.01980800 0.03458000
v -0.01610900 0.01869000 0.03467600
v -0.01429800 0.01973700 0.03502800
v -0.01528400 0.01824300 0.03517300
v -0.02342800 0.01464700 0.03640500
v -0.02288600 0.01375800 0.03658100
v -0.01959600 0.01647100 0.03586000
v -0.01875400 0.01566000 0.03606400
v -0.02536300 -0.01790800 0.04581300
v -0.02917300 -0.02156500 0.04555200
v -0.02627900 -0.02602900 0.04682300
v -0.02219800 -0.02157500 0.04671600
v -0.01859600 -0.01699300 0.04734600
v -0.02141400 -0.01374000 0.04610000
v -0.01693700 -0.00891000 0.05091200
v -0.01752800 -0.01264300 0.05217500
v -0.01666900 -0.01373700 0.05554000
v -0.01714800 -0.01149400 0.05440000
v -0.01499700 -0.01785100 0.05412300
v -0.01756600 -0.01491000 0.05063700
v -0.01095300 -0.01920800 0.05472400
v -0.01074200 -0.01872200 0.05579000
v -0.01524000 -0.01825600 0.05254900
v -0.01550800 -0.01924800 0.05057800
v -0.01150300 -0.01984900 0.05348900
v -0.01018100 -0.01800100 0.05678100
v -0.01306800 -0.01757800 0.05668200
v -0.01455100 -0.01529300 0.05807300
v -0.00394900 -0.01665300 0.06494600
v -0.00506300 -0.01519900 0.06688300
v -0.00898900 0.01409800 0.04966800
v -0.01185300 0.01055500 0.04676600
v -0.00915600 0.01148400 0.05196200
v -0.01186300 0.00826500 0.04893700
v -0.01392100 -0.01294900 0.06146000
v -0.01530800 -0.01111600 0.05989800
v -0.01147100 -0.01179600 0.06520000
v -0.01233900 -0.00915900 0.06485000
v -0.00198900 -0.02039900 0.06092900
v -0.00232400 -0.02099000 0.06041200
v -0.00172300 -0.01903200 0.06258800
v -0.01811500 -0.02344300 0.04930400
v -0.01403400 -0.02289300 0.05191100
v -0.00986800 -0.02288200 0.05546800
v -0.00658600 -0.02311800 0.05808000
v -0.00584800 -0.02109000 0.05835200
v -0.00835100 -0.02048800 0.05615000
v -0.00547800 -0.02027200 0.05870700
v -0.00782200 -0.01978600 0.05673700
v -0.00766000 -0.01917000 0.05732400
v -0.00813200 -0.01832000 0.05766300
v -0.00644800 -0.01831000 0.05891800
v -0.00694100 -0.01761400 0.05878300
v -0.00540900 -0.01959700 0.05910900
v -0.00385000 0.00600800 0.06492700
v -0.00364800 0.00941800 0.06194900
v -0.00425700 -0.02849500 0.05974000
v -0.00865700 -0.02863500 0.05836300
v -0.01328700 -0.02938800 0.05594500
v -0.00270100 -0.02175200 0.05999500
v -0.01861400 -0.03120900 0.05302600
v -0.00456500 -0.00165200 0.07150000
v -0.00426900 0.00255200 0.06802900
v -0.00329700 -0.02339900 0.05951900
v -0.00525100 -0.01818100 0.06024500
v -0.00413700 -0.01760100 0.06241300
v -0.00734900 -0.01361100 0.06766500
v -0.00159800 -0.01804700 0.06488200
v -0.01000700 -0.01202800 0.06702200
v -0.00825400 -0.01248200 0.06853700
v -0.00885400 -0.01087300 0.06936200
v -0.01006400 -0.01024600 0.06816100
v -0.00672100 -0.01303300 0.06984400
v -0.00799800 -0.01107400 0.07042600
v -0.00264000 -0.01415500 0.07178400
v -0.00346000 -0.01075700 0.07382200
v -0.00443400 -0.00524100 0.07349400
v -0.00389000 -0.00855500 0.07424400
v -0.00932400 -0.00925300 0.06990900
v -0.01059600 -0.00740400 0.06818300
v -0.01083400 -0.00433600 0.06604300
v -0.01296400 -0.00649400 0.06239500
v -0.00358400 0.01281000 0.05920000
v -0.01522500 0.00721300 0.04449000
v -0.01490200 0.00517700 0.04646800
v -0.01463800 0.00268500 0.04843600
v -0.01832000 0.00244300 0.04438600
v -0.01780200 -0.00046900 0.04618700
v -0.01155400 0.00309800 0.05376600
v -0.01181900 0.00567700 0.05127000
v -0.01412000 0.00027000 0.05040000
v -0.01393100 -0.00270100 0.05225000
v -0.01167200 0.00018700 0.05610300
v -0.01819500 -0.01495100 0.04852200
v -0.01907000 -0.01025200 0.04695200
v -0.01646600 -0.00623200 0.04894500
v -0.02151800 -0.00325500 0.04476100
v -0.02043700 -0.00645700 0.04599600
v -0.01705900 -0.00306900 0.04761400
v -0.02256600 -0.00006600 0.04290500
v -0.01488500 -0.00603500 0.05466300
v -0.01584000 -0.00928500 0.05766700
v -0.01213100 -0.00317800 0.05926100
v -0.01032200 -0.00103500 0.06267500
v -0.00981800 0.00248600 0.05949100
v -0.01891000 0.00464900 0.04264200
v -0.02369800 0.00247200 0.04142400
v -0.02410900 -0.00973100 0.04550600
v -0.02871800 -0.01288500 0.04522400
v -0.02612100 -0.00559400 0.04388000
v -0.03039000 -0.00812400 0.04344500
v -0.02717000 -0.00218000 0.04225300
v -0.03160600 -0.00449200 0.04160000
v -0.03275600 -0.01681600 0.04471100
v -0.03498600 -0.01139500 0.04276600
v -0.03651600 -0.00738000 0.04072700
v -0.03268700 -0.00098800 0.03971600
v -0.02836700 0.00092900 0.04063200
v -0.02653600 0.01039000 0.03734700
v -0.02192200 0.01198300 0.03731400
v -0.01728200 0.01401400 0.03730000
v -0.00930100 0.00564600 0.05704100
v -0.00921800 0.00858100 0.05439800
v -0.01404900 0.01678100 0.03724500
v -0.01224500 0.01936600 0.03717500
v -0.01132700 0.02199800 0.03749200
v -0.01110200 0.02522500 0.03801900
v -0.02174600 -0.02884200 0.04974300
v -0.01646400 -0.02697900 0.05251400
v -0.01153700 -0.02620500 0.05571300
v -0.00753000 -0.02588100 0.05816700
v -0.00364800 -0.02595200 0.05958300
v 0.00040400 0.00348100 0.06993900
v -0.00009300 -0.02379200 0.05991300
v 0.00043400 -0.00060000 0.07335900
v 0.00001000 -0.02662100 0.05984900
v 0.00054300 0.02025400 0.05555800
v 0.00042900 0.01718400 0.05814100
v 0.00040500 0.00727200 0.06663800
v 0.00045100 -0.00453000 0.07550100
v 0.00000400 -0.01850700 0.06502800
v 0.00018500 -0.01478500 0.07254700
v -0.00000900 -0.02922100 0.05987400
v 0.00046400 0.01085200 0.06355000
v -0.00006300 -0.02128400 0.06116800
v -0.00002400 -0.02072800 0.06172600
v 0.00052000 0.02661800 0.05106200
v -0.00001900 -0.02195700 0.06063500
v 0.00051000 0.02324800 0.05322100
v 0.00052000 0.01421700 0.06058200
v 0.00037300 -0.01131000 0.07527900
v 0.00042300 -0.00840400 0.07611400
v 0.00010000 -0.01601800 0.07080500
v 0.00002800 -0.01751300 0.06768600
v 0.00000500 -0.01969200 0.06290200
v -0.00417500 -0.01474000 0.06984900
v -0.00318400 -0.01640700 0.06739600
v -0.01515600 0.02061200 0.03436300
v -0.00789800 -0.01859000 0.05757300
v -0.00699200 0.00464300 0.06268500
v -0.01393400 0.02087000 0.03504900
v -0.01038900 -0.01817000 0.05643100
v -0.00653400 0.01121600 0.05710800
v -0.00823900 0.02013000 0.04426400
v -0.00655700 0.00784800 0.05999200
v -0.01569300 -0.01472900 0.05661700
v -0.01403400 -0.01760100 0.05547300
v -0.00684300 -0.00890600 0.07232000
v -0.00775900 -0.00614100 0.07133400
v -0.00748000 -0.01190500 0.07024900
v -0.00475300 -0.01360400 0.07092600
v -0.00602800 -0.01085500 0.07220800
v -0.00298100 -0.01280800 0.07284900
v -0.01187800 -0.01031100 0.06520000
v -0.00685900 0.01914400 0.04858600
v -0.01456900 -0.01189700 0.06082800
v -0.00761900 0.00103800 0.06574800
v -0.00296500 -0.01836600 0.06252400
v -0.01007300 -0.01103100 0.06762500
v -0.00864500 -0.01154400 0.06910700
v -0.00345600 -0.01917600 0.06066600
v -0.01167600 0.02072700 0.03733100
v -0.00651700 0.01687800 0.05219100
v -0.00640100 0.01409500 0.05501500
v -0.00282900 -0.01741600 0.06493500
v -0.00796600 -0.00267500 0.06916500
v -0.00590200 -0.01868300 0.05914800
v 0.00028100 -0.01326500 0.07398600
v -0.00531800 -0.01240400 0.07166700
v -0.02123900 0.01046300 0.03815700
v 0.02154800 -0.02892200 0.05027500
v 0.01628000 -0.02708000 0.05292200
v 0.01141800 -0.02629200 0.05610500
v 0.00754500 -0.02592300 0.05861500
v 0.00368300 -0.02595700 0.05993400
v -0.00860300 0.02541600 0.04179200
v -0.01660000 0.01277000 0.03848100
v -0.01316400 0.01579300 0.03891000
v -0.01080500 0.01876800 0.03984400
v -0.00899300 0.02201600 0.04118900
v -0.02601200 0.00897000 0.03799700
v -0.00977400 0.02041100 0.04067400
v 0.00000300 -0.03100200 0.06027700
v -0.00932600 -0.03084400 0.05876800
v -0.00453500 -0.03057800 0.06022300
v -0.01434800 -0.03211900 0.05626300
v 0.00441500 -0.01485100 0.07000100
v 0.00328700 -0.01643100 0.06749000
v 0.01548500 0.02061600 0.03525000
v 0.00780000 -0.01864900 0.05780400
v 0.00731100 0.00469100 0.06294800
v 0.01420600 0.02087000 0.03575300
v 0.01029400 -0.01828000 0.05670100
v 0.00701000 0.01127200 0.05737900
v 0.00850300 0.02014100 0.04459900
v 0.00694800 0.00790700 0.06026400
v 0.01562500 -0.01488900 0.05691800
v 0.01393800 -0.01775100 0.05576600
v 0.00728500 -0.00889600 0.07252300
v 0.00816700 -0.00611000 0.07155100
v 0.00774200 -0.01194100 0.07041700
v 0.00509900 -0.01372900 0.07111700
v 0.00647800 -0.01089100 0.07241100
v 0.00353400 -0.01294600 0.07305800
v 0.01636000 0.02050300 0.03549900
v 0.01190200 -0.01037200 0.06538500
v 0.00728000 0.01918200 0.04891100
v 0.01456900 -0.01201400 0.06107200
v 0.00783100 0.00105200 0.06598600
v 0.00289400 -0.01830900 0.06256800
v 0.01013600 -0.01106000 0.06778200
v 0.00878800 -0.01156300 0.06925800
v 0.00335300 -0.01913700 0.06076100
v 0.01187900 0.02071800 0.03785000
v 0.00705400 0.01693500 0.05249900
v 0.00702800 0.01416600 0.05529300
v 0.00281200 -0.01736200 0.06498400
v 0.00830000 -0.00264600 0.06938800
v 0.00580300 -0.01870100 0.05932300
v 0.00573500 -0.01249300 0.07187200
v 0.02144100 0.01034700 0.03877900
v 0.00903500 0.02556100 0.04210600
v 0.01669900 0.01266300 0.03901200
v 0.01326200 0.01570700 0.03938400
v 0.01094300 0.01871900 0.04027600
v 0.00925300 0.02208900 0.04150600
v 0.02615200 0.00888600 0.03869400
v 0.00997000 0.02041200 0.04105100
v 0.00934200 -0.03085100 0.05918000
v 0.00455000 -0.03054800 0.06054500
v 0.01427700 -0.03217700 0.05662900
f 10 12 11
f 18 20 19
f 14 22 23
f 30 408 409
f 339 24 338
f 35 32 34
f 43 410 413
f 42 34 41
f 41 426 410
f 44 41 43
f 45 36 47
f 46 47 48
f 47 35 42
f 92 111 91
f 428 18 19
f 174 417 173
f 109 334 336
f 94 106 92
f 440 112 434
f 102 340 101
f 115 355 342
f 10 17 16
f 12 15 14
f 52 50 49
f 58 56 55
f 71 414 419
f 79 78 77
f 77 428 436
f 79 436 437
f 81 4 74
f 26 83 8
f 429 84 427
f 346 85 347
f 68 89 88
f 93 91 90
f 61 93 69
f 95 92 93
f 70 411 414
f 349 86 346
f 130 345 102
f 335 396 111
f 396 91 111
f 6 112 31
f 409 75 30
f 431 115 87
f 6 75 113
f 104 394 395
f 7 83 116
f 433 121 422
f 432 83 427
f 433 116 432
f 117 7 116
f 76 29 30
f 29 423 408
f 422 424 441
f 114 120 29
f 431 85 434
f 119 127 126
f 126 421 420
f 128 84 129
f 167 158 166
f 20 350 19
f 353 123 125
f 121 420 424
f 424 125 123
f 97 99 98
f 5 30 75
f 96 94 95
f 61 59 64
f 78 16 77
f 351 25 339
f 78 13 10
f 133 134 132
f 138 140 139
f 65 60 59
f 141 54 142
f 142 55 141
f 141 68 53
f 144 146 145
f 149 150 129
f 135 147 134
f 57 149 82
f 79 415 174
f 82 129 84
f 139 150 148
f 153 13 131
f 135 138 146
f 54 156 155
f 155 158 157
f 142 155 145
f 157 160 159
f 49 161 156
f 132 78 80
f 168 159 160
f 138 137 136
f 134 131 132
f 154 159 169
f 22 169 9
f 153 147 154
f 170 46 171
f 171 48 172
f 442 172 444
f 448 171 442
f 136 152 140
f 69 90 89
f 444 175 445
f 449 179 447
f 179 39 180
f 414 96 64
f 109 421 439
f 27 438 409
f 435 40 179
f 437 24 25
f 113 434 112
f 82 418 57
f 408 122 28
f 419 64 59
f 14 444 12
f 162 164 165
f 18 443 21
f 423 425 122
f 177 164 176
f 137 132 80
f 429 74 418
f 411 98 440
f 182 162 181
f 183 185 186
f 445 178 446
f 189 339 338
f 187 176 188
f 95 64 96
f 357 195 358
f 97 2 1
f 15 154 22
f 415 102 417
f 197 203 202
f 202 205 204
f 359 204 362
f 199 206 208
f 208 207 209
f 203 209 205
f 198 208 203
f 60 57 59
f 150 152 151
f 141 56 60
f 70 3 2
f 89 394 393
f 352 425 123
f 124 336 341
f 49 53 52
f 418 59 57
f 145 143 142
f 211 213 210
f 210 214 215
f 217 219 216
f 218 221 220
f 222 220 224
f 226 224 225
f 227 62 228
f 363 228 368
f 367 220 368
f 63 228 62
f 195 66 230
f 181 233 232
f 234 233 235
f 384 234 385
f 376 232 384
f 63 236 229
f 229 377 367
f 238 191 73
f 239 377 375
f 240 346 347
f 104 451 450
f 243 214 213
f 244 225 243
f 246 248 245
f 247 250 248
f 250 223 222
f 248 222 226
f 252 38 227
f 360 227 363
f 252 254 37
f 360 253 252
f 251 249 255
f 245 226 244
f 406 259 405
f 241 349 346
f 240 379 382
f 266 67 196
f 194 231 195
f 379 269 386
f 67 230 66
f 358 230 386
f 238 72 270
f 271 72 268
f 381 270 271
f 380 238 270
f 275 381 371
f 274 268 194
f 372 194 357
f 373 371 390
f 281 273 280
f 280 272 275
f 369 275 373
f 370 280 369
f 282 239 281
f 387 281 370
f 137 79 174
f 65 69 68
f 48 42 44
f 350 24 19
f 148 58 55
f 145 157 144
f 144 159 147
f 172 44 175
f 336 278 341
f 350 189 338
f 351 190 284
f 233 286 235
f 233 165 285
f 287 288 289
f 291 292 290
f 291 286 287
f 294 292 293
f 295 217 216
f 224 221 295
f 295 225 224
f 215 295 296
f 296 216 297
f 298 300 289
f 301 289 288
f 299 297 300
f 302 219 303
f 303 304 302
f 237 283 303
f 218 303 219
f 304 293 302
f 302 297 216
f 264 361 378
f 304 306 294
f 387 264 378
f 283 305 304
f 300 293 292
f 289 292 287
f 165 307 285
f 285 288 286
f 301 307 308
f 177 308 307
f 310 215 309
f 309 296 299
f 312 309 311
f 311 299 298
f 313 298 301
f 314 311 313
f 315 210 310
f 318 313 319
f 119 427 84
f 313 308 319
f 319 187 108
f 207 320 321
f 402 321 320
f 209 321 322
f 391 322 321
f 256 366 361
f 306 290 294
f 284 385 364
f 291 234 235
f 290 324 291
f 257 364 366
f 175 43 178
f 365 181 376
f 322 205 209
f 398 325 322
f 383 201 362
f 325 204 205
f 399 326 325
f 403 327 383
f 327 200 201
f 401 328 327
f 417 101 412
f 4 71 74
f 439 127 128
f 437 130 415
f 136 174 173
f 16 416 428
f 447 180 443
f 146 139 143
f 128 430 439
f 129 151 128
f 148 143 139
f 412 110 430
f 312 317 316
f 310 316 315
f 329 213 212
f 330 243 329
f 439 110 109
f 88 53 68
f 118 126 121
f 265 247 246
f 261 249 247
f 253 196 254
f 388 266 253
f 241 255 249
f 331 244 330
f 260 330 262
f 192 354 193
f 277 353 279
f 350 185 184
f 347 242 240
f 345 284 257
f 36 33 35
f 406 344 258
f 193 343 276
f 276 389 374
f 242 342 269
f 269 355 192
f 279 341 278
f 340 257 256
f 335 261 265
f 263 334 264
f 264 340 256
f 374 352 277
f 255 382 388
f 400 383 326
f 326 362 204
f 183 376 184
f 366 324 323
f 364 234 324
f 361 323 306
f 282 378 305
f 378 306 305
f 263 370 278
f 278 369 279
f 279 373 277
f 390 274 372
f 374 372 276
f 277 390 374
f 276 357 193
f 371 271 274
f 273 375 380
f 272 380 381
f 192 386 269
f 267 386 230
f 382 267 266
f 251 388 360
f 251 363 223
f 375 236 238
f 367 237 218
f 184 384 189
f 189 385 190
f 229 368 228
f 223 368 220
f 389 122 425
f 393 105 107
f 193 358 192
f 87 347 85
f 87 342 356
f 392 52 88
f 166 156 161
f 451 344 404
f 343 28 122
f 354 27 28
f 100 86 94
f 98 31 112
f 393 88 89
f 100 434 85
f 23 442 14
f 341 125 124
f 110 340 334
f 106 335 111
f 178 413 435
f 446 435 449
f 12 445 11
f 182 403 400
f 152 430 151
f 183 397 401
f 365 401 403
f 163 400 399
f 164 399 398
f 176 398 391
f 188 391 402
f 118 432 119
f 409 28 27
f 441 123 425
f 416 447 18
f 117 422 120
f 436 19 24
f 96 440 100
f 74 419 418
f 11 446 17
f 113 438 431
f 420 124 125
f 81 427 83
f 173 412 152
f 120 441 423
f 17 449 416
f 245 332 246
f 331 259 332
f 246 333 265
f 332 258 333
f 335 333 337
f 337 258 344
f 260 405 259
f 395 90 91
f 103 395 396
f 337 103 396
f 105 450 452
f 10 13 12
f 18 21 20
f 14 15 22
f 30 29 408
f 23 22 9
f 339 25 24
f 35 33 32
f 43 41 410
f 42 35 34
f 41 34 426
f 44 42 41
f 46 45 47
f 47 36 35
f 92 106 111
f 428 416 18
f 174 415 417
f 109 110 334
f 94 86 106
f 440 98 112
f 102 345 340
f 115 27 355
f 10 11 17
f 12 13 15
f 52 51 50
f 58 57 56
f 71 70 414
f 79 80 78
f 77 16 428
f 79 77 436
f 81 26 4
f 26 81 83
f 429 82 84
f 346 86 85
f 68 69 89
f 93 92 91
f 61 95 93
f 95 94 92
f 70 97 411
f 349 106 86
f 107 105 452
f 130 351 345
f 392 393 107
f 335 337 396
f 396 395 91
f 6 113 112
f 409 438 75
f 431 438 115
f 6 5 75
f 104 105 394
f 7 8 83
f 433 118 121
f 432 116 83
f 433 117 116
f 117 114 7
f 76 114 29
f 29 120 423
f 422 121 424
f 114 117 120
f 431 87 85
f 119 84 127
f 126 127 421
f 128 127 84
f 167 160 158
f 20 348 350
f 353 352 123
f 121 126 420
f 424 420 125
f 97 1 99
f 5 76 30
f 96 100 94
f 61 65 59
f 78 10 16
f 351 130 25
f 78 131 13
f 133 135 134
f 138 136 140
f 65 141 60
f 141 53 54
f 142 143 55
f 141 65 68
f 144 135 146
f 149 148 150
f 135 144 147
f 57 58 149
f 79 437 415
f 82 149 129
f 139 140 150
f 153 15 13
f 135 133 138
f 54 49 156
f 155 156 158
f 142 54 155
f 157 158 160
f 49 50 161
f 132 131 78
f 168 169 159
f 138 133 137
f 9 169 168
f 134 153 131
f 154 147 159
f 22 154 169
f 153 134 147
f 171 46 48
f 442 171 172
f 448 170 171
f 136 173 152
f 69 93 90
f 444 172 175
f 449 435 179
f 179 40 39
f 414 411 96
f 109 124 421
f 27 115 438
f 435 413 40
f 437 436 24
f 113 431 434
f 82 429 418
f 408 423 122
f 419 414 64
f 14 442 444
f 162 163 164
f 18 447 443
f 423 441 425
f 177 165 164
f 137 133 132
f 429 81 74
f 411 97 98
f 182 163 162
f 183 184 185
f 445 175 178
f 108 187 188
f 189 190 339
f 187 177 176
f 95 61 64
f 357 194 195
f 97 70 2
f 15 153 154
f 415 130 102
f 197 198 203
f 202 203 205
f 359 202 204
f 208 206 207
f 203 208 209
f 198 199 208
f 60 56 57
f 150 140 152
f 141 55 56
f 70 71 3
f 89 90 394
f 352 389 425
f 124 109 336
f 49 54 53
f 418 419 59
f 145 146 143
f 211 212 213
f 210 213 214
f 217 218 219
f 218 217 221
f 222 223 220
f 226 222 224
f 227 38 62
f 363 227 228
f 367 218 220
f 63 229 228
f 195 231 66
f 181 162 233
f 234 232 233
f 384 232 234
f 376 181 232
f 63 191 236
f 229 236 377
f 238 236 191
f 239 237 377
f 240 241 346
f 104 103 451
f 243 225 214
f 244 226 225
f 246 247 248
f 247 249 250
f 250 251 223
f 248 250 222
f 252 37 38
f 360 252 227
f 252 253 254
f 360 388 253
f 251 250 249
f 245 248 226
f 406 258 259
f 241 261 349
f 407 260 262
f 240 242 379
f 266 267 67
f 194 268 231
f 379 242 269
f 67 267 230
f 358 195 230
f 238 73 72
f 271 270 72
f 381 380 270
f 380 375 238
f 275 272 381
f 274 271 268
f 372 274 194
f 373 275 371
f 281 239 273
f 280 273 272
f 369 280 275
f 370 281 280
f 282 283 239
f 387 282 281
f 137 80 79
f 65 61 69
f 48 47 42
f 350 338 24
f 148 149 58
f 145 155 157
f 144 157 159
f 172 48 44
f 336 263 278
f 350 184 189
f 351 339 190
f 233 285 286
f 233 162 165
f 287 286 288
f 291 287 292
f 291 235 286
f 294 290 292
f 295 221 217
f 224 220 221
f 295 214 225
f 215 214 295
f 296 295 216
f 298 299 300
f 301 298 289
f 299 296 297
f 302 216 219
f 303 283 304
f 237 239 283
f 218 237 303
f 304 294 293
f 302 293 297
f 264 256 361
f 304 305 306
f 387 263 264
f 283 282 305
f 300 297 293
f 289 300 292
f 165 177 307
f 285 307 288
f 301 288 307
f 177 187 308
f 310 210 215
f 309 215 296
f 312 310 309
f 311 309 299
f 313 311 298
f 314 312 311
f 315 211 210
f 318 314 313
f 318 319 108
f 119 432 427
f 313 301 308
f 319 308 187
f 402 391 321
f 209 207 321
f 391 398 322
f 256 257 366
f 306 323 290
f 284 190 385
f 291 324 234
f 290 323 324
f 257 284 364
f 175 44 43
f 365 182 181
f 322 325 205
f 398 399 325
f 383 327 201
f 325 326 204
f 399 400 326
f 403 401 327
f 327 328 200
f 401 397 328
f 417 102 101
f 4 3 71
f 439 421 127
f 437 25 130
f 136 137 174
f 16 17 416
f 447 179 180
f 146 138 139
f 128 151 430
f 129 150 151
f 148 55 143
f 412 101 110
f 262 330 329
f 312 314 317
f 310 312 316
f 329 243 213
f 330 244 243
f 439 430 110
f 88 52 53
f 118 119 126
f 265 261 247
f 261 241 249
f 253 266 196
f 388 382 266
f 241 240 255
f 331 245 244
f 260 331 330
f 192 355 354
f 277 352 353
f 350 348 185
f 347 356 242
f 345 351 284
f 406 404 344
f 193 354 343
f 276 343 389
f 242 356 342
f 269 342 355
f 279 353 341
f 340 345 257
f 335 349 261
f 263 336 334
f 264 334 340
f 374 389 352
f 255 240 382
f 400 403 383
f 326 383 362
f 183 365 376
f 366 364 324
f 364 385 234
f 361 366 323
f 282 387 378
f 378 361 306
f 263 387 370
f 278 370 369
f 279 369 373
f 390 371 274
f 374 390 372
f 277 373 390
f 276 372 357
f 371 381 271
f 273 239 375
f 272 273 380
f 192 358 386
f 267 379 386
f 382 379 267
f 251 255 388
f 251 360 363
f 375 377 236
f 367 377 237
f 184 376 384
f 189 384 385
f 229 367 368
f 223 363 368
f 389 343 122
f 393 394 105
f 193 357 358
f 87 356 347
f 87 115 342
f 392 51 52
f 166 158 156
f 451 103 344
f 343 354 28
f 354 355 27
f 100 85 86
f 98 99 31
f 393 392 88
f 100 440 434
f 23 448 442
f 341 353 125
f 110 101 340
f 106 349 335
f 178 43 413
f 446 178 435
f 12 444 445
f 182 365 403
f 152 412 430
f 183 186 397
f 365 183 401
f 163 182 400
f 164 163 399
f 176 164 398
f 188 176 391
f 118 433 432
f 409 408 28
f 441 424 123
f 416 449 447
f 117 433 422
f 436 428 19
f 96 411 440
f 74 71 419
f 11 445 446
f 113 75 438
f 420 421 124
f 81 429 427
f 173 417 412
f 120 422 441
f 17 446 449
f 245 331 332
f 331 260 259
f 246 332 333
f 332 259 258
f 335 265 333
f 337 333 258
f 260 407 405
f 395 394 90
f 103 104 395
f 337 344 103
f 105 104 450

