####
#
# OBJ File Generated by Meshlab
#
####
# Object template_cheek_cropped.obj
#
# Vertices: 714
# Faces: 1254
#
####
vn 1.7801690 1.7093511 5.7731571
v 0.0345080 0.0054250 0.0379090
vn 1.7220938 1.8808427 5.7402711
v 0.0337350 0.0025740 0.0389820
vn 1.4254944 2.0734608 5.7540216
v 0.0295690 0.0037420 0.0397000
vn 1.2869322 1.7684942 5.8873062
v 0.0304830 0.0062050 0.0387190
vn 4.0141129 2.2010286 4.2621408
v 0.0531450 0.0031500 0.0283040
vn 4.4458675 0.9474815 4.1877737
v 0.0552440 -0.0026500 0.0287640
vn 3.9307618 1.1115125 4.6492286
v 0.0514920 -0.0031300 0.0324180
vn 3.5063722 2.2556298 4.6637430
v 0.0498570 0.0027230 0.0312900
vn 4.8751278 2.9496341 2.5604889
v 0.0118360 0.0127850 0.0446380
vn 3.2143235 2.2317176 2.0037682
v 0.0121900 0.0146230 0.0418670
vn 3.5338464 3.2861881 3.9098222
v 0.0158940 0.0110920 0.0407340
vn 4.1386948 3.0973725 3.5235720
v 0.0155100 0.0091590 0.0429350
vn 1.8688257 2.7683218 5.2762203
v 0.0205950 0.0086000 0.0397830
vn 2.6862609 2.9786975 4.7891746
v 0.0197150 0.0066500 0.0413250
vn 2.4160464 0.5348190 1.8644505
v 0.0600860 0.0157490 0.0146450
vn 3.8150320 0.8087027 2.1172788
v 0.0625630 0.0129630 0.0118300
vn 5.2365007 1.2718661 3.1017072
v 0.0616920 0.0048690 0.0169540
vn 4.6235547 1.7826558 3.8546913
v 0.0587880 0.0086280 0.0188860
vn 4.3758283 2.2120423 3.8970926
v 0.0556430 0.0042700 0.0250950
vn 4.8623343 1.0752356 3.6349909
v 0.0580840 -0.0012730 0.0250730
vn 2.4305360 1.1984712 0.9212319
v 0.0092210 0.0161910 0.0469570
vn 1.4557183 0.7361295 0.6168041
v 0.0098770 0.0176410 0.0434660
vn 1.5863023 2.4816213 5.5389509
v 0.0245570 0.0049380 0.0404220
vn 1.1043079 2.0983062 5.8132334
v 0.0254100 0.0071380 0.0393500
vn 1.3535821 0.5825397 1.6508458
v 0.0504260 0.0159790 0.0241270
vn 1.9208941 1.0693974 2.6015611
v 0.0492360 0.0144210 0.0253890
vn 4.5643187 2.0956335 3.7694383
v 0.0575360 0.0059460 0.0217590
vn 3.9304931 2.1716008 4.3881741
v 0.0516100 0.0116250 0.0247700
vn 4.1394567 1.8004621 4.3536067
v 0.0530220 0.0131210 0.0226740
vn 5.3790126 -0.2325610 3.0790825
v 0.0601030 -0.0094820 0.0227760
vn 5.1539736 1.2262374 3.2231462
v 0.0601480 0.0010070 0.0211080
vn 5.6870136 -0.0705305 2.5146494
v 0.0624160 -0.0067960 0.0182150
vn 0.7458593 -0.1670234 1.5146911
v 0.0361910 0.0127110 0.0359790
vn 0.7674019 0.6069129 3.0961771
v 0.0326190 0.0115950 0.0369940
vn 1.7697260 0.4999237 4.2166762
v 0.0360320 0.0115400 0.0359010
vn 0.3160784 0.6648163 3.3473067
v 0.0274960 0.0121130 0.0377910
vn 1.9495025 1.1925328 2.3112245
v 0.0476350 0.0133220 0.0272760
vn 1.9448177 1.2112876 2.3972123
v 0.0459960 0.0125330 0.0290850
vn 1.0232364 0.2222849 1.3474965
v 0.0434010 0.0134290 0.0310440
vn 2.6027820 1.3673332 3.5303793
v 0.0438610 0.0120530 0.0309760
vn 3.5596900 1.2036524 4.9631090
v 0.0414590 0.0117600 0.0327940
vn 1.9985530 0.1593115 2.5032630
v 0.0413010 0.0130350 0.0328390
vn 1.6795999 -0.0843914 2.6847789
v 0.0393400 0.0128430 0.0343350
vn 3.0566893 0.7663938 5.3738260
v 0.0391540 0.0114870 0.0343850
vn 0.1035425 0.8960456 3.0940924
v 0.0232110 0.0137170 0.0375100
vn 0.2245895 0.7063241 1.6452868
v 0.0189990 0.0156300 0.0369260
vn 5.8171058 0.2289827 2.2544119
v 0.0644420 -0.0017530 0.0128500
vn 5.7900958 0.7105108 2.2758269
v 0.0658130 0.0077040 0.0070090
vn 4.9495783 -0.3214860 3.7217712
v 0.0570500 -0.0120120 0.0272040
vn 4.5980029 -0.1750369 4.2002859
v 0.0526900 -0.0148100 0.0320890
vn 0.9617382 -1.9750934 5.6848006
v 0.0253430 -0.0445260 0.0468700
vn 2.4302249 1.1313878 5.5286574
v 0.0244220 -0.0451560 0.0470460
vn 3.2258878 3.0267339 4.3883815
v 0.0234910 -0.0445210 0.0473570
vn 0.4129265 -1.1530664 5.2960796
v 0.0243440 -0.0443800 0.0469360
vn 0.0278453 5.1852984 -2.0548365
v 0.0222730 -0.0436450 0.0459150
vn 0.2042859 5.6107244 -1.8085003
v 0.0231960 -0.0440650 0.0449770
vn 2.5523636 5.7307014 -0.1399139
v 0.0233310 -0.0440450 0.0462280
vn 2.4947526 5.6536765 0.3591952
v 0.0224570 -0.0436300 0.0470330
vn 2.2575347 0.7189310 5.8046627
v 0.0286990 -0.0298240 0.0475420
vn 1.9329491 0.2014807 5.9536581
v 0.0324530 -0.0256850 0.0460990
vn 2.7039175 -0.2269934 5.6473870
v 0.0354480 -0.0300550 0.0448830
vn 2.7153358 0.0898257 5.6525335
v 0.0320140 -0.0334730 0.0464260
vn -2.2575383 -0.1425904 -0.2122576
v 0.0239890 -0.0446790 0.0410570
vn -2.4399788 0.8552365 -0.3856443
v 0.0238950 -0.0453850 0.0408050
vn -2.3612802 1.3605759 -0.7029874
v 0.0237240 -0.0457350 0.0408540
vn 2.7208109 -0.9781803 5.5625930
v 0.0343240 -0.0506960 0.0428930
vn 2.2912459 -0.8829762 5.7747598
v 0.0307290 -0.0485660 0.0446180
vn 2.2667301 -1.3050799 5.7063770
v 0.0317180 -0.0455600 0.0449250
vn 2.8905194 -0.9790141 5.4577007
v 0.0353420 -0.0462400 0.0432460
vn 0.8094212 0.5021757 6.2088518
v 0.0251890 -0.0178660 0.0467900
vn 1.1354327 0.4878410 6.1510291
v 0.0290720 -0.0214880 0.0466330
vn 1.6653252 1.1994466 5.9064651
v 0.0260930 -0.0260520 0.0476510
vn 1.5585862 1.1664490 5.8587399
v 0.0220370 -0.0215710 0.0475170
vn 2.8775854 0.2184726 5.1118183
v 0.0182470 -0.0170210 0.0478880
vn 1.4700406 0.4270142 5.9984417
v 0.0211060 -0.0137510 0.0468680
vn 2.5729871 0.6363782 1.0534139
v 0.0162130 -0.0090590 0.0511050
vn 2.1880054 0.3393622 0.1550438
v 0.0169580 -0.0127800 0.0524140
vn 3.9647179 -1.1476808 0.8924457
v 0.0170950 -0.0150280 0.0509050
vn 2.0819311 -1.8881763 1.1279510
v 0.0149040 -0.0183990 0.0528980
vn 4.2798448 -0.8351929 3.9705629
v 0.0151600 -0.0193230 0.0509490
vn 2.1726584 0.0674762 2.5780220
v 0.0113440 -0.0199690 0.0539290
vn 2.5010042 1.1383952 0.9574656
v 0.0092290 0.0140540 0.0499800
vn 5.0681548 2.6147816 2.5935466
v 0.0119490 0.0104770 0.0471280
vn 1.4552867 0.5972668 0.6246210
v 0.0093630 0.0114350 0.0522370
vn 3.7755713 1.7735792 2.0277355
v 0.0119220 0.0081890 0.0492660
vn 2.6058676 -3.3633883 4.5363584
v 0.0019250 -0.0203870 0.0609970
vn 2.2186379 -2.0411394 5.4629564
v 0.0022790 -0.0210100 0.0605420
vn 1.2980472 -2.2549467 2.0915980
v 0.0016820 -0.0190140 0.0626030
vn 0.6526071 0.0367177 3.2197847
v 0.0056300 -0.0375070 0.0613520
vn 0.8932372 0.7874708 5.9374690
v 0.0053470 -0.0347610 0.0613960
vn 2.9551120 1.8423533 5.1233392
v 0.0179070 -0.0234900 0.0498400
vn 3.5567288 1.5816884 4.7787004
v 0.0138480 -0.0229890 0.0523420
vn 3.8175983 1.5069785 4.7367730
v 0.0097670 -0.0229750 0.0558900
vn 3.0912321 0.9243110 5.3183651
v 0.0065720 -0.0231710 0.0585240
vn 3.3333049 0.2878661 5.2702141
v 0.0058260 -0.0211500 0.0587130
vn 2.5584722 0.4907913 3.0731294
v 0.0082800 -0.0205880 0.0565540
vn 2.2894285 -0.5088778 3.8328421
v 0.0054320 -0.0203290 0.0589650
vn 1.4792358 -0.0715202 1.6796664
v 0.0077480 -0.0198900 0.0570740
vn 1.0077586 -0.6852179 1.7121305
v 0.0053390 -0.0196230 0.0592790
vn 2.5722013 1.1368349 5.5494671
v 0.0099700 -0.0332140 0.0594940
vn 0.8096403 1.3459277 5.9938869
v 0.0052280 -0.0326000 0.0608650
vn 0.7934951 0.9901449 6.0750012
v 0.0042870 -0.0284840 0.0601010
vn 2.5461311 1.6366761 5.4561386
v 0.0086350 -0.0286490 0.0587840
vn 3.2795012 2.0574675 4.9385452
v 0.0131700 -0.0294530 0.0563170
vn 3.3779953 0.9275407 5.1918702
v 0.0149170 -0.0348790 0.0568780
vn 1.8286463 -1.0951527 5.8203549
v 0.0026850 -0.0217810 0.0602110
vn 2.6132622 0.2832538 5.6337585
v 0.0103230 -0.0355300 0.0596440
vn 1.4090462 -0.1836758 2.9621339
v 0.0107150 -0.0380690 0.0593310
vn 3.3566041 0.0085939 5.2156096
v 0.0153830 -0.0372470 0.0568930
vn 1.7578280 -0.4231472 2.7209666
v 0.0156330 -0.0394920 0.0564380
vn 3.6656015 0.0692078 5.0980139
v 0.0196010 -0.0372360 0.0537000
vn 3.3821094 1.8710300 4.9389348
v 0.0184750 -0.0313000 0.0534180
vn 3.0307209 1.0005487 5.3930459
v 0.0242290 -0.0332870 0.0502420
vn 3.4110851 -1.0786635 5.1562724
v 0.0235140 -0.0396420 0.0506850
vn 2.5019519 -1.4327364 5.5693569
v 0.0314180 -0.0426180 0.0457900
vn 1.2635151 -1.5523795 5.9443331
v 0.0268300 -0.0448010 0.0465820
vn 1.6114367 -2.8035274 5.3450937
v 0.0267580 -0.0436180 0.0470230
vn 2.4714093 -2.8201160 5.0197053
v 0.0264570 -0.0425350 0.0478350
vn 2.8226376 -0.9118232 5.5206428
v 0.0307290 -0.0396340 0.0468010
vn 3.1054254 -0.8458618 5.3742361
v 0.0348300 -0.0419140 0.0442230
vn 3.1163943 -0.4374920 5.4244270
v 0.0339250 -0.0375480 0.0452910
vn 2.9048808 -0.0691507 5.5495749
v 0.0286170 -0.0364960 0.0482060
vn 3.0265350 -1.9287987 5.1505265
v 0.0255940 -0.0412510 0.0488900
vn 1.6867536 -3.9864573 4.4964514
v 0.0254590 -0.0438760 0.0473500
vn 0.2798104 -5.0977826 3.3767812
v 0.0244850 -0.0441190 0.0471990
vn 2.4943144 -3.9639702 4.1470900
v 0.0251100 -0.0433410 0.0480500
vn 1.6951386 -5.3502526 2.7191803
v 0.0242190 -0.0439240 0.0478010
vn 2.8937030 -3.0493569 4.5817032
v 0.0245080 -0.0427220 0.0489570
vn 2.2494962 -4.5937729 3.4978456
v 0.0236620 -0.0437070 0.0485720
vn 2.5617459 -3.7804213 4.2413769
v 0.0225100 -0.0431400 0.0498310
vn 3.2377541 -2.2129555 4.8422194
v 0.0230800 -0.0416740 0.0504350
vn 1.1200410 -6.1635051 -0.4036762
v 0.0225860 -0.0445310 0.0460460
vn 0.0042429 -6.0835910 -0.6792256
v 0.0214420 -0.0447980 0.0469260
vn 1.2888455 -5.8358412 1.2860591
v 0.0214080 -0.0447660 0.0480810
vn 1.5166862 -6.0118299 0.2087918
v 0.0224760 -0.0446310 0.0469770
vn 2.0004454 -5.9351711 0.0128428
v 0.0233140 -0.0443600 0.0452980
vn 1.9121406 -5.9665976 0.0137258
v 0.0230960 -0.0444290 0.0464150
vn -1.8364289 -2.7740958 -0.1887506
v 0.0235900 -0.0443910 0.0416540
vn -1.0572840 -2.8484318 -0.4357763
v 0.0228300 -0.0441230 0.0422560
vn 1.9594955 0.5944422 -0.3268672
v 0.0236840 -0.0441630 0.0448500
vn 2.0886641 -0.0933050 -0.0634298
v 0.0237250 -0.0442310 0.0457820
vn 3.2825725 -0.5062319 1.7749741
v 0.0236060 -0.0441900 0.0469090
vn 1.7847625 -5.9646931 0.4918703
v 0.0234880 -0.0442630 0.0472230
vn 1.9165959 -5.6367631 1.8191700
v 0.0229300 -0.0443290 0.0478760
vn 2.0644035 -4.9867053 3.1128464
v 0.0218840 -0.0441990 0.0489580
vn 2.1574845 -1.4445182 3.1517756
v 0.0193010 -0.0412910 0.0532230
vn 1.3227785 -1.8495581 2.0882249
v 0.0190730 -0.0430400 0.0520570
vn 0.9671937 -2.1451182 1.4600197
v 0.0188020 -0.0444180 0.0507480
vn -0.5470809 -2.2724788 -0.5469375
v 0.0199070 -0.0438530 0.0445350
vn 0.3304080 -2.7250440 0.4847651
v 0.0188450 -0.0449510 0.0492220
vn 3.6340346 -0.9097360 4.9747005
v 0.0195600 -0.0394390 0.0536890
vn -2.1552196 1.8201807 5.6111631
v -0.0342010 0.0053930 0.0368510
vn -2.1392829 1.9707335 5.5677514
v -0.0335180 0.0025780 0.0380320
vn -1.7913181 2.1764650 5.6115446
v -0.0293680 0.0038800 0.0390260
vn -1.6804655 1.9713492 5.7171526
v -0.0301840 0.0063180 0.0379380
vn 3.3246789 4.3065524 2.6334000
v 0.0228130 -0.0439360 0.0474970
vn 2.0277371 -0.1588644 5.8388419
v 0.0258490 -0.0459080 0.0465850
vn -1.6587501 1.3297654 -0.9158527
v 0.0230150 -0.0466150 0.0413290
vn 2.9296727 -0.7178659 5.5035615
v 0.0313580 -0.0550890 0.0435010
vn 3.4700222 -0.3524357 5.2219234
v 0.0263280 -0.0584240 0.0462160
vn 3.5211411 -0.1138128 5.2000999
v 0.0243930 -0.0543750 0.0476490
vn 2.8173308 -0.3987201 5.5795627
v 0.0283760 -0.0517740 0.0452520
vn 3.9341118 0.1915529 4.8894835
v 0.0215130 -0.0485020 0.0498140
vn 3.5375891 0.7441125 5.1257071
v 0.0242370 -0.0470000 0.0476820
vn 3.7933588 1.3944113 4.7657938
v 0.0229250 -0.0457070 0.0484140
vn 4.2451425 0.5430466 4.5944519
v 0.0203110 -0.0463230 0.0506900
vn 2.0785258 0.3834299 2.1038868
v 0.0195090 -0.0445860 0.0512230
vn 4.0856061 1.9391769 4.3430753
v 0.0220050 -0.0445510 0.0487200
vn -0.4880714 0.7583498 -0.6790850
v 0.0175040 -0.0464930 0.0459890
vn -1.7357552 2.1435275 -1.7876854
v 0.0217810 -0.0465790 0.0428190
vn -0.0030635 3.3734837 -1.2757249
v 0.0210690 -0.0431840 0.0471220
vn 1.0716645 1.7557249 0.3177291
v 0.0211370 -0.0430610 0.0483410
vn 2.8287487 2.2011528 2.2370958
v 0.0215460 -0.0435700 0.0487010
vn 2.3165448 -0.2308018 2.6493168
v 0.0162330 -0.0470560 0.0547840
vn 3.9443810 -0.6000806 4.8029933
v 0.0170060 -0.0499460 0.0538940
vn 3.4091773 -0.3388884 5.2546110
v 0.0191650 -0.0572800 0.0512960
vn 3.5163639 0.0215738 5.2019930
v 0.0206240 -0.0622570 0.0501140
vn 2.6542673 -0.4754477 5.6193647
v 0.0129190 -0.0587250 0.0544060
vn 2.9448597 0.7425374 5.4800344
v 0.0140910 -0.0639000 0.0541460
vn 2.9512126 -1.7146012 5.1428328
v 0.0119370 -0.0509860 0.0574860
vn 1.4761308 -0.7732118 2.5374703
v 0.0114980 -0.0474890 0.0587730
vn 1.4192158 -0.0852826 6.0366607
v 0.0033060 -0.0234290 0.0598680
vn 1.7603788 1.1220492 5.8997521
v 0.0074220 -0.0640990 0.0572030
vn 1.4806266 -0.2175974 6.0348535
v 0.0066000 -0.0591070 0.0567270
vn 0.7091430 -0.9705154 2.7556806
v 0.0065080 -0.0477920 0.0607700
vn 1.3025656 -2.3741806 5.5423484
v 0.0063810 -0.0516470 0.0594450
vn -1.5237449 0.2323598 0.8821213
v -0.0618880 0.0215660 0.0092150
vn 6.0356512 -0.0913672 1.5900395
v 0.0684660 0.0009290 0.0003650
vn 2.9880958 0.2874332 0.9174211
v 0.0683940 0.0135170 -0.0024910
vn 1.9925113 -0.0323558 0.4357013
v 0.0714360 0.0057250 -0.0128610
vn 3.0129812 -0.3531123 0.6369448
v 0.0697910 -0.0090600 -0.0108890
vn -3.9792492 2.1832941 4.3042202
v -0.0528330 0.0028860 0.0273200
vn -4.3980050 0.9368931 4.2455564
v -0.0549710 -0.0029770 0.0277550
vn -3.8968501 1.1325731 4.6832561
v -0.0511920 -0.0034000 0.0313400
vn -3.4732306 2.2335367 4.6976390
v -0.0495150 0.0025170 0.0302550
vn 2.5040159 0.8877214 2.8605809
v 0.0539560 0.0150660 0.0211730
vn 4.3839841 2.7200742 3.5648491
v 0.0152790 0.0071350 0.0449420
vn 4.5994687 2.4533939 3.4810319
v 0.0149210 0.0050940 0.0468690
vn 3.4552290 1.4908303 2.7941089
v 0.0145760 0.0026170 0.0488540
vn 3.6653979 2.4623241 4.4309278
v 0.0183420 0.0023750 0.0449170
vn 3.7864945 1.6981175 4.6619649
v 0.0177410 -0.0005200 0.0467620
vn 1.3015928 0.5799131 0.8051453
v 0.0117890 0.0056010 0.0515670
vn 2.2414837 0.6925412 1.8411925
v 0.0139200 0.0001800 0.0507400
vn 1.4234970 0.2625547 1.0465355
v 0.0135310 -0.0028190 0.0525130
vn 4.7187948 -0.5668065 3.6042304
v 0.0175650 -0.0150420 0.0487990
vn 3.1970489 0.3936994 4.8928556
v 0.0185360 -0.0103380 0.0474390
vn 2.9568977 0.5150428 2.9665120
v 0.0159260 -0.0063610 0.0492680
vn 2.5214486 1.7874278 5.4448895
v 0.0215170 -0.0033090 0.0454980
vn 2.3529890 0.7887118 5.7290850
v 0.0202440 -0.0065140 0.0467300
vn 4.0083113 0.8753445 4.6395645
v 0.0168140 -0.0031440 0.0481290
vn 2.4302912 2.4722733 5.2095275
v 0.0226400 -0.0001550 0.0435330
vn 3.2629294 2.7896593 4.5576115
v 0.0189580 0.0045680 0.0431650
vn 2.0385556 2.5626521 5.3536153
v 0.0237200 0.0023410 0.0419500
vn 1.2384026 0.9188008 6.0562696
v 0.0239590 -0.0097550 0.0463680
vn 1.2054924 0.9731475 6.0116253
v 0.0285480 -0.0128300 0.0461440
vn 1.7947116 1.9270154 5.6930628
v 0.0261240 -0.0056520 0.0446980
vn 1.7963103 1.9051534 5.6894817
v 0.0304170 -0.0081420 0.0443110
vn 1.8547817 2.3995278 5.5017786
v 0.0272320 -0.0023010 0.0429090
vn 1.9184817 2.2594807 5.5381055
v 0.0317020 -0.0045420 0.0424070
vn 1.6683021 0.6632692 5.9397731
v 0.0326470 -0.0167350 0.0457370
vn 2.3871274 0.2565998 5.7336974
v 0.0362950 -0.0206470 0.0447810
vn 3.1352665 -0.2854960 5.3682022
v 0.0395490 -0.0261840 0.0431440
vn 2.8913093 0.8537241 5.4602394
v 0.0392120 -0.0156180 0.0428120
vn 3.6796846 0.0628174 5.0265856
v 0.0430050 -0.0209860 0.0409400
vn 2.9014347 1.3185364 5.3836288
v 0.0410890 -0.0104590 0.0406540
vn 3.8326645 0.3882692 4.9013882
v 0.0456010 -0.0156670 0.0386830
vn -4.8491926 3.0026844 2.5532808
v -0.0117290 0.0128520 0.0442310
vn -3.1798322 2.2535958 1.9931715
v -0.0120680 0.0147000 0.0414460
vn -3.5717955 3.3193288 3.8669677
v -0.0158120 0.0111920 0.0402890
vn -4.1468554 3.0923755 3.5160060
v -0.0154330 0.0092480 0.0424730
vn 2.2210197 1.5393624 5.6400971
v 0.0350910 -0.0113630 0.0437020
vn 2.2496026 1.9476943 5.5277233
v 0.0366890 -0.0073620 0.0416550
vn 1.8316507 2.1961789 5.5933504
v 0.0328750 -0.0010400 0.0405450
vn 1.6739507 2.3576689 5.5773201
v 0.0284560 0.0007720 0.0411990
vn 2.3857400 2.0481198 5.4254198
v 0.0420560 0.0001100 0.0368670
vn 2.6186824 1.6517684 5.4467745
v 0.0419740 -0.0052380 0.0387080
vn 2.0762479 2.0509198 5.5627904
v 0.0374940 -0.0029910 0.0397080
vn 2.0766244 1.9506810 5.5982895
v 0.0379710 0.0013530 0.0379590
vn 3.6211908 0.8094192 5.0072651
v 0.0471730 -0.0088750 0.0366460
vn 3.0506356 1.7455920 5.1452718
v 0.0467780 -0.0014970 0.0351830
vn 2.9248364 2.3269432 5.0379391
v 0.0457970 0.0032850 0.0336310
vn 1.3291988 1.2452161 6.0068574
v 0.0318370 0.0096570 0.0375390
vn 0.6693562 1.4923229 6.0601454
v 0.0267960 0.0103320 0.0382000
vn 2.0143161 1.2446593 5.8128295
v 0.0354580 0.0094190 0.0365670
vn 2.6121900 2.0622742 5.3241262
v 0.0417630 0.0039400 0.0354420
vn 2.2940969 1.7743316 5.5706286
v 0.0383230 0.0046210 0.0367630
vn 3.7625463 2.4187698 4.4101701
v 0.0495650 0.0105000 0.0271000
vn 3.6425629 2.3788853 4.5320687
v 0.0473560 0.0096920 0.0294200
vn 3.1041918 1.7762272 5.1526613
v 0.0416910 0.0091590 0.0337030
vn 2.6290362 1.4453646 5.5074463
v 0.0388110 0.0092100 0.0352520
vn 3.4086313 2.1198752 4.8257966
v 0.0446710 0.0093330 0.0316670
vn 0.5783796 2.0423536 5.9055576
v 0.0221920 0.0119080 0.0380880
vn 0.6214815 1.2998790 2.5493612
v 0.0174450 0.0139490 0.0379950
vn -1.9740601 2.9153006 5.1688781
v -0.0204600 0.0087360 0.0392780
vn -2.6856382 2.9743609 4.7943387
v -0.0196230 0.0067670 0.0408440
vn 1.7447171 0.2734082 0.7091703
v 0.0652170 0.0187440 0.0042190
vn -3.5405192 0.9182037 2.8763452
v -0.0595110 0.0152670 0.0136570
vn -5.2378888 1.1943346 3.2306380
v -0.0622720 0.0124270 0.0109590
vn -5.1724334 1.4025277 3.1637645
v -0.0614870 0.0044400 0.0161100
vn -4.5552759 1.9969270 3.8326561
v -0.0584270 0.0082190 0.0180080
vn -4.3223228 2.2284777 3.9491670
v -0.0553060 0.0039950 0.0241950
vn -4.8078046 1.0591085 3.7106628
v -0.0578620 -0.0016270 0.0241220
vn -2.4144886 1.2340071 0.9430655
v -0.0090330 0.0162330 0.0466130
vn -1.4597709 0.7634790 0.6252031
v -0.0096930 0.0176800 0.0430890
vn -1.6859481 2.5186648 5.5007524
v -0.0245750 0.0050660 0.0399240
vn -1.3348894 2.3240185 5.6800365
v -0.0253740 0.0072470 0.0387830
vn -2.1434460 0.6633054 2.4146554
v -0.0498860 0.0156520 0.0232180
vn -2.0106239 1.1149340 2.5351224
v -0.0488060 0.0141430 0.0245380
vn -4.5125618 2.1899548 3.7735033
v -0.0572730 0.0056050 0.0209090
vn -3.9934564 2.2555442 4.2894645
v -0.0511870 0.0113010 0.0238880
vn -4.2089305 2.0225124 4.1893210
v -0.0525210 0.0127590 0.0217550
vn -5.3409071 -0.1943679 3.1714203
v -0.0599520 -0.0099010 0.0217520
vn -5.0984468 1.2479147 3.2955675
v -0.0599740 0.0006240 0.0202390
vn -5.6362805 -0.0609031 2.6438549
v -0.0623370 -0.0072380 0.0172690
vn -0.5939640 -0.1108003 1.8496786
v -0.0325580 0.0127180 0.0357410
vn -1.1788541 -0.2809789 2.9280307
v -0.0357350 0.0126770 0.0347890
vn -1.2384021 0.6715196 4.1883383
v -0.0321170 0.0116180 0.0358330
vn -2.2729044 0.3420442 5.7872519
v -0.0355850 0.0114830 0.0346950
vn -0.4777001 0.9074788 3.2878199
v -0.0271400 0.0121420 0.0367780
vn -1.9770586 1.1767340 2.3452435
v -0.0472910 0.0130940 0.0264000
vn -1.9026735 1.1533232 2.4228251
v -0.0455710 0.0123560 0.0281530
vn -0.9971561 0.1854542 1.3942157
v -0.0429910 0.0133010 0.0300880
vn -2.5490654 1.2841678 3.6011026
v -0.0434430 0.0118930 0.0300060
vn -3.3365839 1.1537797 5.1399217
v -0.0409970 0.0116330 0.0317360
vn -1.7997313 0.0731902 2.6757660
v -0.0408200 0.0129510 0.0318190
vn -1.5942942 0.2797494 2.6683414
v -0.0384820 0.0128540 0.0331630
vn -3.0047488 1.0840400 5.3918266
v -0.0386790 0.0114060 0.0332180
vn -1.7694162 0.1013412 1.9238791
v -0.0507660 0.0172170 0.0223910
vn -0.2384591 1.0928426 3.0283329
v -0.0228860 0.0137580 0.0365810
vn -0.2910441 0.7826928 1.5647433
v -0.0187540 0.0156600 0.0360640
vn -5.7672820 0.2547059 2.3489161
v -0.0645240 -0.0022950 0.0119720
vn -5.7369370 0.7772833 2.3660157
v -0.0658660 0.0071080 0.0061740
vn -4.9302816 -0.2507527 3.7660549
v -0.0568770 -0.0123750 0.0261650
vn -4.5856781 -0.0737145 4.2203765
v -0.0525840 -0.0149940 0.0310140
vn -1.5031979 -1.9840647 5.5588460
v -0.0254360 -0.0444270 0.0463340
vn -2.9809704 1.0755367 5.2796946
v -0.0245930 -0.0450720 0.0465920
vn -3.5235994 2.9956214 4.1705313
v -0.0236810 -0.0444050 0.0469860
vn -0.8651068 -1.1694479 5.2458329
v -0.0244650 -0.0442480 0.0465030
vn -0.6230733 5.0375342 -1.7992656
v -0.0224070 -0.0432880 0.0455400
vn -0.7597490 5.7070031 -1.7527006
v -0.0232280 -0.0438330 0.0446310
vn -2.9625053 5.5371437 -0.0184983
v -0.0233930 -0.0438390 0.0458310
vn -3.0343251 5.4228196 0.7377466
v -0.0226000 -0.0434390 0.0466670
vn -2.4567006 0.8982155 5.6977310
v -0.0288790 -0.0297920 0.0467850
vn -2.0734668 0.3380334 5.9063349
v -0.0325560 -0.0257230 0.0450090
vn -2.8234994 -0.0507651 5.5998139
v -0.0354610 -0.0300370 0.0438760
vn -2.8736601 0.2550954 5.5703368
v -0.0321180 -0.0334050 0.0456490
vn 2.2279506 -0.3823680 -0.1921578
v -0.0240510 -0.0444440 0.0407090
vn 2.3676655 0.8242334 -0.4062594
v -0.0240160 -0.0451180 0.0404500
vn 2.2614803 1.4439979 -0.7377310
v -0.0238580 -0.0454080 0.0404930
vn -2.7883048 -0.8770121 5.5566015
v -0.0343400 -0.0506410 0.0419240
vn -2.4914351 -0.7901374 5.6834731
v -0.0307840 -0.0484940 0.0437070
vn -2.3273308 -1.4662238 5.6451521
v -0.0317750 -0.0454830 0.0440650
vn -2.8869529 -1.1061101 5.4428606
v -0.0353860 -0.0461830 0.0423390
vn -1.0345963 0.4430354 6.1734586
v -0.0253630 -0.0179080 0.0458130
vn -1.2821642 0.5293058 6.1215105
v -0.0291730 -0.0215650 0.0455520
vn -1.8792224 1.4106573 5.7951374
v -0.0262790 -0.0260290 0.0468230
vn -1.8561378 1.2111230 5.7361183
v -0.0221980 -0.0215750 0.0467160
vn -3.2696993 -0.1058926 4.7855802
v -0.0185960 -0.0169930 0.0473460
vn -1.9518223 0.3405333 5.7971325
v -0.0214140 -0.0137400 0.0461000
vn -2.6114655 0.6562597 0.9055938
v -0.0169370 -0.0089100 0.0509120
vn -2.2001595 0.2486390 0.2446340
v -0.0175280 -0.0126430 0.0521750
vn -3.8712933 -1.3345181 1.1771913
v -0.0175660 -0.0149100 0.0506370
vn -2.0219219 -1.9130875 1.2135036
v -0.0152400 -0.0182560 0.0525490
vn -4.2743554 -1.0633219 3.9908864
v -0.0155080 -0.0192480 0.0505780
vn -2.1200771 0.0372417 2.6075511
v -0.0115030 -0.0198490 0.0534890
vn -2.4620047 1.1785777 0.9908630
v -0.0089890 0.0140980 0.0496680
vn -5.0408139 2.6895161 2.5806167
v -0.0118530 0.0105550 0.0467660
vn -1.4241245 0.6276821 0.6269724
v -0.0091560 0.0114840 0.0519620
vn -3.7668767 1.8487890 1.9915595
v -0.0118630 0.0082650 0.0489370
vn -2.7279716 -3.5480406 4.3479428
v -0.0019890 -0.0203990 0.0609290
vn -2.5033016 -2.4334111 5.1861863
v -0.0023240 -0.0209900 0.0604120
vn -1.2731895 -2.2639353 2.0619097
v -0.0017230 -0.0190320 0.0625880
vn -0.7227857 0.0713325 3.2085667
v -0.0053340 -0.0374700 0.0611250
vn -1.0729550 0.9270141 5.9155111
v -0.0051540 -0.0347650 0.0611130
vn -3.1431789 1.8274741 5.0088038
v -0.0181150 -0.0234430 0.0493040
vn -3.5450876 1.5185008 4.7975397
v -0.0140340 -0.0228930 0.0519110
vn -3.7481475 1.4894856 4.7964172
v -0.0098680 -0.0228820 0.0554680
vn -3.1426888 0.8273787 5.3239608
v -0.0065860 -0.0231180 0.0580800
vn -3.4930921 -0.1143900 5.1845393
v -0.0058480 -0.0210900 0.0583520
vn -2.5300455 0.3981192 3.0699811
v -0.0083510 -0.0204880 0.0561500
vn -2.4048789 -0.9306247 3.6216629
v -0.0054780 -0.0202720 0.0587070
vn -1.5025342 -0.2199041 1.6589746
v -0.0078220 -0.0197860 0.0567370
vn -1.0680833 -0.8676687 1.6143826
v -0.0054090 -0.0195970 0.0591090
vn -2.5477846 1.1671996 5.5685606
v -0.0098900 -0.0332120 0.0591100
vn -1.0635440 1.4123406 5.9797297
v -0.0051950 -0.0326320 0.0604850
vn -1.0836190 1.0788268 6.0465121
v -0.0042570 -0.0284950 0.0597400
vn -2.5157325 1.6514571 5.4774861
v -0.0086570 -0.0286350 0.0583630
vn -3.2227585 2.0170221 4.9872885
v -0.0132870 -0.0293880 0.0559450
vn -3.3486130 0.8849682 5.2210145
v -0.0148880 -0.0347950 0.0565170
vn -2.2322757 -1.4348011 5.6359048
v -0.0027010 -0.0217520 0.0599950
vn -2.6081247 0.3127976 5.6321630
v -0.0101680 -0.0354820 0.0593250
vn -1.4033313 -0.2025578 2.9714265
v -0.0104730 -0.0379830 0.0590390
vn -3.3135767 -0.0139907 5.2410784
v -0.0152950 -0.0371710 0.0565710
vn -1.7233057 -0.4455442 2.7399158
v -0.0155100 -0.0394070 0.0561250
vn -3.6890116 0.1087693 5.0802512
v -0.0195890 -0.0371170 0.0533580
vn -3.4204383 1.8330809 4.9205523
v -0.0186140 -0.0312090 0.0530260
vn -3.1446106 1.0435511 5.3183336
v -0.0242850 -0.0331630 0.0497670
vn -3.5384810 -1.0331585 5.0802088
v -0.0234950 -0.0395440 0.0502730
vn -2.5476985 -1.5886439 5.5058336
v -0.0314880 -0.0425460 0.0450510
vn -1.6584311 -1.6963943 5.7955484
v -0.0269080 -0.0447020 0.0458920
vn -1.8912832 -2.9165626 5.1940570
v -0.0267570 -0.0434940 0.0464330
vn -2.7039287 -2.7796168 4.9226961
v -0.0264350 -0.0424090 0.0472880
vn -2.8738124 -0.9977599 5.4784274
v -0.0307960 -0.0395570 0.0461360
vn -3.1447103 -0.9826522 5.3206754
v -0.0349370 -0.0418600 0.0434570
vn -3.2080173 -0.3742259 5.3646317
v -0.0340690 -0.0374850 0.0445700
vn -3.0142391 -0.0503787 5.4862432
v -0.0287250 -0.0364140 0.0475900
vn -3.2187524 -1.8931348 5.0453176
v -0.0255670 -0.0411400 0.0483870
vn -1.9473958 -3.9407628 4.4147525
v -0.0255190 -0.0437620 0.0468440
vn -0.3722236 -5.0985374 3.3862789
v -0.0245630 -0.0439820 0.0467550
vn -2.6833749 -3.8817339 4.0860224
v -0.0251510 -0.0432240 0.0475770
vn -1.7078760 -5.3605518 2.6826611
v -0.0242600 -0.0437890 0.0473670
vn -3.0682642 -2.9756527 4.4951167
v -0.0245390 -0.0426210 0.0485050
vn -2.2960978 -4.6273665 3.4142809
v -0.0236810 -0.0435810 0.0481600
vn -2.6084168 -3.8130717 4.1691051
v -0.0225180 -0.0430380 0.0494590
vn -3.3542113 -2.1593199 4.7712116
v -0.0231010 -0.0415930 0.0500390
vn -0.9353825 -6.1878433 -0.4343382
v -0.0226090 -0.0443570 0.0457350
vn 0.1481251 -6.1066365 -0.7445762
v -0.0214660 -0.0445820 0.0465900
vn -0.6581619 -4.3759732 0.5023644
v -0.0213830 -0.0445940 0.0477290
vn -1.3549497 -6.0531278 0.1398276
v -0.0224660 -0.0444560 0.0466090
vn -2.1945584 -5.8185673 -0.0019022
v -0.0233590 -0.0441990 0.0449590
vn -1.8506843 -5.9868269 -0.0205039
v -0.0231100 -0.0442600 0.0460320
vn 1.4587612 -3.0210226 -0.1553569
v -0.0235800 -0.0442130 0.0413080
vn 1.1306578 -2.8176701 -0.4466443
v -0.0228100 -0.0439090 0.0419070
vn -2.2189822 0.8520290 -0.2769552
v -0.0237360 -0.0439330 0.0444860
vn -2.3859880 -0.0789987 -0.0349145
v -0.0237630 -0.0440300 0.0453860
vn -3.4011276 -0.6478792 1.5315851
v -0.0236900 -0.0440160 0.0465260
vn -1.6896644 -5.9948511 0.4302848
v -0.0235260 -0.0441050 0.0468280
vn -1.8588623 -5.6866684 1.7303585
v -0.0229370 -0.0441740 0.0474920
vn -1.4209251 -3.3859034 2.1381781
v -0.0218750 -0.0440640 0.0485980
vn -2.1643243 -1.4671440 3.1525340
v -0.0192860 -0.0412100 0.0529040
vn -0.9359046 -1.2246642 1.4803919
v -0.0190400 -0.0429350 0.0517430
vn 0.5401734 -2.2445254 -0.5262171
v -0.0198260 -0.0436080 0.0441190
vn 0.1167280 -0.9323794 -0.1724167
v -0.0188050 -0.0446690 0.0488620
vn -3.6372597 -0.8857650 4.9590282
v -0.0195700 -0.0393640 0.0533610
vn -3.4985821 4.2455916 2.4965918
v -0.0230040 -0.0437860 0.0471560
vn -2.5752444 -0.1134949 5.5987167
v -0.0259580 -0.0458330 0.0459670
vn 1.5975480 1.4050483 -0.9261716
v -0.0231490 -0.0461680 0.0409620
vn -3.1578288 -0.5296611 5.3938375
v -0.0314800 -0.0550670 0.0427490
vn -3.6397052 -0.2662351 5.1123405
v -0.0266500 -0.0584250 0.0458560
vn -3.7354529 -0.0723075 5.0498328
v -0.0247050 -0.0543450 0.0473280
vn -3.1420736 -0.2012733 5.4135685
v -0.0285880 -0.0517530 0.0445650
vn -4.1374731 0.2825674 4.7150912
v -0.0219210 -0.0484910 0.0495940
vn -3.9665797 0.7885638 4.7990918
v -0.0244560 -0.0469520 0.0472410
vn -4.0922041 1.4135904 4.4947691
v -0.0232180 -0.0456530 0.0480860
vn -4.3097878 0.7217602 4.5028658
v -0.0207080 -0.0462890 0.0504970
vn -2.0947244 0.5182233 2.0960693
v -0.0198380 -0.0445210 0.0509830
vn -4.2121382 2.0589709 4.1607366
v -0.0222850 -0.0444620 0.0484290
vn 0.4838064 0.7521636 -0.6458962
v -0.0176610 -0.0460530 0.0456330
vn 1.7033889 2.2664032 -1.8062612
v -0.0219880 -0.0460340 0.0424140
vn -0.4036741 3.1842594 -0.8478830
v -0.0213020 -0.0427570 0.0467440
vn -1.2459608 1.7215822 0.4654393
v -0.0213400 -0.0428910 0.0480130
vn -2.8575497 2.2548358 2.1449540
v -0.0217950 -0.0434480 0.0483930
vn -2.2881298 -0.1388968 2.6805079
v -0.0165730 -0.0469950 0.0546410
vn -3.8981357 -0.5325875 4.8240967
v -0.0174010 -0.0499030 0.0538250
vn -3.4439914 -0.4971207 5.2158184
v -0.0194730 -0.0572500 0.0510260
vn -3.5118434 0.0311727 5.2025251
v -0.0209150 -0.0622650 0.0497910
vn -2.5945108 -0.6184910 5.6284466
v -0.0132000 -0.0586930 0.0541030
vn -2.8867867 0.7474992 5.5048470
v -0.0143310 -0.0639340 0.0537930
vn -2.8315175 -1.7020029 5.1885147
v -0.0122910 -0.0509440 0.0573180
vn -1.4290787 -0.7099556 2.5683057
v -0.0118850 -0.0473970 0.0584990
vn -1.8463922 -0.2079540 5.9527674
v -0.0032970 -0.0233990 0.0595190
vn -1.8810016 1.1181693 5.8735070
v -0.0076220 -0.0641400 0.0567600
vn -1.6007007 -0.2849112 5.9947839
v -0.0068420 -0.0590650 0.0563460
vn -0.7506919 -0.9099606 2.8167353
v -0.0066630 -0.0477410 0.0603930
vn -1.3955647 -2.3520806 5.5525370
v -0.0067350 -0.0515540 0.0591420
vn -2.5598922 0.1102018 0.8404225
v -0.0686020 0.0003010 -0.0005410
vn -1.8662342 0.2286403 0.6547531
v -0.0684750 0.0129230 -0.0032930
vn -1.5773718 0.1122253 1.5287421
v -0.0548150 0.0195680 0.0182740
vn -4.1941805 1.1684651 4.4686131
v -0.0533160 0.0146870 0.0201790
vn -4.4260941 2.7445407 3.4934483
v -0.0152250 0.0072130 0.0444900
vn -4.6632824 2.4937928 3.3707721
v -0.0149020 0.0051770 0.0464680
vn -4.8120356 1.9459909 3.5206227
v -0.0146380 0.0026850 0.0484360
vn -3.7594848 2.4317253 4.3666220
v -0.0183200 0.0024430 0.0443860
vn -3.9553561 1.7460173 4.4950647
v -0.0178020 -0.0004690 0.0461870
vn -1.7544665 0.7448215 1.0707009
v -0.0118190 0.0056770 0.0512700
vn -3.1144059 1.0479620 2.2282505
v -0.0141200 0.0002700 0.0504000
vn -1.4565628 0.3640947 0.9538701
v -0.0139310 -0.0027010 0.0522500
vn -5.0511656 -0.9048314 3.3423252
v -0.0181950 -0.0149510 0.0485220
vn -3.6417069 0.5171767 4.6147189
v -0.0190700 -0.0102520 0.0469520
vn -3.2384996 0.7864358 2.7141395
v -0.0164660 -0.0062320 0.0489450
vn -2.6659207 1.7313758 5.3873415
v -0.0215180 -0.0032550 0.0447610
vn -2.7295480 0.9435475 5.5147395
v -0.0204370 -0.0064570 0.0459960
vn -4.2789536 1.1462548 4.3343425
v -0.0170590 -0.0030690 0.0476140
vn -2.4324913 2.3241768 5.2647271
v -0.0225660 -0.0000660 0.0429050
vn -3.2734509 2.7461164 4.5709362
v -0.0189100 0.0046490 0.0426420
vn -2.0057383 2.4383004 5.4266295
v -0.0236980 0.0024720 0.0414240
vn -1.4614089 0.9184793 6.0162101
v -0.0241090 -0.0097310 0.0455060
vn -1.3036498 0.8963049 5.9994950
v -0.0287180 -0.0128850 0.0452240
vn -1.8662362 1.8014932 5.7161818
v -0.0261210 -0.0055940 0.0438800
vn -1.8764958 1.8376735 5.6852679
v -0.0303900 -0.0081240 0.0434450
vn -1.9435349 2.2034473 5.5522861
v -0.0271700 -0.0021800 0.0422530
vn -2.0912745 2.1894085 5.5010257
v -0.0316060 -0.0044920 0.0416000
vn -1.7370133 0.5710289 5.9277296
v -0.0327560 -0.0168160 0.0447110
vn -2.4207914 0.2171863 5.7272115
v -0.0363490 -0.0207530 0.0436800
vn -3.1327577 -0.2424047 5.3861241
v -0.0395230 -0.0261840 0.0420550
vn -2.9322007 0.8411375 5.4419365
v -0.0391060 -0.0156670 0.0418050
vn -3.6647303 0.0980664 5.0394502
v -0.0429250 -0.0210600 0.0399170
vn -2.9763598 1.3623900 5.3298178
v -0.0408800 -0.0105440 0.0396850
vn -3.8485820 0.4602949 4.8883390
v -0.0454370 -0.0157470 0.0376570
vn -2.3052101 1.4986287 5.6175199
v -0.0349860 -0.0113950 0.0427660
vn -2.3837883 1.9806428 5.4577203
v -0.0365160 -0.0073800 0.0407270
vn -2.1679697 2.1862326 5.4765000
v -0.0326870 -0.0009880 0.0397160
vn -1.9121606 2.2724941 5.5281906
v -0.0283670 0.0009290 0.0406320
vn -2.3842149 2.1419113 5.3963990
v -0.0417010 -0.0000350 0.0356950
vn -2.6855748 1.7687529 5.3794899
v -0.0416310 -0.0053220 0.0376640
vn -2.2716656 2.1634417 5.4437947
v -0.0372110 -0.0030380 0.0386700
vn -2.2719827 2.0621846 5.4801564
v -0.0376520 0.0012520 0.0367760
vn -3.6286700 0.9003028 4.9939814
v -0.0468310 -0.0090140 0.0356240
vn -3.0215232 1.7850848 5.1589279
v -0.0463290 -0.0016310 0.0341030
vn -2.8475013 2.3260217 5.0786548
v -0.0454110 0.0031420 0.0325530
vn -1.6094885 1.5940315 5.8548288
v -0.0313920 0.0097050 0.0364890
vn -0.9839334 1.9791551 5.8738375
v -0.0265360 0.0103900 0.0373470
vn -2.1697991 1.3727987 5.7298398
v -0.0350400 0.0093560 0.0353860
vn -2.5403862 2.1088505 5.3428869
v -0.0413490 0.0038160 0.0342370
vn -2.4282970 1.8311987 5.4979010
v -0.0379290 0.0045180 0.0355330
vn -3.7746637 2.3827231 4.4201946
v -0.0492330 0.0102140 0.0261960
vn -3.5951896 2.3205056 4.5998926
v -0.0469370 0.0094680 0.0284630
vn -2.9834487 1.6917548 5.2535419
v -0.0412500 0.0090200 0.0325610
vn -2.6174972 1.4125605 5.5296326
v -0.0383550 0.0090980 0.0340260
vn -3.3357217 2.0491116 4.9050717
v -0.0442510 0.0091540 0.0306430
vn -0.8434349 2.4450150 5.7148180
v -0.0219220 0.0119830 0.0373140
vn -0.7476072 1.4626017 2.4258618
v -0.0172820 0.0140140 0.0373000
vn -2.7141790 0.4254153 1.2307675
v -0.0651900 0.0181610 0.0034270
vn -1.7539272 -0.2690894 0.4441185
v -0.0651500 -0.0431440 -0.0073970
vn -2.8386469 -0.5761319 0.8076501
v -0.0620980 -0.0516620 -0.0010050
vn -1.5151261 -0.7987564 0.3720517
v -0.0534150 -0.0694910 0.0024930
vn -3.7561352 -1.3140173 1.1900542
v -0.0577670 -0.0593580 0.0065290
vn -3.4847066 -2.3521409 1.3114879
v -0.0485080 -0.0740290 0.0127380
vn -5.3056049 -2.3413589 2.1581628
v -0.0530910 -0.0642590 0.0150450
vn -4.5438795 -2.7519367 3.2511022
v -0.0338160 -0.0766650 0.0352380
vn -4.1165485 -4.0399346 2.4087796
v -0.0320720 -0.0818950 0.0314110
vn -3.8370175 -4.2173166 2.4033940
v -0.0252640 -0.0843190 0.0394730
vn -4.3422437 -2.7377567 3.3843591
v -0.0259280 -0.0801780 0.0437450
vn -2.7583225 -4.6075940 2.8109329
v -0.0178940 -0.0863490 0.0464550
vn -3.2891183 -3.0511897 3.9567547
v -0.0185320 -0.0823410 0.0506430
vn -1.3487444 -4.9909058 3.2520905
v -0.0098420 -0.0870610 0.0504890
vn -1.6725743 -3.5265322 4.5698533
v -0.0099180 -0.0831990 0.0548950
vn -0.0048057 -5.0188293 3.5078988
v -0.0001270 -0.0869610 0.0524500
vn -0.0574599 -3.5813854 4.8958921
v -0.0001370 -0.0829160 0.0567290
vn -0.1124420 -0.2286469 6.1213479
v -0.0000820 -0.0733260 0.0597140
vn -1.8314589 -0.1252964 5.7524781
v -0.0089470 -0.0736790 0.0584320
vn -1.8437457 -1.7980088 5.4733305
v -0.0094720 -0.0785940 0.0574030
vn -0.1015737 -1.8990343 5.7816153
v -0.0001700 -0.0787610 0.0588230
vn -3.3405287 0.1079653 5.1852136
v -0.0164720 -0.0729960 0.0545090
vn -3.4558811 -1.3319310 4.8182006
v -0.0178810 -0.0780480 0.0531150
vn -4.0928645 0.0214676 4.7465625
v -0.0231540 -0.0708810 0.0488220
vn -4.3934584 -1.1081989 4.2567153
v -0.0250120 -0.0758370 0.0467500
vn -4.1395683 -0.6887841 4.6639104
v -0.0308390 -0.0670970 0.0418790
vn -4.5331950 -1.5114520 4.0457268
v -0.0328000 -0.0720980 0.0389380
vn -4.0310640 -1.3395972 4.6175270
v -0.0371150 -0.0625450 0.0375990
vn -4.4923258 -1.8408682 3.9701993
v -0.0404360 -0.0656480 0.0332050
vn -0.6180733 -2.9161582 1.3115942
v -0.0090260 -0.0902040 0.0438260
vn 0.0195600 -3.2764859 1.5325963
v -0.0001290 -0.0899620 0.0462300
vn -1.3448851 -2.7458203 1.1618919
v -0.0165930 -0.0896010 0.0401230
vn -1.8453178 -2.4783583 1.0501428
v -0.0236160 -0.0877460 0.0340040
vn -1.9608455 -2.2640772 1.0704195
v -0.0297560 -0.0860690 0.0268250
vn -4.4422951 -3.6181688 2.3022108
v -0.0419230 -0.0770660 0.0226700
vn -1.9572989 -2.0887210 0.8832687
v -0.0362110 -0.0842330 0.0184370
vn -1.3158672 -1.3135533 0.4791955
v -0.0434680 -0.0802400 0.0097270
vn -3.0847127 1.1311821 5.3100023
v -0.0151330 -0.0687320 0.0546300
vn -1.7927276 1.1742826 5.7934127
v -0.0082750 -0.0689500 0.0579740
vn -3.6656444 0.5848518 5.0623298
v -0.0212840 -0.0669140 0.0499270
vn -3.7807045 -0.3064964 4.9972863
v -0.0284920 -0.0628300 0.0441350
vn -3.5071251 -0.9185008 5.1214542
v -0.0344230 -0.0587010 0.0405340
vn -3.5558307 -0.8775380 5.0786633
v -0.0393070 -0.0470000 0.0397920
vn -3.4196258 -1.0772955 5.1182408
v -0.0380970 -0.0531150 0.0394980
vn -3.3965118 -0.3969249 5.2569108
v -0.0377830 -0.0352590 0.0423490
vn -3.6171958 -0.6683936 5.0870719
v -0.0387440 -0.0410350 0.0410030
vn -4.2518148 -0.4878435 4.5446467
v -0.0457960 -0.0287290 0.0371580
vn -4.6075139 -0.7881851 4.1674342
v -0.0474640 -0.0373780 0.0340150
vn -4.1126904 -0.7108468 4.6738234
v -0.0431950 -0.0399820 0.0377410
vn -3.7142198 -0.5808112 4.9964142
v -0.0419330 -0.0324780 0.0398980
vn -4.5652299 -0.3203309 4.2662444
v -0.0492200 -0.0227990 0.0341280
vn -4.9685421 -0.7519610 3.7466350
v -0.0514770 -0.0332320 0.0298820
vn -4.1386614 -1.3782864 4.4593081
v -0.0416460 -0.0558500 0.0360440
vn -4.7343502 -1.5096896 3.7952695
v -0.0458400 -0.0567460 0.0310870
vn -4.8336296 -0.9615353 3.8706505
v -0.0477480 -0.0469240 0.0316220
vn -5.1656342 -0.9672079 3.4222276
v -0.0521090 -0.0442550 0.0262920
vn -5.1248164 -1.5096359 3.2464521
v -0.0505560 -0.0561180 0.0247520
vn -4.3091869 -0.9053269 4.4308500
v -0.0434850 -0.0480680 0.0362240
vn -5.5076742 -1.3620909 2.5913727
v -0.0558250 -0.0526970 0.0170760
vn -5.4809227 -0.8916425 2.8968143
v -0.0565120 -0.0397780 0.0203530
vn -5.1909528 -0.6913669 3.4249749
v -0.0553200 -0.0272310 0.0257550
vn -5.7401915 -0.8040050 2.3950186
v -0.0597310 -0.0339860 0.0152120
vn -5.8070998 -1.1291169 2.0492992
v -0.0598560 -0.0471430 0.0097950
vn -5.4379396 -0.7721205 2.9845512
v -0.0587160 -0.0229710 0.0211510
vn -5.6950164 -0.7595409 2.4656851
v -0.0613480 -0.0187560 0.0169810
vn -5.9158301 -0.7529151 1.9631858
v -0.0620000 -0.0292320 0.0106600
vn -5.9671297 -0.8450103 1.7456267
v -0.0624990 -0.0404990 0.0046750
vn -4.8393250 -2.4055209 3.0625353
v -0.0456780 -0.0687480 0.0250270
vn -3.0689201 -0.3708936 0.8247826
v -0.0646800 -0.0343340 -0.0007670
vn -5.8883533 -0.7188126 2.0004673
v -0.0636160 -0.0148760 0.0122660
vn -4.4827242 -0.5846878 1.2650084
v -0.0639970 -0.0241910 0.0058850
vn -4.3035769 -0.3974563 1.3242868
v -0.0660440 -0.0094410 0.0062940
vn -1.3541489 -0.1948458 0.3430678
v -0.0667990 -0.0184100 -0.0023050
vn -0.1533011 0.7975113 6.0947356
v -0.0001170 -0.0685680 0.0593930
vn -2.9148223 2.0625103 5.1432376
v -0.0217460 -0.0288420 0.0497430
vn -3.3670683 2.4795008 4.6861229
v -0.0164640 -0.0269790 0.0525140
vn -3.3552663 2.1552196 4.8419452
v -0.0115370 -0.0262050 0.0557130
vn -2.7220583 1.3474703 5.4431610
v -0.0075300 -0.0258810 0.0581670
vn -1.3436356 0.5088850 6.0598965
v -0.0036480 -0.0259520 0.0595830
vn -0.1727892 1.0189121 6.0346999
v -0.0001270 -0.0637670 0.0586610
vn -0.1811729 0.2810011 6.2043686
v -0.0001330 -0.0593690 0.0576650
vn -0.0740725 -1.1487885 2.9545755
v -0.0000580 -0.0482170 0.0612880
vn -0.3217081 -0.9130853 6.1530442
v -0.0000930 -0.0237920 0.0599130
vn -0.1460351 -2.4882810 5.7344933
v -0.0000640 -0.0519350 0.0597350
vn -0.2841933 0.0344785 6.2754946
v 0.0000100 -0.0266210 0.0598490
vn -0.1960711 1.4718922 6.0725780
v -0.0000100 -0.0330680 0.0606170
vn -0.2419644 0.7836515 6.1782618
v -0.0000090 -0.0292210 0.0598740
vn -0.1545361 1.2319859 6.1048546
v 0.0000380 -0.0355380 0.0614620
vn -0.0545492 0.3772728 2.9031041
v 0.0001120 -0.0379820 0.0617810
vn -0.1827532 -3.8750451 4.5682917
v -0.0000630 -0.0212840 0.0611680
vn -0.0056204 -4.2730603 4.0329161
v -0.0000240 -0.0207280 0.0617260
vn -0.1709410 -2.9052331 5.4387789
v -0.0000190 -0.0219570 0.0606350
vn 0.0407350 -2.3373771 2.0581064
v 0.0000050 -0.0196920 0.0629020
vn 1.7747507 -0.2846546 0.4091504
v 0.0643140 -0.0426100 -0.0063660
vn 2.8460467 -0.5917669 0.7661939
v 0.0614360 -0.0511690 -0.0001080
vn 1.5172349 -0.8228033 0.3192555
v 0.0525660 -0.0688990 0.0031150
vn 3.7564826 -1.3502505 1.1205677
v 0.0571700 -0.0589000 0.0072710
vn 3.5295796 -2.4160094 1.2010880
v 0.0479430 -0.0735950 0.0132550
vn 5.3194537 -2.3896618 2.0384836
v 0.0526320 -0.0639070 0.0156670
vn 4.4373059 -2.8907056 3.2890749
v 0.0333610 -0.0762830 0.0354680
vn 3.9924288 -4.1118011 2.4972417
v 0.0316200 -0.0814490 0.0315760
vn 3.8273597 -4.2718682 2.3957050
v 0.0246310 -0.0837200 0.0394260
vn 4.3383484 -2.8882518 3.3191185
v 0.0253150 -0.0797240 0.0437080
vn 2.8925412 -4.6423979 2.6644855
v 0.0173920 -0.0859580 0.0464460
vn 3.4022033 -3.1146913 3.8120842
v 0.0180790 -0.0821200 0.0506770
vn 1.4478831 -5.0323963 3.1256478
v 0.0095150 -0.0869620 0.0505680
vn 1.7183664 -3.5910988 4.4579716
v 0.0096670 -0.0832100 0.0550490
vn 1.7672188 -0.2027545 5.7342968
v 0.0086150 -0.0736790 0.0587650
vn 1.8142822 -1.8581767 5.4085965
v 0.0091440 -0.0786550 0.0576860
vn 3.4428141 -0.0284655 5.1354704
v 0.0161080 -0.0729950 0.0546720
vn 3.5450802 -1.4199462 4.7491689
v 0.0173570 -0.0779840 0.0532470
vn 4.1087542 -0.1542930 4.7343183
v 0.0226910 -0.0707770 0.0490130
vn 4.3954272 -1.2886943 4.2149229
v 0.0243990 -0.0756240 0.0468840
vn 4.0262251 -0.8792640 4.7275453
v 0.0304570 -0.0669580 0.0423120
vn 4.4479761 -1.7235997 4.0536447
v 0.0323230 -0.0718770 0.0393210
vn 4.0184164 -1.5245036 4.5661330
v 0.0368620 -0.0624410 0.0383230
vn 4.4839411 -1.9636867 3.9201143
v 0.0400600 -0.0654910 0.0338380
vn 0.7094737 -2.9351861 1.2429326
v 0.0088370 -0.0899800 0.0437790
vn 1.4281734 -2.7309177 1.1022561
v 0.0162450 -0.0890840 0.0399790
vn 1.8269038 -2.4788277 1.0705997
v 0.0231820 -0.0870790 0.0338640
vn 1.9056197 -2.3074036 1.1219833
v 0.0294960 -0.0855080 0.0268360
vn 4.4120803 -3.6434381 2.2622097
v 0.0416200 -0.0768270 0.0230840
vn -0.8274163 -1.0986211 0.8940068
v -0.0029650 -0.0183660 0.0625240
vn -2.0247376 -1.9349817 2.2958312
v -0.0034560 -0.0191760 0.0606660
vn 1.9424974 -2.0863385 0.8660995
v 0.0360260 -0.0839320 0.0186120
vn 1.3094687 -1.2950436 0.4152872
v 0.0429870 -0.0796610 0.0099360
vn 3.1729617 0.9941752 5.2819147
v 0.0148500 -0.0687000 0.0549190
vn 1.7124653 1.0806475 5.7982283
v 0.0080650 -0.0689140 0.0583510
vn 3.7032492 0.4411248 5.0488582
v 0.0209330 -0.0668610 0.0502090
vn 3.6381664 -0.4431317 5.0839291
v 0.0281420 -0.0627650 0.0445350
vn 3.4173470 -1.1073582 5.1396036
v 0.0342780 -0.0586600 0.0413090
vn 3.6567881 -0.8669128 4.9994917
v 0.0392310 -0.0470270 0.0406820
vn 3.4884348 -1.2006797 5.0186892
v 0.0379690 -0.0531080 0.0404380
vn 3.2991681 -0.5607210 5.3039055
v 0.0376880 -0.0352870 0.0432410
vn 3.5756397 -0.6435261 5.1218667
v 0.0386140 -0.0410680 0.0418370
vn 4.3061261 -0.5741094 4.4818287
v 0.0457410 -0.0287060 0.0381450
vn 4.6647382 -0.8927291 4.0843501
v 0.0472260 -0.0373060 0.0349080
vn 4.1581049 -0.7905998 4.6134415
v 0.0430390 -0.0399580 0.0386460
vn 3.7269862 -0.6938848 4.9606695
v 0.0419060 -0.0324800 0.0408970
vn 4.5895510 -0.4287705 4.2286005
v 0.0492710 -0.0226890 0.0350860
vn 4.9943476 -0.8708236 3.6899939
v 0.0512320 -0.0331400 0.0307730
vn -3.4260876 2.3931885 4.6868496
v -0.0480650 0.0064040 0.0291920
vn -3.7574148 2.4820347 4.3733244
v -0.0507280 0.0072670 0.0266440
vn 4.2601085 -1.4692669 4.3049459
v 0.0413740 -0.0557520 0.0368330
vn 4.7822838 -1.5518247 3.7380826
v 0.0453470 -0.0565920 0.0317660
vn 4.8738976 -1.0500479 3.8055346
v 0.0473250 -0.0467980 0.0324060
vn 5.1779566 -1.0371640 3.3860662
v 0.0516900 -0.0440940 0.0270910
vn 5.1237645 -1.5331868 3.2342646
v 0.0501220 -0.0559530 0.0254520
vn 4.4428701 -0.9788655 4.2874875
v 0.0432200 -0.0480070 0.0370220
vn 5.5180273 -1.3963494 2.5466664
v 0.0553180 -0.0524870 0.0178660
vn 5.4911928 -0.9701858 2.8575435
v 0.0560450 -0.0395600 0.0212550
vn 5.2019916 -0.8255370 3.3755431
v 0.0552000 -0.0270010 0.0266880
vn 5.7562523 -0.8897788 2.3285303
v 0.0593260 -0.0336160 0.0161230
vn 5.8133650 -1.1753334 2.0040441
v 0.0592800 -0.0468600 0.0107210
vn -4.2357273 1.8451606 4.2445879
v -0.0553730 0.0121250 0.0192870
vn -2.2489715 0.3929540 2.0964260
v -0.0567050 0.0178960 0.0163590
vn 5.4544239 -0.8930296 2.9094222
v 0.0586010 -0.0226570 0.0221990
vn 5.7290077 -0.8533375 2.3430791
v 0.0612730 -0.0182760 0.0179850
vn 5.9341459 -0.8316100 1.8788632
v 0.0615550 -0.0288110 0.0116650
vn 5.9784636 -0.8945738 1.6748114
v 0.0619590 -0.0400690 0.0056170
vn 4.8269973 -2.4415748 3.0207534
v 0.0454230 -0.0684880 0.0255560
vn 4.4442101 -0.5357298 1.1038514
v 0.0641090 -0.0338890 0.0002830
vn -2.5156407 1.5888871 5.5300364
v -0.0381720 0.0070970 0.0345830
vn -2.8107564 1.7314305 5.3416862
v -0.0412190 0.0066590 0.0332290
vn 5.9203463 -0.7978173 1.8787065
v 0.0634660 -0.0143660 0.0132420
vn -4.2197366 2.3159549 4.0362945
v -0.0544550 0.0099850 0.0214080
vn 6.0256853 -0.8476470 1.5618430
v 0.0635780 -0.0236150 0.0068410
vn 6.0148144 -0.6403421 1.6335492
v 0.0658550 -0.0088960 0.0072300
vn 6.0583005 -0.9046870 1.3976295
v 0.0664300 -0.0178220 -0.0013140
vn 2.4184859 -0.3101151 0.5589839
v 0.0668140 -0.0259550 -0.0081190
vn -1.3507848 2.7304921 5.4833760
v -0.0212390 0.0104630 0.0381570
vn 2.7807083 1.9697616 5.2442808
v 0.0215480 -0.0289220 0.0502750
vn 3.3339682 2.4586926 4.7223539
v 0.0162800 -0.0270800 0.0529220
vn -1.6559033 1.8791028 5.7554317
v -0.0308330 0.0081780 0.0371160
vn 3.4367857 2.1544225 4.7887597
v 0.0114180 -0.0262920 0.0561050
vn -4.0524678 2.4469967 4.1237731
v -0.0528980 0.0083330 0.0240200
vn 2.7399569 1.3394170 5.4122043
v 0.0075450 -0.0259230 0.0586150
vn 0.9760387 0.4745729 6.0946841
v 0.0036830 -0.0259570 0.0599340
vn -2.1832824 1.6375679 5.6560020
v -0.0347030 0.0075420 0.0359780
vn -2.0494630 2.5518084 3.4834800
v -0.0166000 0.0127700 0.0384810
vn -1.0625416 0.8973998 0.9538268
v -0.0131640 0.0157930 0.0389100
vn -1.1370251 2.2323227 5.7541409
v -0.0260120 0.0089700 0.0379970
vn -3.0522189 2.0830178 5.0752959
v -0.0446930 0.0064250 0.0313820
vn -0.1599950 -1.7371618 5.9954772
v -0.0000690 -0.0555720 0.0582160
vn -3.0463946 -1.1875800 5.3506227
v -0.0268770 -0.0391590 0.0482800
vn -2.6263614 -1.8867747 5.3811932
v -0.0283060 -0.0411770 0.0469070
vn -2.3434527 -0.6143448 5.7433062
v -0.0280690 -0.0468180 0.0450740
vn -3.5221887 0.8195273 5.1140623
v -0.0194570 -0.0343160 0.0532820
vn -3.3826189 -0.1359755 5.2682977
v -0.0239390 -0.0368770 0.0503630
vn -3.6397662 -0.8563696 4.9877195
v -0.0183910 -0.0533130 0.0525410
vn -2.0984852 -2.1990736 5.4931698
v -0.0287520 -0.0430730 0.0459550
vn -2.6291413 -1.7851937 5.3708363
v -0.0127180 -0.0545040 0.0556840
vn -1.9389058 -1.6672406 5.7355299
v -0.0290110 -0.0449320 0.0452200
vn -1.3599823 -2.0766151 5.7456727
v -0.0068280 -0.0549460 0.0573480
vn -0.2229620 1.1921941 6.1617260
v 0.0000030 -0.0310020 0.0602770
vn -2.4432893 1.5701754 5.5153580
v -0.0093260 -0.0308440 0.0587680
vn -0.8739550 1.2871795 5.9856629
v -0.0045350 -0.0305780 0.0602230
vn -3.2581389 1.4943736 5.1347179
v -0.0143480 -0.0321190 0.0562630
vn -3.4851134 0.1722751 5.1883574
v -0.0260140 -0.0489800 0.0461480
vn -3.9885662 -0.0640064 4.8469214
v -0.0230040 -0.0513820 0.0487730
vn 0.8194854 -1.0426133 0.8736271
v 0.0028940 -0.0183090 0.0625680
vn 2.0086713 -1.8488119 2.3617282
v 0.0033530 -0.0191370 0.0607610
vn 3.4719772 2.4068751 4.6459484
v 0.0484420 0.0065980 0.0302020
vn 3.7751346 2.4991562 4.3500834
v 0.0510580 0.0075400 0.0275920
vn 4.2514391 1.5839124 4.3368688
v 0.0559200 0.0125360 0.0202550
vn 1.4603968 0.2619155 1.3280983
v 0.0574710 0.0183090 0.0174110
vn 2.4493475 1.5637466 5.5664396
v 0.0386060 0.0072090 0.0358070
vn 2.9136026 1.7500169 5.2810206
v 0.0416580 0.0067800 0.0344170
vn 4.2283616 2.1227109 4.1308656
v 0.0548630 0.0103430 0.0223040
vn 1.1201056 2.3796599 5.6920347
v 0.0214410 0.0103470 0.0387790
vn 1.2925364 1.5421928 5.9481001
v 0.0312160 0.0080950 0.0380250
vn 4.0622172 2.3919382 4.1424775
v 0.0533010 0.0086290 0.0249200
vn 1.9121724 1.4952290 5.7908669
v 0.0350740 0.0075920 0.0370950
vn 1.9250568 2.4136853 3.6337569
v 0.0166990 0.0126630 0.0390120
vn 1.0511346 0.8791012 0.9559003
v 0.0132620 0.0157070 0.0393840
vn 0.8370275 1.8100083 5.9549799
v 0.0261520 0.0088860 0.0386940
vn 3.1507142 2.1005850 5.0085754
v 0.0450890 0.0065620 0.0324690
vn 2.9295080 -1.1291703 5.4274111
v 0.0268700 -0.0392530 0.0488280
vn 2.5184920 -1.8226790 5.4507489
v 0.0283150 -0.0412810 0.0475300
vn 2.0176077 -0.6969791 5.8870044
v 0.0279890 -0.0469200 0.0458750
vn 3.4926829 0.8489767 5.1269884
v 0.0194430 -0.0344380 0.0536540
vn 3.2937059 -0.1325732 5.3254600
v 0.0239140 -0.0369930 0.0508080
vn 3.6187673 -0.7393858 5.0496960
v 0.0178510 -0.0533110 0.0527150
vn 1.9716179 -2.0718784 5.5856509
v 0.0286960 -0.0431680 0.0466310
vn 2.7433443 -1.6690141 5.3543744
v 0.0123710 -0.0545240 0.0559020
vn 1.7922161 -1.4861488 5.8321843
v 0.0289430 -0.0450220 0.0460020
vn 1.2872050 -2.0213754 5.7761574
v 0.0065100 -0.0550590 0.0576920
vn 2.4627244 1.6001458 5.4829206
v 0.0093420 -0.0308510 0.0591800
vn 0.5947078 1.2730384 6.0000424
v 0.0045500 -0.0305480 0.0605450
vn 3.3017194 1.5750618 5.0882888
v 0.0142770 -0.0321770 0.0566290
vn 3.0768590 -0.0241939 5.4441295
v 0.0258520 -0.0490370 0.0466840
vn 3.7423635 -0.0928728 5.0450897
v 0.0226000 -0.0513830 0.0489920
# 714 vertices, 0 vertices normals

f 4//4 2//2 1//1
f 5//5 7//7 6//6
f 9//9 11//11 10//10
f 5//5 20//20 19//19
f 13//13 23//23 24//24
f 24//24 3//3 4//4
f 238//238 1//1 2//2
f 41//41 39//39 42//42
f 615//615 159//159 613//613
f 32//32 650//650 47//47
f 89//89 570//570 571//571
f 95//95 182//182 94//94
f 184//184 562//562 183//183
f 122//122 59//59 113//113
f 97//97 106//106 95//95
f 709//709 566//566 666//666
f 9//9 22//22 21//21
f 11//11 14//14 13//13
f 7//7 49//49 6//6
f 6//6 30//30 20//20
f 55//55 57//57 56//56
f 59//59 61//61 60//60
f 691//691 28//28 694//694
f 69//69 67//67 66//66
f 73//73 71//71 70//70
f 84//84 83//83 82//82
f 572//572 86//86 573//573
f 80//80 92//92 91//91
f 96//96 94//94 93//93
f 98//98 95//95 96//96
f 107//107 89//89 108//108
f 105//105 107//107 109//109
f 574//574 87//87 572//572
f 706//706 116//116 708//708
f 701//701 115//115 119//119
f 704//704 111//111 114//114
f 112//112 712//712 703//703
f 119//119 120//120 121//121
f 120//120 68//68 69//69
f 122//122 121//121 62//62
f 127//127 124//124 126//126
f 704//704 122//122 113//113
f 117//117 51//51 116//116
f 129//129 126//126 128//128
f 135//135 133//133 132//132
f 47//47 31//31 32//32
f 48//48 17//17 47//47
f 141//141 136//136 140//140
f 65//65 140//140 64//64
f 140//140 63//63 64//64
f 142//142 141//141 57//57
f 143//143 125//125 127//127
f 137//137 142//142 143//143
f 125//125 142//142 54//54
f 135//135 143//143 144//144
f 134//134 144//144 145//145
f 145//145 129//129 130//130
f 144//144 127//127 129//129
f 90//90 568//568 570//570
f 133//133 149//149 139//139
f 134//134 150//150 133//133
f 151//151 114//114 111//111
f 110//110 151//151 109//109
f 162//162 160//160 159//159
f 142//142 53//53 54//54
f 53//53 165//165 52//52
f 713//713 163//163 714//714
f 157//157 713//713 702//702
f 168//168 166//166 165//165
f 654//654 112//112 113//113
f 165//165 163//163 164//164
f 52//52 164//164 157//157
f 66//66 162//162 159//159
f 713//713 161//161 162//162
f 714//714 176//176 161//161
f 565//565 660//660 182//182
f 180//180 709//709 707//707
f 660//660 94//94 182//182
f 58//58 171//171 172//172
f 163//163 705//705 714//714
f 179//179 176//176 178//178
f 160//160 176//176 177//177
f 166//166 175//175 163//163
f 174//174 180//180 175//175
f 178//178 705//705 707//707
f 103//103 657//657 659//659
f 683//683 86//86 684//684
f 181//181 186//186 180//180
f 707//707 184//184 178//178
f 118//118 706//706 701//701
f 232//232 217//217 231//231
f 689//689 244//244 695//695
f 114//114 700//700 704//704
f 153//153 155//155 152//152
f 109//109 108//108 110//110
f 54//54 52//52 51//51
f 131//131 123//123 114//114
f 250//250 35//35 244//244
f 83//83 21//21 82//82
f 688//688 196//196 687//687
f 83//83 12//12 9//9
f 199//199 200//200 198//198
f 687//687 29//29 691//691
f 205//205 75//75 206//206
f 206//206 76//76 205//205
f 205//205 80//80 74//74
f 208//208 210//210 209//209
f 201//201 211//211 200//200
f 212//212 12//12 197//197
f 201//201 203//203 210//210
f 75//75 215//215 214//214
f 214//214 217//217 216//216
f 206//206 214//214 209//209
f 216//216 219//219 218//218
f 70//70 220//220 215//215
f 198//198 83//83 85//85
f 31//31 19//19 20//20
f 223//223 226//226 225//225
f 221//221 224//224 223//223
f 233//233 218//218 219//219
f 223//223 220//220 221//221
f 3//3 233//233 2//2
f 235//235 237//237 236//236
f 236//236 232//232 225//225
f 200//200 197//197 198//198
f 7//7 239//239 50//50
f 213//213 218//218 234//234
f 240//240 236//236 239//239
f 8//8 240//240 7//7
f 23//23 234//234 3//3
f 36//36 242//242 34//34
f 34//34 244//244 35//35
f 245//245 238//238 235//235
f 698//698 4//4 693//693
f 693//693 1//1 695//695
f 26//26 247//247 28//28
f 686//686 19//19 694//694
f 37//37 248//248 247//247
f 41//41 251//251 40//40
f 652//652 649//649 644//644
f 699//699 245//245 241//241
f 38//38 251//251 248//248
f 212//212 211//211 213//213
f 685//685 241//241 8//8
f 243//243 45//45 252//252
f 252//252 46//46 253//253
f 692//692 253//253 696//696
f 698//698 252//252 692//692
f 81//81 93//93 92//92
f 192//192 194//194 195//195
f 17//17 27//27 31//31
f 615//615 631//631 614//614
f 32//32 20//20 30//30
f 250//250 690//690 249//249
f 48//48 189//189 256//256
f 13//13 696//696 11//11
f 227//227 229//229 230//230
f 241//241 235//235 240//240
f 255//255 229//229 254//254
f 202//202 198//198 85//85
f 184//184 666//666 563//563
f 137//137 132//132 136//136
f 56//56 141//141 140//140
f 258//258 260//260 257//257
f 262//262 192//192 261//261
f 264//264 227//227 263//263
f 616//616 620//620 621//621
f 154//154 266//266 155//155
f 28//28 25//25 26//26
f 685//685 5//5 686//686
f 689//689 245//245 690//690
f 265//265 254//254 266//266
f 14//14 213//213 23//23
f 44//44 249//249 41//41
f 60//60 222//222 221//221
f 113//113 703//703 704//704
f 648//648 270//270 271//271
f 262//262 274//274 272//272
f 275//275 278//278 277//277
f 284//284 282//282 283//283
f 276//276 287//287 278//278
f 205//205 77//77 78//78
f 136//136 138//138 63//63
f 92//92 657//657 655//655
f 225//225 231//231 223//223
f 18//18 16//16 15//15
f 188//188 190//190 189//189
f 196//196 25//25 29//29
f 70//70 74//74 73//73
f 209//209 207//207 206//206
f 291//291 273//273 259//259
f 292//292 259//259 258//258
f 293//293 194//194 193//193
f 272//272 193//193 262//262
f 296//296 298//298 295//295
f 299//299 301//301 302//302
f 303//303 305//305 306//306
f 311//311 313//313 310//310
f 315//315 317//317 314//314
f 314//314 318//318 319//319
f 325//325 323//323 324//324
f 263//263 327//327 326//326
f 328//328 327//327 329//329
f 330//330 572//572 573//573
f 103//103 711//711 710//710
f 335//335 318//318 317//317
f 336//336 324//324 335//335
f 338//338 340//340 337//337
f 339//339 342//342 340//340
f 337//337 325//325 336//336
f 679//679 347//347 678//678
f 680//680 344//344 678//678
f 331//331 574//574 572//572
f 351//351 333//333 334//334
f 344//344 334//334 345//345
f 349//349 351//351 344//344
f 352//352 353//353 354//354
f 680//680 356//356 670//670
f 671//671 355//355 670//670
f 673//673 360//360 361//361
f 668//668 359//359 673//673
f 364//364 312//312 359//359
f 363//363 364//364 359//359
f 365//365 366//366 306//306
f 668//668 367//367 667//667
f 671//671 366//366 667//667
f 295//295 369//369 368//368
f 368//368 371//371 370//370
f 362//362 368//368 370//370
f 361//361 295//295 368//368
f 372//372 362//362 370//370
f 373//373 370//370 371//371
f 374//374 372//372 373//373
f 375//375 367//367 372//372
f 377//377 379//379 376//376
f 376//376 381//381 380//380
f 382//382 380//380 307//307
f 383//383 376//376 382//382
f 380//380 385//385 384//384
f 300//300 385//385 301//301
f 309//309 384//384 300//300
f 307//307 384//384 308//308
f 386//386 301//301 385//385
f 386//386 381//381 387//387
f 369//369 387//387 371//371
f 369//369 298//298 386//386
f 387//387 379//379 388//388
f 388//388 378//378 389//389
f 373//373 389//389 374//374
f 371//371 388//388 373//373
f 377//377 392//392 393//393
f 391//391 374//374 389//389
f 394//394 358//358 375//375
f 390//390 375//375 374//374
f 353//353 355//355 394//394
f 354//354 394//394 390//390
f 302//302 386//386 395//395
f 396//396 295//295 360//360
f 669//669 312//312 311//311
f 386//386 297//297 395//395
f 399//399 401//401 398//398
f 310//310 401//401 311//311
f 681//681 402//402 403//403
f 681//681 396//396 669//669
f 405//405 407//407 404//404
f 404//404 297//297 296//296
f 403//403 296//296 396//396
f 402//402 404//404 403//403
f 412//412 302//302 395//395
f 407//407 395//395 297//297
f 406//406 412//412 407//407
f 409//409 299//299 410//410
f 410//410 302//302 411//411
f 413//413 406//406 405//405
f 414//414 405//405 402//402
f 672//672 402//402 682//682
f 399//399 415//415 400//400
f 415//415 418//418 417//417
f 419//419 413//413 414//414
f 672//672 417//417 674//674
f 330//330 605//605 606//606
f 128//128 118//118 123//123
f 72//72 60//60 71//71
f 617//617 69//69 614//614
f 417//417 422//422 423//423
f 420//420 425//425 424//424
f 674//674 423//423 676//676
f 79//79 81//81 80//80
f 44//44 33//33 35//35
f 132//132 139//139 138//138
f 209//209 216//216 208//208
f 208//208 218//218 211//211
f 191//191 650//650 651//651
f 429//429 267//267 288//288
f 638//638 429//429 428//428
f 637//637 271//271 429//429
f 327//327 431//431 329//329
f 327//327 230//230 430//430
f 432//432 433//433 434//434
f 435//435 431//431 432//432
f 438//438 321//321 320//320
f 323//323 322//322 438//438
f 438//438 324//324 323//323
f 319//319 438//438 439//439
f 439//439 320//320 440//440
f 441//441 443//443 434//434
f 444//444 434//434 433//433
f 442//442 440//440 443//443
f 443//443 437//437 436//436
f 434//434 436//436 432//432
f 230//230 445//445 430//430
f 430//430 433//433 431//431
f 273//273 261//261 269//269
f 444//444 445//445 446//446
f 255//255 446//446 445//445
f 448//448 319//319 447//447
f 447//447 439//439 442//442
f 450//450 447//447 449//449
f 449//449 442//442 441//441
f 451//451 441//441 444//444
f 452//452 449//449 451//451
f 453//453 314//314 448//448
f 455//455 304//304 454//454
f 457//457 454//454 456//456
f 459//459 456//456 458//458
f 458//458 460//460 461//461
f 456//456 453//453 460//460
f 462//462 451//451 463//463
f 462//462 154//154 153//153
f 464//464 466//466 467//467
f 465//465 461//461 466//466
f 468//468 458//458 465//465
f 469//469 465//465 464//464
f 194//194 468//468 469//469
f 195//195 469//469 470//470
f 451//451 446//446 463//463
f 463//463 265//265 154//154
f 155//155 664//664 656//656
f 471//471 279//279 277//277
f 473//473 277//277 278//278
f 152//152 656//656 661//661
f 474//474 467//467 475//475
f 192//192 624//624 625//625
f 280//280 477//477 281//281
f 268//268 476//476 280//280
f 261//261 625//625 658//658
f 478//478 287//287 284//284
f 474//474 645//645 646//646
f 665//665 474//474 646//646
f 480//480 284//284 283//283
f 281//281 480//480 283//283
f 624//624 470//470 665//665
f 289//289 472//472 481//481
f 664//664 481//481 472//472
f 290//290 481//481 482//482
f 653//653 482//482 481//481
f 270//270 267//267 271//271
f 300//300 397//397 309//309
f 55//55 170//170 171//171
f 259//259 269//269 260//260
f 427//427 292//292 483//483
f 483//483 258//258 187//187
f 470//470 464//464 474//474
f 100//100 90//90 107//107
f 239//239 225//225 226//226
f 609//609 590//590 592//592
f 582//582 584//584 583//583
f 498//498 589//589 499//499
f 596//596 595//595 597//597
f 600//600 586//586 588//588
f 602//602 583//583 584//584
f 179//179 610//610 609//609
f 607//607 583//583 603//603
f 159//159 612//612 613//613
f 66//66 614//614 69//69
f 121//121 617//617 616//616
f 621//621 619//619 618//618
f 618//618 623//623 622//622
f 62//62 616//616 61//61
f 222//222 618//618 224//224
f 224//224 622//622 226//226
f 503//503 590//590 500//500
f 608//608 604//604 607//607
f 177//177 612//612 160//160
f 593//593 589//589 587//587
f 601//601 584//584 586//586
f 598//598 597//597 599//599
f 585//585 586//586 584//584
f 599//599 626//626 598//598
f 597//597 585//585 582//582
f 628//628 630//630 629//629
f 626//626 613//613 598//598
f 627//627 631//631 626//626
f 620//620 614//614 631//631
f 620//620 628//628 619//619
f 619//619 629//629 623//623
f 633//633 623//623 629//629
f 634//634 622//622 623//623
f 632//632 629//629 630//630
f 50//50 226//226 622//622
f 633//633 636//636 635//635
f 588//588 587//587 589//589
f 581//581 578//578 579//579
f 179//179 611//611 177//177
f 635//635 634//634 633//633
f 49//49 640//640 30//30
f 639//639 50//50 634//634
f 167//167 174//174 166//166
f 591//591 499//499 589//589
f 642//642 635//635 636//636
f 158//158 56//56 65//65
f 592//592 591//591 593//593
f 594//594 593//593 595//595
f 595//595 587//587 585//585
f 588//588 513//513 600//600
f 641//641 639//639 635//635
f 599//599 582//582 643//643
f 643//643 627//627 599//599
f 173//173 58//58 172//172
f 604//604 582//582 583//583
f 643//643 580//580 581//581
f 581//581 630//630 643//643
f 486//486 489//489 487//487
f 490//490 492//492 493//493
f 493//493 494//494 495//495
f 496//496 495//495 494//494
f 498//498 497//497 496//496
f 501//501 503//503 500//500
f 504//504 502//502 501//501
f 506//506 505//505 504//504
f 508//508 507//507 506//506
f 510//510 509//509 508//508
f 513//513 496//496 512//512
f 512//512 494//494 514//514
f 514//514 492//492 515//515
f 515//515 491//491 516//516
f 491//491 518//518 516//516
f 517//517 519//519 518//518
f 418//418 521//521 422//422
f 522//522 418//418 416//416
f 523//523 416//416 399//399
f 398//398 523//523 399//399
f 525//525 310//310 313//313
f 365//365 528//528 364//364
f 530//530 532//532 529//529
f 534//534 529//529 533//533
f 306//306 527//527 365//365
f 529//529 455//455 457//457
f 533//533 457//457 459//459
f 502//502 499//499 503//503
f 505//505 497//497 502//502
f 507//507 495//495 505//505
f 509//509 493//493 507//507
f 535//535 511//511 510//510
f 537//537 539//539 536//536
f 535//535 524//524 526//526
f 540//540 536//536 535//535
f 531//531 525//525 528//528
f 537//537 531//531 530//530
f 538//538 530//530 534//534
f 541//541 538//538 542//542
f 542//542 534//534 543//543
f 543//543 533//533 294//294
f 294//294 459//459 468//468
f 545//545 542//542 544//544
f 544//544 543//543 546//546
f 546//546 294//294 293//293
f 547//547 293//293 272//272
f 548//548 546//546 547//547
f 549//549 544//544 548//548
f 490//490 511//511 550//550
f 536//536 550//550 511//511
f 517//517 490//490 550//550
f 488//488 550//550 489//489
f 539//539 489//489 550//550
f 487//487 541//541 545//545
f 485//485 545//545 549//549
f 484//484 549//549 551//551
f 552//552 272//272 274//274
f 553//553 547//547 552//552
f 551//551 548//548 553//553
f 554//554 274//274 291//291
f 426//426 291//291 292//292
f 555//555 552//552 554//554
f 521//521 500//500 556//556
f 520//520 501//501 521//521
f 522//522 504//504 520//520
f 523//523 506//506 522//522
f 524//524 508//508 523//523
f 540//540 526//526 525//525
f 527//527 531//531 528//528
f 305//305 532//532 527//527
f 398//398 526//526 524//524
f 313//313 528//528 525//525
f 422//422 556//556 562//562
f 146//146 131//131 151//151
f 109//109 111//111 105//105
f 178//178 183//183 179//179
f 210//210 204//204 207//207
f 147//147 130//130 146//146
f 27//27 694//694 19//19
f 610//610 500//500 590//590
f 51//51 157//157 116//116
f 702//702 68//68 708//708
f 148//148 145//145 147//147
f 58//58 142//142 57//57
f 366//366 303//303 306//306
f 557//557 303//303 357//357
f 356//356 557//557 357//357
f 286//286 284//284 287//287
f 304//304 316//316 315//315
f 454//454 315//315 453//453
f 450//450 461//461 460//460
f 448//448 460//460 453//453
f 462//462 467//467 466//466
f 452//452 466//466 461//461
f 467//467 152//152 475//475
f 479//479 278//278 287//287
f 645//645 473//473 479//479
f 557//557 317//317 316//316
f 558//558 335//335 557//557
f 91//91 74//74 80//80
f 130//130 128//128 131//131
f 123//123 701//701 700//700
f 125//125 51//51 124//124
f 118//118 124//124 117//117
f 421//421 339//339 338//338
f 350//350 341//341 339//339
f 331//331 343//343 341//341
f 559//559 336//336 558//558
f 348//348 558//558 356//356
f 168//168 156//156 173//173
f 573//573 332//332 330//330
f 712//712 100//100 105//105
f 333//333 570//570 334//334
f 679//679 569//569 346//346
f 334//334 568//568 345//345
f 18//18 691//691 27//27
f 565//565 350//350 421//421
f 425//425 564//564 424//424
f 676//676 566//566 425//425
f 562//562 423//423 422//422
f 611//611 592//592 594//594
f 651//651 647//647 649//649
f 556//556 183//183 562//562
f 71//71 221//221 220//220
f 655//655 104//104 112//112
f 612//612 594//594 596//596
f 613//613 596//596 598//598
f 238//238 233//233 237//237
f 88//88 573//573 86//86
f 654//654 73//73 91//91
f 231//231 215//215 220//220
f 43//43 41//41 42//42
f 711//711 569//569 677//677
f 99//99 87//87 97//97
f 59//59 654//654 113//113
f 655//655 91//91 92//92
f 47//47 188//188 48//48
f 61//61 621//621 222//222
f 237//237 219//219 232//232
f 99//99 684//684 86//86
f 24//24 692//692 13//13
f 106//106 565//565 182//182
f 564//564 186//186 185//185
f 251//251 685//685 248//248
f 11//11 697//697 10//10
f 475//475 661//661 645//645
f 246//246 695//695 1//1
f 229//229 663//663 662//662
f 254//254 662//662 653//653
f 266//266 653//653 664//664
f 624//624 480//480 477//477
f 665//665 478//478 480//480
f 646//646 479//479 478//478
f 658//658 476//476 270//270
f 625//625 477//477 476//476
f 661//661 471//471 473//473
f 656//656 472//472 471//471
f 260//260 648//648 637//637
f 257//257 637//637 638//638
f 269//269 658//658 648//648
f 249//249 699//699 251//251
f 248//248 686//686 247//247
f 242//242 695//695 244//244
f 247//247 694//694 28//28
f 579//579 632//632 581//581
f 577//577 636//636 579//579
f 649//649 640//640 641//641
f 642//642 576//576 644//644
f 30//30 647//647 32//32
f 641//641 644//644 649//649
f 337//337 560//560 338//338
f 559//559 347//347 560//560
f 338//338 561//561 421//421
f 560//560 346//346 561//561
f 565//565 561//561 567//567
f 567//567 346//346 569//569
f 423//423 666//666 676//676
f 243//243 693//693 242//242
f 568//568 679//679 345//345
f 15//15 687//687 18//18
f 419//419 676//676 425//425
f 414//414 674//674 419//419
f 415//415 682//682 400//400
f 311//311 681//681 669//669
f 400//400 681//681 401//401
f 360//360 669//669 396//396
f 358//358 667//667 367//367
f 363//363 667//667 366//366
f 362//362 673//673 361//361
f 359//359 675//675 673//673
f 357//357 670//670 356//356
f 349//349 670//670 355//355
f 348//348 678//678 347//347
f 345//345 678//678 344//344
f 115//115 708//708 68//68
f 707//707 175//175 180//180
f 700//700 119//119 122//122
f 703//703 105//105 111//111
f 659//659 93//93 94//94
f 102//102 659//659 660//660
f 711//711 568//568 101//101
f 567//567 102//102 660//660
f 702//702 116//116 157//157
f 67//67 713//713 162//162
f 104//104 710//710 712//712
f 710//710 101//101 100//100
f 4//4 3//3 2//2
f 5//5 8//8 7//7
f 9//9 12//12 11//11
f 5//5 6//6 20//20
f 13//13 14//14 23//23
f 24//24 23//23 3//3
f 238//238 246//246 1//1
f 41//41 40//40 39//39
f 615//615 66//66 159//159
f 32//32 647//647 650//650
f 89//89 90//90 570//570
f 95//95 106//106 182//182
f 184//184 563//563 562//562
f 122//122 62//62 59//59
f 97//97 87//87 106//106
f 709//709 186//186 566//566
f 9//9 10//10 22//22
f 11//11 12//12 14//14
f 7//7 50//50 49//49
f 6//6 49//49 30//30
f 55//55 58//58 57//57
f 59//59 62//62 61//61
f 691//691 29//29 28//28
f 69//69 68//68 67//67
f 73//73 72//72 71//71
f 84//84 85//85 83//83
f 572//572 87//87 86//86
f 80//80 81//81 92//92
f 96//96 95//95 94//94
f 98//98 97//97 95//95
f 107//107 90//90 89//89
f 105//105 100//100 107//107
f 574//574 106//106 87//87
f 706//706 117//117 116//116
f 701//701 706//706 115//115
f 704//704 703//703 111//111
f 112//112 104//104 712//712
f 119//119 115//115 120//120
f 120//120 115//115 68//68
f 122//122 119//119 121//121
f 127//127 125//125 124//124
f 704//704 700//700 122//122
f 117//117 124//124 51//51
f 129//129 127//127 126//126
f 135//135 134//134 133//133
f 47//47 17//17 31//31
f 48//48 16//16 17//17
f 141//141 137//137 136//136
f 65//65 56//56 140//140
f 140//140 136//136 63//63
f 143//143 142//142 125//125
f 137//137 141//141 142//142
f 135//135 137//137 143//143
f 134//134 135//135 144//144
f 145//145 144//144 129//129
f 144//144 143//143 127//127
f 90//90 101//101 568//568
f 133//133 150//150 149//149
f 134//134 148//148 150//150
f 151//151 131//131 114//114
f 110//110 146//146 151//151
f 162//162 161//161 160//160
f 142//142 156//156 53//53
f 53//53 168//168 165//165
f 713//713 164//164 163//163
f 157//157 164//164 713//713
f 168//168 167//167 166//166
f 654//654 655//655 112//112
f 165//165 166//166 163//163
f 52//52 165//165 164//164
f 171//171 170//170 169//169
f 66//66 67//67 162//162
f 713//713 714//714 161//161
f 714//714 705//705 176//176
f 565//565 567//567 660//660
f 180//180 186//186 709//709
f 660//660 659//659 94//94
f 58//58 55//55 171//171
f 163//163 175//175 705//705
f 179//179 177//177 176//176
f 160//160 161//161 176//176
f 166//166 174//174 175//175
f 174//174 181//181 180//180
f 178//178 176//176 705//705
f 103//103 104//104 657//657
f 683//683 88//88 86//86
f 181//181 185//185 186//186
f 707//707 709//709 184//184
f 118//118 117//117 706//706
f 232//232 219//219 217//217
f 689//689 250//250 244//244
f 114//114 123//123 700//700
f 153//153 154//154 155//155
f 109//109 107//107 108//108
f 54//54 53//53 52//52
f 131//131 128//128 123//123
f 250//250 44//44 35//35
f 83//83 9//9 21//21
f 83//83 197//197 12//12
f 199//199 201//201 200//200
f 687//687 196//196 29//29
f 79//79 205//205 78//78
f 205//205 74//74 75//75
f 206//206 207//207 76//76
f 205//205 79//79 80//80
f 208//208 201//201 210//210
f 201//201 208//208 211//211
f 212//212 14//14 12//12
f 201//201 199//199 203//203
f 75//75 70//70 215//215
f 214//214 215//215 217//217
f 206//206 75//75 214//214
f 216//216 217//217 219//219
f 70//70 71//71 220//220
f 198//198 197//197 83//83
f 31//31 27//27 19//19
f 223//223 224//224 226//226
f 221//221 222//222 224//224
f 233//233 234//234 218//218
f 223//223 231//231 220//220
f 3//3 234//234 233//233
f 235//235 238//238 237//237
f 236//236 237//237 232//232
f 200//200 212//212 197//197
f 7//7 240//240 239//239
f 213//213 211//211 218//218
f 240//240 235//235 236//236
f 8//8 241//241 240//240
f 23//23 213//213 234//234
f 36//36 243//243 242//242
f 34//34 242//242 244//244
f 245//245 246//246 238//238
f 698//698 24//24 4//4
f 693//693 4//4 1//1
f 26//26 37//37 247//247
f 686//686 5//5 19//19
f 37//37 38//38 248//248
f 41//41 249//249 251//251
f 652//652 651//651 649//649
f 699//699 690//690 245//245
f 38//38 40//40 251//251
f 212//212 200//200 211//211
f 685//685 699//699 241//241
f 243//243 36//36 45//45
f 252//252 45//45 46//46
f 692//692 252//252 253//253
f 698//698 243//243 252//252
f 81//81 96//96 93//93
f 192//192 193//193 194//194
f 17//17 18//18 27//27
f 167//167 168//168 173//173
f 615//615 626//626 631//631
f 32//32 31//31 20//20
f 250//250 689//689 690//690
f 16//16 48//48 256//256
f 48//48 188//188 189//189
f 13//13 692//692 696//696
f 227//227 228//228 229//229
f 241//241 245//245 235//235
f 255//255 230//230 229//229
f 202//202 199//199 198//198
f 184//184 709//709 666//666
f 137//137 135//135 132//132
f 56//56 57//57 141//141
f 258//258 259//259 260//260
f 262//262 193//193 192//192
f 187//187 258//258 257//257
f 264//264 228//228 227//227
f 616//616 617//617 620//620
f 154//154 265//265 266//266
f 28//28 29//29 25//25
f 685//685 8//8 5//5
f 689//689 246//246 245//245
f 265//265 255//255 254//254
f 14//14 212//212 213//213
f 44//44 250//250 249//249
f 60//60 61//61 222//222
f 113//113 112//112 703//703
f 648//648 658//658 270//270
f 262//262 273//273 274//274
f 275//275 276//276 278//278
f 284//284 285//285 282//282
f 276//276 286//286 287//287
f 205//205 76//76 77//77
f 136//136 132//132 138//138
f 92//92 93//93 657//657
f 225//225 232//232 231//231
f 18//18 17//17 16//16
f 188//188 191//191 190//190
f 70//70 75//75 74//74
f 209//209 210//210 207//207
f 291//291 274//274 273//273
f 292//292 291//291 259//259
f 293//293 294//294 194//194
f 272//272 293//293 193//193
f 296//296 297//297 298//298
f 299//299 300//300 301//301
f 303//303 304//304 305//305
f 311//311 312//312 313//313
f 315//315 316//316 317//317
f 314//314 317//317 318//318
f 263//263 227//227 327//327
f 328//328 326//326 327//327
f 330//330 331//331 572//572
f 103//103 102//102 711//711
f 335//335 324//324 318//318
f 336//336 325//325 324//324
f 338//338 339//339 340//340
f 339//339 341//341 342//342
f 337//337 340//340 325//325
f 679//679 346//346 347//347
f 680//680 349//349 344//344
f 331//331 350//350 574//574
f 351//351 352//352 333//333
f 344//344 351//351 334//334
f 349//349 353//353 351//351
f 352//352 351//351 353//353
f 680//680 348//348 356//356
f 671//671 358//358 355//355
f 673//673 675//675 360//360
f 668//668 363//363 359//359
f 364//364 313//313 312//312
f 363//363 365//365 364//364
f 365//365 363//363 366//366
f 668//668 362//362 367//367
f 671//671 357//357 366//366
f 295//295 298//298 369//369
f 368//368 369//369 371//371
f 362//362 361//361 368//368
f 361//361 360//360 295//295
f 372//372 367//367 362//362
f 373//373 372//372 370//370
f 374//374 375//375 372//372
f 375//375 358//358 367//367
f 377//377 378//378 379//379
f 376//376 379//379 381//381
f 382//382 376//376 380//380
f 383//383 377//377 376//376
f 380//380 381//381 385//385
f 300//300 384//384 385//385
f 309//309 308//308 384//384
f 307//307 380//380 384//384
f 386//386 385//385 381//381
f 369//369 386//386 387//387
f 387//387 381//381 379//379
f 388//388 379//379 378//378
f 373//373 388//388 389//389
f 371//371 387//387 388//388
f 377//377 383//383 392//392
f 378//378 377//377 393//393
f 391//391 390//390 374//374
f 394//394 355//355 358//358
f 390//390 394//394 375//375
f 353//353 349//349 355//355
f 354//354 353//353 394//394
f 302//302 301//301 386//386
f 396//396 296//296 295//295
f 669//669 675//675 312//312
f 386//386 298//298 297//297
f 399//399 400//400 401//401
f 310//310 398//398 401//401
f 681//681 682//682 402//402
f 681//681 403//403 396//396
f 405//405 406//406 407//407
f 404//404 407//407 297//297
f 403//403 404//404 296//296
f 402//402 405//405 404//404
f 408//408 409//409 410//410
f 412//412 411//411 302//302
f 407//407 412//412 395//395
f 409//409 397//397 299//299
f 410//410 299//299 302//302
f 414//414 413//413 405//405
f 672//672 414//414 402//402
f 399//399 416//416 415//415
f 415//415 416//416 418//418
f 419//419 420//420 413//413
f 672//672 415//415 417//417
f 330//330 332//332 605//605
f 128//128 126//126 118//118
f 72//72 59//59 60//60
f 617//617 120//120 69//69
f 417//417 418//418 422//422
f 420//420 419//419 425//425
f 674//674 417//417 423//423
f 44//44 43//43 33//33
f 132//132 133//133 139//139
f 209//209 214//214 216//216
f 208//208 216//216 218//218
f 191//191 651//651 652//652
f 191//191 188//188 650//650
f 429//429 271//271 267//267
f 428//428 429//429 288//288
f 638//638 637//637 429//429
f 637//637 648//648 271//271
f 327//327 430//430 431//431
f 327//327 227//227 230//230
f 432//432 431//431 433//433
f 435//435 432//432 436//436
f 435//435 329//329 431//431
f 438//438 322//322 321//321
f 438//438 318//318 324//324
f 319//319 318//318 438//438
f 439//439 438//438 320//320
f 441//441 442//442 443//443
f 444//444 441//441 434//434
f 442//442 439//439 440//440
f 443//443 440//440 437//437
f 434//434 443//443 436//436
f 230//230 255//255 445//445
f 430//430 445//445 433//433
f 273//273 262//262 261//261
f 444//444 433//433 445//445
f 255//255 265//265 446//446
f 448//448 314//314 319//319
f 447//447 319//319 439//439
f 450//450 448//448 447//447
f 449//449 447//447 442//442
f 451//451 449//449 441//441
f 452//452 450//450 449//449
f 453//453 315//315 314//314
f 455//455 305//305 304//304
f 457//457 455//455 454//454
f 459//459 457//457 456//456
f 458//458 456//456 460//460
f 456//456 454//454 453//453
f 462//462 452//452 451//451
f 462//462 463//463 154//154
f 464//464 465//465 466//466
f 465//465 458//458 461//461
f 468//468 459//459 458//458
f 469//469 468//468 465//465
f 194//194 294//294 468//468
f 195//195 194//194 469//469
f 451//451 444//444 446//446
f 463//463 446//446 265//265
f 155//155 266//266 664//664
f 471//471 472//472 279//279
f 473//473 471//471 277//277
f 152//152 155//155 656//656
f 474//474 464//464 467//467
f 192//192 195//195 624//624
f 280//280 476//476 477//477
f 268//268 270//270 476//476
f 261//261 192//192 625//625
f 478//478 479//479 287//287
f 474//474 475//475 645//645
f 665//665 470//470 474//474
f 480//480 478//478 284//284
f 281//281 477//477 480//480
f 624//624 195//195 470//470
f 289//289 279//279 472//472
f 664//664 653//653 481//481
f 290//290 289//289 481//481
f 653//653 662//662 482//482
f 270//270 268//268 267//267
f 300//300 299//299 397//397
f 55//55 158//158 170//170
f 259//259 273//273 269//269
f 427//427 426//426 292//292
f 483//483 292//292 258//258
f 470//470 469//469 464//464
f 100//100 101//101 90//90
f 239//239 236//236 225//225
f 609//609 610//610 590//590
f 582//582 585//585 584//584
f 498//498 588//588 589//589
f 596//596 594//594 595//595
f 600//600 601//601 586//586
f 602//602 603//603 583//583
f 179//179 183//183 610//610
f 607//607 604//604 583//583
f 159//159 160//160 612//612
f 66//66 615//615 614//614
f 121//121 120//120 617//617
f 621//621 620//620 619//619
f 618//618 619//619 623//623
f 62//62 121//121 616//616
f 222//222 621//621 618//618
f 224//224 618//618 622//622
f 503//503 591//591 590//590
f 608//608 580//580 604//604
f 177//177 611//611 612//612
f 593//593 591//591 589//589
f 601//601 602//602 584//584
f 598//598 596//596 597//597
f 585//585 587//587 586//586
f 599//599 627//627 626//626
f 597//597 595//595 585//585
f 628//628 627//627 630//630
f 626//626 615//615 613//613
f 627//627 628//628 631//631
f 620//620 617//617 614//614
f 620//620 631//631 628//628
f 619//619 628//628 629//629
f 633//633 634//634 623//623
f 634//634 50//50 622//622
f 632//632 633//633 629//629
f 50//50 239//239 226//226
f 633//633 632//632 636//636
f 588//588 586//586 587//587
f 581//581 580//580 578//578
f 179//179 609//609 611//611
f 635//635 639//639 634//634
f 49//49 639//639 640//640
f 639//639 49//49 50//50
f 591//591 503//503 499//499
f 642//642 641//641 635//635
f 158//158 55//55 56//56
f 592//592 590//590 591//591
f 594//594 592//592 593//593
f 595//595 593//593 587//587
f 588//588 498//498 513//513
f 641//641 640//640 639//639
f 599//599 597//597 582//582
f 643//643 630//630 627//627
f 173//173 156//156 58//58
f 604//604 643//643 582//582
f 643//643 604//604 580//580
f 581//581 632//632 630//630
f 486//486 488//488 489//489
f 490//490 491//491 492//492
f 493//493 492//492 494//494
f 496//496 497//497 495//495
f 498//498 499//499 497//497
f 501//501 502//502 503//503
f 504//504 505//505 502//502
f 506//506 507//507 505//505
f 508//508 509//509 507//507
f 510//510 511//511 509//509
f 513//513 498//498 496//496
f 512//512 496//496 494//494
f 514//514 494//494 492//492
f 515//515 492//492 491//491
f 491//491 517//517 518//518
f 517//517 488//488 519//519
f 418//418 520//520 521//521
f 522//522 520//520 418//418
f 523//523 522//522 416//416
f 398//398 524//524 523//523
f 525//525 526//526 310//310
f 365//365 527//527 528//528
f 530//530 531//531 532//532
f 534//534 530//530 529//529
f 306//306 305//305 527//527
f 529//529 532//532 455//455
f 533//533 529//529 457//457
f 502//502 497//497 499//499
f 505//505 495//495 497//497
f 507//507 493//493 495//495
f 509//509 490//490 493//493
f 535//535 536//536 511//511
f 537//537 538//538 539//539
f 535//535 510//510 524//524
f 540//540 537//537 536//536
f 531//531 540//540 525//525
f 537//537 540//540 531//531
f 538//538 537//537 530//530
f 541//541 539//539 538//538
f 542//542 538//538 534//534
f 543//543 534//534 533//533
f 294//294 533//533 459//459
f 545//545 541//541 542//542
f 544//544 542//542 543//543
f 546//546 543//543 294//294
f 547//547 546//546 293//293
f 548//548 544//544 546//546
f 549//549 545//545 544//544
f 490//490 509//509 511//511
f 536//536 539//539 550//550
f 517//517 491//491 490//490
f 488//488 517//517 550//550
f 539//539 541//541 489//489
f 487//487 489//489 541//541
f 485//485 487//487 545//545
f 484//484 485//485 549//549
f 552//552 547//547 272//272
f 553//553 548//548 547//547
f 551//551 549//549 548//548
f 554//554 552//552 274//274
f 426//426 554//554 291//291
f 555//555 553//553 552//552
f 521//521 501//501 500//500
f 520//520 504//504 501//501
f 522//522 506//506 504//504
f 523//523 508//508 506//506
f 524//524 510//510 508//508
f 540//540 535//535 526//526
f 527//527 532//532 531//531
f 305//305 455//455 532//532
f 398//398 310//310 526//526
f 313//313 364//364 528//528
f 422//422 521//521 556//556
f 146//146 130//130 131//131
f 109//109 151//151 111//111
f 178//178 184//184 183//183
f 210//210 203//203 204//204
f 147//147 145//145 130//130
f 27//27 691//691 694//694
f 610//610 556//556 500//500
f 51//51 52//52 157//157
f 702//702 67//67 68//68
f 148//148 134//134 145//145
f 58//58 156//156 142//142
f 366//366 357//357 303//303
f 557//557 316//316 303//303
f 356//356 558//558 557//557
f 286//286 285//285 284//284
f 304//304 303//303 316//316
f 454//454 304//304 315//315
f 450//450 452//452 461//461
f 448//448 450//450 460//460
f 462//462 153//153 467//467
f 452//452 462//462 466//466
f 467//467 153//153 152//152
f 479//479 473//473 278//278
f 645//645 661//661 473//473
f 557//557 335//335 317//317
f 558//558 336//336 335//335
f 91//91 73//73 74//74
f 130//130 129//129 128//128
f 123//123 118//118 701//701
f 125//125 54//54 51//51
f 118//118 126//126 124//124
f 421//421 350//350 339//339
f 350//350 331//331 341//341
f 331//331 330//330 343//343
f 559//559 337//337 336//336
f 348//348 559//559 558//558
f 168//168 53//53 156//156
f 573//573 575//575 332//332
f 712//712 710//710 100//100
f 333//333 571//571 570//570
f 679//679 677//677 569//569
f 334//334 570//570 568//568
f 18//18 687//687 691//691
f 565//565 574//574 350//350
f 425//425 566//566 564//564
f 676//676 666//666 566//566
f 562//562 563//563 423//423
f 343//343 330//330 606//606
f 611//611 609//609 592//592
f 651//651 650//650 647//647
f 556//556 610//610 183//183
f 71//71 60//60 221//221
f 655//655 657//657 104//104
f 612//612 611//611 594//594
f 613//613 612//612 596//596
f 238//238 2//2 233//233
f 88//88 575//575 573//573
f 654//654 72//72 73//73
f 231//231 217//217 215//215
f 43//43 44//44 41//41
f 711//711 102//102 569//569
f 99//99 86//86 87//87
f 59//59 72//72 654//654
f 655//655 654//654 91//91
f 47//47 650//650 188//188
f 61//61 616//616 621//621
f 237//237 233//233 219//219
f 24//24 698//698 692//692
f 106//106 574//574 565//565
f 564//564 566//566 186//186
f 251//251 699//699 685//685
f 11//11 696//696 697//697
f 475//475 152//152 661//661
f 246//246 689//689 695//695
f 229//229 228//228 663//663
f 254//254 229//229 662//662
f 266//266 254//254 653//653
f 624//624 665//665 480//480
f 665//665 646//646 478//478
f 646//646 645//645 479//479
f 658//658 625//625 476//476
f 625//625 624//624 477//477
f 661//661 656//656 471//471
f 656//656 664//664 472//472
f 260//260 269//269 648//648
f 257//257 260//260 637//637
f 269//269 261//261 658//658
f 249//249 690//690 699//699
f 248//248 685//685 686//686
f 242//242 693//693 695//695
f 247//247 686//686 694//694
f 579//579 636//636 632//632
f 577//577 642//642 636//636
f 649//649 647//647 640//640
f 642//642 577//577 576//576
f 30//30 640//640 647//647
f 641//641 642//642 644//644
f 337//337 559//559 560//560
f 559//559 348//348 347//347
f 338//338 560//560 561//561
f 560//560 347//347 346//346
f 565//565 421//421 561//561
f 567//567 561//561 346//346
f 423//423 563//563 666//666
f 243//243 698//698 693//693
f 568//568 677//677 679//679
f 15//15 688//688 687//687
f 419//419 674//674 676//676
f 414//414 672//672 674//674
f 415//415 672//672 682//682
f 311//311 401//401 681//681
f 400//400 682//682 681//681
f 360//360 675//675 669//669
f 358//358 671//671 667//667
f 363//363 668//668 667//667
f 362//362 668//668 673//673
f 359//359 312//312 675//675
f 357//357 671//671 670//670
f 349//349 680//680 670//670
f 348//348 680//680 678//678
f 345//345 679//679 678//678
f 115//115 706//706 708//708
f 707//707 705//705 175//175
f 700//700 701//701 119//119
f 703//703 712//712 105//105
f 659//659 657//657 93//93
f 102//102 103//103 659//659
f 711//711 677//677 568//568
f 567//567 569//569 102//102
f 702//702 708//708 116//116
f 67//67 702//702 713//713
f 104//104 103//103 710//710
f 710//710 711//711 101//101
# 1254 faces, 0 coords texture

# End of File
