# Blender 5.0.0
# www.blender.org
o template_forehead
v 0.039289 0.048517 0.039143
v 0.046469 0.047187 0.033244
v 0.045399 0.041278 0.036846
v 0.038421 0.041884 0.041256
v -0.038361 0.048294 0.038288
v -0.045789 0.046919 0.032581
v -0.044612 0.041034 0.035953
v -0.037433 0.041768 0.040126
v 0.034508 0.005425 0.037909
v 0.030483 0.006205 0.038719
v 0.059838 0.030892 0.014455
v 0.061620 0.031556 0.009911
v 0.062182 0.022094 0.010058
v 0.060067 0.023262 0.013937
v 0.020309 0.087364 0.031087
v 0.010264 0.088454 0.033368
v 0.053145 0.003150 0.028304
v 0.049857 0.002723 0.031290
v 0.011836 0.012785 0.044638
v 0.012190 0.014623 0.041867
v 0.015894 0.011092 0.040734
v 0.008164 0.061162 0.045362
v 0.009088 0.068856 0.042580
v 0.018071 0.068745 0.041205
v 0.016665 0.061166 0.044472
v 0.020595 0.008600 0.039783
v 0.053301 0.052911 0.021642
v 0.055213 0.057998 0.017300
v 0.058497 0.051058 0.013604
v 0.056390 0.046944 0.018339
v 0.006636 0.048710 0.048658
v 0.014153 0.048641 0.048433
v 0.012295 0.042491 0.048626
v 0.005963 0.042432 0.049043
v 0.060086 0.015749 0.014645
v 0.062563 0.012963 0.011830
v 0.061692 0.004869 0.016954
v 0.058788 0.008628 0.018886
v 0.055643 0.004270 0.025095
v 0.019460 0.078064 0.037317
v 0.009768 0.078678 0.038907
v 0.060582 0.041795 0.010798
v 0.058567 0.039272 0.015808
v 0.009221 0.016191 0.046957
v 0.009877 0.017641 0.043466
v 0.007802 0.022138 0.045696
v 0.004373 0.021962 0.051503
v 0.004588 0.025944 0.049862
v 0.007507 0.025775 0.046386
v 0.034148 0.060791 0.037314
v 0.035705 0.067703 0.033639
v 0.043152 0.066387 0.028137
v 0.041607 0.059875 0.031987
v 0.005105 0.034973 0.048817
v 0.009396 0.035144 0.046954
v 0.008399 0.031570 0.046243
v 0.005025 0.031730 0.048806
v 0.025410 0.007138 0.039350
v 0.004596 0.018908 0.054349
v 0.066901 0.058193 -0.004685
v 0.042673 0.017616 0.032895
v 0.042823 0.017464 0.032995
v 0.041244 0.017187 0.034298
v 0.041300 0.017300 0.034163
v 0.042251 0.017845 0.032321
v 0.040713 0.017415 0.033400
v 0.043228 0.018168 0.031362
v 0.043697 0.017892 0.031837
v 0.043919 0.017678 0.031914
v 0.024929 0.018630 0.036331
v 0.025702 0.018987 0.035831
v 0.028363 0.017983 0.036001
v 0.027618 0.017945 0.037001
v 0.024679 0.018389 0.036708
v 0.027550 0.017665 0.037366
v 0.021787 0.019785 0.034341
v 0.020794 0.020068 0.033858
v 0.020816 0.021774 0.034064
v 0.032809 0.016630 0.037364
v 0.032998 0.015871 0.037400
v 0.028212 0.016239 0.037646
v 0.027826 0.017096 0.037567
v 0.032628 0.017070 0.037233
v 0.036101 0.017125 0.036298
v 0.036161 0.016685 0.036405
v 0.036269 0.015928 0.036387
v 0.024851 0.017190 0.037405
v 0.024761 0.018045 0.037097
v 0.036290 0.015256 0.036381
v 0.033223 0.015205 0.037331
v 0.028407 0.015572 0.037619
v 0.024822 0.016756 0.037491
v 0.021986 0.018019 0.036803
v 0.023161 0.018211 0.036874
v 0.033275 0.014424 0.037178
v 0.033211 0.013604 0.037097
v 0.028308 0.013982 0.037611
v 0.028419 0.014800 0.037581
v 0.036335 0.014486 0.036107
v 0.036312 0.013619 0.035996
v 0.045085 0.017732 0.030180
v 0.045633 0.018215 0.029278
v 0.045584 0.017662 0.029343
v 0.045217 0.017257 0.029817
v 0.047819 0.015152 0.026466
v 0.048857 0.016534 0.025690
v 0.050426 0.015979 0.024127
v 0.049236 0.014421 0.025389
v 0.057536 0.005946 0.021759
v 0.051610 0.011625 0.024770
v 0.053022 0.013121 0.022674
v 0.044552 0.017539 0.030979
v 0.043894 0.017281 0.031910
v 0.044531 0.017856 0.030997
v 0.045029 0.018170 0.030064
v 0.044686 0.016890 0.030646
v 0.043960 0.016639 0.031697
v 0.042855 0.017131 0.032985
v 0.042883 0.016417 0.032877
v 0.041243 0.016137 0.034231
v 0.041174 0.016877 0.034306
v 0.039053 0.016746 0.035400
v 0.039382 0.017142 0.035251
v 0.039134 0.015970 0.035324
v 0.041364 0.015481 0.033990
v 0.039246 0.015308 0.035222
v 0.042916 0.015743 0.032499
v 0.044052 0.016076 0.031249
v 0.044833 0.016441 0.030125
v 0.045530 0.016827 0.029301
v 0.046024 0.017465 0.028735
v 0.045163 0.015910 0.029485
v 0.045803 0.015201 0.028636
v 0.044542 0.014704 0.030036
v 0.044243 0.015494 0.030726
v 0.046060 0.016414 0.028552
v 0.046868 0.015817 0.027537
v 0.043130 0.015152 0.032034
v 0.043195 0.014408 0.031550
v 0.041372 0.014034 0.033180
v 0.041414 0.014801 0.033641
v 0.039304 0.014620 0.034922
v 0.039374 0.013743 0.034544
v 0.032580 0.017104 0.037042
v 0.032254 0.017334 0.035909
v 0.035734 0.017121 0.035314
v 0.036173 0.017115 0.036071
v 0.039451 0.017148 0.035124
v 0.038708 0.017229 0.034452
v 0.034227 0.030160 0.037257
v 0.034173 0.030362 0.037667
v 0.039465 0.029696 0.036603
v 0.038991 0.029357 0.036317
v 0.041665 0.026887 0.035371
v 0.041634 0.027890 0.035168
v 0.044079 0.026632 0.033388
v 0.043931 0.025668 0.033466
v 0.041669 0.025795 0.035657
v 0.043733 0.024504 0.033641
v 0.038919 0.027053 0.037598
v 0.038948 0.028253 0.037273
v 0.038866 0.029090 0.036779
v 0.042565 0.023708 0.031665
v 0.043581 0.022953 0.030395
v 0.044251 0.022267 0.029486
v 0.060148 0.001007 0.021108
v 0.044279 0.018156 0.030862
v 0.044815 0.018534 0.029959
v 0.043792 0.018440 0.030509
v 0.044288 0.018844 0.029742
v 0.045377 0.019119 0.029086
v 0.045718 0.018831 0.029016
v 0.044662 0.019511 0.029149
v 0.044803 0.020097 0.028897
v 0.044883 0.020830 0.028802
v 0.044708 0.021466 0.029048
v 0.045942 0.018354 0.028849
v 0.046028 0.019298 0.028650
v 0.046477 0.020413 0.028039
v 0.046403 0.018420 0.028312
v 0.047071 0.018507 0.027551
v 0.046627 0.017200 0.027875
v 0.047467 0.021249 0.027550
v 0.048818 0.021776 0.026698
v 0.048251 0.018574 0.026473
v 0.047541 0.016986 0.026842
v 0.045736 0.019844 0.028700
v 0.045814 0.020514 0.028423
v 0.046928 0.022414 0.028805
v 0.047708 0.023407 0.028531
v 0.046249 0.021686 0.029046
v 0.045740 0.022568 0.030258
v 0.046262 0.023430 0.030167
v 0.046845 0.024323 0.029943
v 0.045371 0.024416 0.031722
v 0.045759 0.025395 0.031617
v 0.044963 0.023439 0.031768
v 0.045630 0.021361 0.029073
v 0.045140 0.022135 0.030021
v 0.044366 0.022999 0.031296
v 0.043303 0.023657 0.033194
v 0.041462 0.024751 0.035280
v 0.040634 0.024657 0.033481
v 0.038691 0.026026 0.037155
v 0.037878 0.025451 0.035137
v 0.034673 0.031313 0.038434
v 0.040413 0.030846 0.037160
v 0.022155 0.022788 0.035207
v 0.023542 0.023855 0.036049
v 0.027639 0.025650 0.037312
v 0.025234 0.024725 0.036672
v 0.034469 0.025950 0.036359
v 0.020102 0.022508 0.036480
v 0.021944 0.023849 0.036986
v 0.018865 0.021312 0.036060
v 0.018176 0.021155 0.036097
v 0.019360 0.022614 0.036450
v 0.020981 0.024083 0.036969
v 0.024148 0.024996 0.037506
v 0.023434 0.025445 0.037929
v 0.026980 0.026859 0.038970
v 0.027090 0.026006 0.038589
v 0.034561 0.026818 0.038321
v 0.034644 0.027844 0.038771
v 0.026463 0.027809 0.038481
v 0.022906 0.026042 0.037406
v 0.025826 0.028822 0.037982
v 0.022715 0.027087 0.037158
v 0.034498 0.029793 0.037684
v 0.034707 0.028978 0.038432
v 0.021830 0.018893 0.036345
v 0.019522 0.019276 0.036132
v 0.022377 0.019188 0.036210
v 0.019886 0.019551 0.035946
v 0.023576 0.019555 0.035326
v 0.019023 0.020063 0.035744
v 0.018290 0.019879 0.035904
v 0.018609 0.022680 0.035990
v 0.017232 0.020984 0.035913
v 0.017471 0.023217 0.035193
v 0.016478 0.021117 0.035398
v 0.019933 0.025646 0.035858
v 0.020269 0.024398 0.036152
v 0.017287 0.019747 0.035767
v 0.017944 0.019205 0.035980
v 0.016527 0.019717 0.035562
v 0.017202 0.018991 0.035843
v 0.024574 0.016093 0.037550
v 0.024308 0.015435 0.037539
v 0.021206 0.017507 0.036878
v 0.020579 0.017052 0.036756
v 0.032974 0.012736 0.036935
v 0.036191 0.012711 0.035979
v 0.032619 0.011595 0.036994
v 0.036032 0.011540 0.035901
v 0.027496 0.012113 0.037791
v 0.028031 0.013084 0.037668
v 0.046591 0.014332 0.027920
v 0.047635 0.013322 0.027276
v 0.045996 0.012533 0.029085
v 0.045085 0.013830 0.029412
v 0.043401 0.013429 0.031044
v 0.043861 0.012053 0.030976
v 0.041459 0.011760 0.032794
v 0.041301 0.013035 0.032839
v 0.039340 0.012843 0.034335
v 0.039154 0.011487 0.034385
v 0.049858 0.018152 0.025075
v 0.050892 0.021642 0.024630
v 0.051472 0.017551 0.023430
v 0.053042 0.021282 0.022451
v 0.015684 0.024282 0.035326
v 0.015320 0.021463 0.035078
v 0.014063 0.025053 0.036278
v 0.013873 0.022113 0.035858
v 0.015483 0.027995 0.037280
v 0.017371 0.027161 0.036071
v 0.015670 0.019804 0.035476
v 0.016433 0.018690 0.035618
v 0.014551 0.019717 0.035761
v 0.015533 0.018217 0.035965
v 0.023768 0.014644 0.037467
v 0.023211 0.013717 0.037510
v 0.019937 0.016461 0.036876
v 0.018999 0.015630 0.036926
v 0.047705 0.034794 0.034385
v 0.045402 0.031956 0.035222
v 0.041898 0.033178 0.037489
v 0.043727 0.036589 0.037577
v 0.050284 0.038718 0.032108
v 0.052573 0.035213 0.029260
v 0.050281 0.032424 0.031419
v 0.048006 0.030223 0.032848
v 0.051768 0.024576 0.025412
v 0.050037 0.024545 0.027050
v 0.050109 0.026352 0.028396
v 0.051803 0.027025 0.026880
v 0.053880 0.024618 0.023184
v 0.054187 0.027908 0.024814
v 0.051298 0.029507 0.029017
v 0.049265 0.028196 0.030460
v 0.053768 0.031174 0.027074
v 0.023694 0.033001 0.039632
v 0.024228 0.031447 0.038416
v 0.021267 0.029212 0.037194
v 0.019901 0.029863 0.037814
v 0.022538 0.034356 0.040584
v 0.017891 0.030761 0.038611
v 0.036909 0.037103 0.040506
v 0.035906 0.034084 0.039466
v 0.025432 0.029493 0.037484
v 0.023403 0.028168 0.037345
v 0.025075 0.029656 0.037396
v 0.022765 0.028094 0.037135
v 0.041683 0.028204 0.035351
v 0.042362 0.028710 0.035167
v 0.044796 0.027601 0.033376
v 0.044202 0.027127 0.033571
v 0.046080 0.026054 0.031579
v 0.046687 0.026550 0.031480
v 0.047832 0.025432 0.029772
v 0.047301 0.025107 0.029938
v 0.047919 0.024296 0.028732
v 0.048423 0.024323 0.028295
v 0.022836 0.029028 0.037361
v 0.024891 0.030140 0.037847
v 0.045007 0.073614 0.023091
v 0.051955 0.070150 0.016472
v 0.049991 0.063741 0.022156
v 0.043401 0.029803 0.035555
v 0.045987 0.028572 0.033468
v 0.047723 0.027256 0.031281
v 0.048799 0.025880 0.029452
v 0.049202 0.024889 0.028231
v 0.064442 -0.001753 0.012850
v 0.065813 0.007704 0.007009
v 0.009229 0.014054 0.049980
v 0.004742 0.029012 0.049097
v -0.034201 0.005393 0.036851
v -0.030184 0.006318 0.037938
v 0.061207 0.069559 0.001003
v 0.054539 0.076787 0.008088
v -0.059553 0.030458 0.013749
v -0.061386 0.031025 0.009260
v -0.061888 0.021566 0.009215
v -0.059584 0.022786 0.013053
v -0.019482 0.087300 0.030869
v -0.009300 0.088429 0.033222
v 0.068466 0.000929 0.000365
v 0.068394 0.013517 -0.002491
v -0.052833 0.002886 0.027320
v -0.049515 0.002517 0.030255
v 0.067016 0.027339 -0.004481
v 0.067525 0.042005 -0.005176
v 0.048461 0.057939 0.026196
v 0.046940 0.080927 0.015437
v 0.056441 0.024469 0.020041
v 0.055666 0.019903 0.019346
v 0.056700 0.029284 0.021397
v 0.053956 0.015066 0.021173
v -0.011729 0.012852 0.044231
v -0.012068 0.014700 0.041446
v -0.015812 0.011192 0.040289
v -0.007024 0.061101 0.045101
v -0.007971 0.068776 0.042371
v -0.017033 0.068602 0.040894
v -0.015554 0.061059 0.044048
v 0.045797 0.003285 0.033631
v 0.031837 0.009657 0.037539
v 0.026796 0.010332 0.038200
v 0.035458 0.009419 0.036567
v 0.041763 0.003940 0.035442
v 0.038323 0.004621 0.036763
v 0.049565 0.010500 0.027100
v 0.047356 0.009692 0.029420
v 0.041691 0.009159 0.033703
v 0.038811 0.009210 0.035252
v 0.044671 0.009333 0.031667
v 0.022192 0.011908 0.038088
v 0.017445 0.013949 0.037995
v 0.015283 0.031214 0.040063
v 0.012926 0.028401 0.039153
v 0.007702 0.028809 0.046328
v 0.019342 0.035379 0.042648
v 0.014200 0.016717 0.037862
v -0.020460 0.008736 0.039278
v 0.012406 0.019327 0.037745
v 0.011555 0.022067 0.037907
v 0.011437 0.025380 0.038382
v 0.030770 0.048676 0.044078
v 0.027349 0.042126 0.045833
v 0.058332 0.062888 0.010272
v 0.062014 0.054556 0.006365
v 0.051051 0.044048 0.028780
v 0.054110 0.039827 0.025685
v 0.056030 0.034665 0.023086
v 0.063783 0.043052 0.003583
v 0.064249 0.030509 0.003093
v 0.065217 0.018744 0.004219
v 0.038874 0.084044 0.022310
v 0.037351 0.075757 0.029146
v -0.052544 0.052430 0.021054
v -0.054442 0.057481 0.016788
v -0.057795 0.050495 0.013031
v -0.055820 0.046458 0.017746
v -0.005574 0.048705 0.048422
v -0.013060 0.048597 0.047811
v -0.011256 0.042494 0.048061
v -0.004935 0.042444 0.048831
v -0.059511 0.015267 0.013657
v -0.062272 0.012427 0.010959
v -0.061487 0.004440 0.016110
v -0.058427 0.008219 0.018008
v -0.055306 0.003995 0.024195
v -0.018484 0.077898 0.037046
v -0.008693 0.078600 0.038755
v -0.060082 0.041253 0.010194
v -0.058237 0.038818 0.015220
v -0.009033 0.016233 0.046613
v -0.009693 0.017680 0.043089
v -0.007280 0.022052 0.045370
v -0.003513 0.021782 0.051142
v -0.003394 0.025743 0.049351
v -0.006677 0.025628 0.045927
v -0.033259 0.060543 0.036819
v -0.034879 0.067422 0.033262
v -0.042351 0.066003 0.027728
v -0.040733 0.059528 0.031445
v -0.003919 0.034977 0.048270
v -0.008415 0.035103 0.046436
v -0.007412 0.031482 0.045713
v -0.003714 0.031676 0.048189
v -0.025374 0.007247 0.038783
v -0.003679 0.018761 0.054078
v -0.066673 0.057354 -0.005053
v -0.042234 0.017599 0.031868
v -0.042424 0.017430 0.031998
v -0.040848 0.017165 0.033282
v -0.040908 0.017273 0.033144
v -0.041794 0.017746 0.031251
v -0.040387 0.017166 0.032321
v -0.042747 0.018172 0.030282
v -0.043239 0.017878 0.030807
v -0.043440 0.017664 0.030897
v -0.024552 0.018573 0.035138
v -0.025294 0.018647 0.034670
v -0.028018 0.017765 0.034783
v -0.027245 0.017893 0.035839
v -0.024291 0.018333 0.035509
v -0.027156 0.017611 0.036191
v -0.021271 0.019895 0.033174
v -0.020251 0.020347 0.032649
v -0.020362 0.021934 0.032944
v -0.032427 0.016585 0.036213
v -0.032607 0.015838 0.036248
v -0.027820 0.016187 0.036464
v -0.027435 0.017031 0.036391
v -0.032247 0.017029 0.036072
v -0.035715 0.017117 0.035176
v -0.035772 0.016667 0.035285
v -0.035868 0.015922 0.035275
v -0.024449 0.017126 0.036211
v -0.024367 0.017980 0.035903
v -0.035870 0.015249 0.035273
v -0.032814 0.015191 0.036156
v -0.028007 0.015542 0.036419
v -0.024420 0.016704 0.036289
v -0.021584 0.017968 0.035600
v -0.022755 0.018154 0.035667
v -0.032849 0.014416 0.035987
v -0.032788 0.013591 0.035884
v -0.027909 0.013972 0.036424
v -0.028017 0.014788 0.036376
v -0.035886 0.014474 0.034980
v -0.035855 0.013596 0.034844
v -0.044581 0.017694 0.029210
v -0.045122 0.018169 0.028327
v -0.045071 0.017603 0.028410
v -0.044721 0.017201 0.028872
v -0.047407 0.014929 0.025610
v -0.048364 0.016269 0.024812
v -0.049886 0.015652 0.023218
v -0.048806 0.014143 0.024538
v -0.057273 0.005605 0.020909
v -0.051187 0.011301 0.023888
v -0.052521 0.012759 0.021755
v -0.044058 0.017514 0.029983
v -0.043404 0.017263 0.030895
v -0.044048 0.017836 0.029995
v -0.044536 0.018140 0.029081
v -0.044222 0.016844 0.029660
v -0.043462 0.016617 0.030685
v -0.042441 0.017098 0.031985
v -0.042472 0.016382 0.031873
v -0.040838 0.016115 0.033206
v -0.040769 0.016865 0.033284
v -0.038650 0.016746 0.034310
v -0.038984 0.017139 0.034176
v -0.038726 0.015966 0.034249
v -0.040937 0.015449 0.032952
v -0.038809 0.015291 0.034125
v -0.042488 0.015698 0.031501
v -0.043553 0.016034 0.030261
v -0.044367 0.016373 0.029169
v -0.045041 0.016748 0.028384
v -0.045509 0.017374 0.027830
v -0.044713 0.015808 0.028564
v -0.045376 0.015062 0.027741
v -0.044107 0.014590 0.029090
v -0.043745 0.015425 0.029759
v -0.045578 0.016300 0.027664
v -0.046386 0.015663 0.026669
v -0.042631 0.015107 0.031016
v -0.042704 0.014334 0.030547
v -0.040893 0.013974 0.032169
v -0.040937 0.014765 0.032617
v -0.038443 0.014670 0.033778
v -0.038516 0.013765 0.033409
v -0.032215 0.017107 0.035889
v -0.031968 0.017174 0.034595
v -0.035422 0.016993 0.033974
v -0.035795 0.017132 0.034966
v -0.039069 0.017135 0.034058
v -0.038361 0.016924 0.033254
v -0.033539 0.030045 0.035874
v -0.033434 0.030234 0.036333
v -0.038749 0.029538 0.035299
v -0.038335 0.029203 0.034981
v -0.040978 0.026734 0.034053
v -0.040947 0.027704 0.033828
v -0.043349 0.026475 0.032068
v -0.043200 0.025540 0.032174
v -0.041021 0.025678 0.034395
v -0.042997 0.024404 0.032424
v -0.038266 0.026940 0.036273
v -0.038284 0.028063 0.035889
v -0.038208 0.028898 0.035415
v -0.042137 0.023692 0.030533
v -0.043152 0.022898 0.029295
v -0.043742 0.022158 0.028468
v -0.043815 0.018133 0.029845
v -0.044335 0.018502 0.028961
v -0.043276 0.018455 0.029445
v -0.043772 0.018817 0.028753
v -0.044881 0.019079 0.028100
v -0.045209 0.018786 0.028051
v -0.044188 0.019410 0.028224
v -0.044385 0.019992 0.027935
v -0.044451 0.020764 0.027810
v -0.044169 0.021369 0.028054
v -0.045421 0.018286 0.027915
v -0.045440 0.019225 0.027692
v -0.045975 0.020300 0.027075
v -0.045865 0.018319 0.027373
v -0.046511 0.018355 0.026592
v -0.046110 0.017066 0.026980
v -0.046857 0.021099 0.026516
v -0.048001 0.021590 0.025550
v -0.047709 0.018339 0.025516
v -0.047072 0.016777 0.025965
v -0.045105 0.019784 0.027706
v -0.045324 0.020441 0.027432
v -0.046277 0.022296 0.027696
v -0.046966 0.023264 0.027365
v -0.045688 0.021581 0.027984
v -0.045141 0.022453 0.029144
v -0.045535 0.023318 0.028990
v -0.046075 0.024195 0.028715
v -0.044582 0.024312 0.030485
v -0.044964 0.025270 0.030324
v -0.044290 0.023330 0.030609
v -0.045128 0.021286 0.028031
v -0.044621 0.022041 0.028942
v -0.043819 0.022877 0.030180
v -0.042707 0.023538 0.032041
v -0.040811 0.024647 0.034083
v -0.040181 0.024603 0.032355
v -0.038058 0.025945 0.035912
v -0.037450 0.025515 0.034237
v -0.033848 0.031165 0.037118
v -0.039624 0.030680 0.035891
v -0.021792 0.022724 0.034116
v -0.023219 0.023691 0.034894
v -0.027304 0.025551 0.036167
v -0.024845 0.024534 0.035538
v -0.034095 0.026078 0.035513
v -0.019593 0.022525 0.035209
v -0.021425 0.023863 0.035697
v -0.018369 0.021316 0.034805
v -0.017693 0.021145 0.034896
v -0.018850 0.022610 0.035209
v -0.020440 0.024077 0.035691
v -0.023644 0.025007 0.036216
v -0.022888 0.025419 0.036632
v -0.026444 0.026807 0.037643
v -0.026593 0.026032 0.037291
v -0.034024 0.026760 0.037007
v -0.034097 0.027683 0.037404
v -0.025869 0.027732 0.037144
v -0.022317 0.026008 0.036107
v -0.025187 0.028740 0.036592
v -0.022093 0.027032 0.035792
v -0.033872 0.029614 0.036296
v -0.034108 0.028752 0.037021
v -0.021417 0.018846 0.035125
v -0.019134 0.019232 0.034936
v -0.021970 0.019143 0.034985
v -0.019500 0.019501 0.034725
v -0.023122 0.019309 0.034212
v -0.018566 0.020036 0.034508
v -0.017866 0.019856 0.034722
v -0.018111 0.022673 0.034811
v -0.016776 0.020973 0.034798
v -0.016989 0.023204 0.034078
v -0.016071 0.021107 0.034384
v -0.019352 0.025624 0.034499
v -0.019727 0.024389 0.034909
v -0.016879 0.019722 0.034653
v -0.017556 0.019170 0.034822
v -0.016140 0.019704 0.034531
v -0.016829 0.018973 0.034767
v -0.024174 0.016060 0.036343
v -0.023926 0.015421 0.036367
v -0.020835 0.017467 0.035702
v -0.020219 0.017028 0.035637
v -0.032558 0.012718 0.035741
v -0.035735 0.012677 0.034789
v -0.032117 0.011618 0.035833
v -0.035585 0.011483 0.034695
v -0.027140 0.012142 0.036778
v -0.027627 0.013088 0.036540
v -0.046199 0.014147 0.027046
v -0.047291 0.013094 0.026400
v -0.045571 0.012356 0.028153
v -0.044692 0.013675 0.028499
v -0.042991 0.013301 0.030088
v -0.043443 0.011893 0.030006
v -0.040997 0.011633 0.031736
v -0.040820 0.012951 0.031819
v -0.038482 0.012854 0.033163
v -0.038679 0.011406 0.033218
v -0.049233 0.017868 0.024071
v -0.050068 0.021377 0.023437
v -0.050766 0.017217 0.022391
v -0.052250 0.020958 0.021292
v -0.015277 0.024233 0.034449
v -0.014964 0.021444 0.034184
v -0.013722 0.024938 0.035656
v -0.013575 0.022071 0.035214
v -0.014936 0.027841 0.036597
v -0.016844 0.027091 0.035020
v -0.015342 0.019808 0.034580
v -0.016109 0.018690 0.034676
v -0.014298 0.019737 0.035028
v -0.015284 0.018243 0.035173
v -0.023428 0.014647 0.036405
v -0.022886 0.013758 0.036581
v -0.019596 0.016471 0.035860
v -0.018754 0.015660 0.036064
v -0.046901 0.034579 0.033291
v -0.044519 0.031790 0.034004
v -0.041023 0.033014 0.036254
v -0.042880 0.036408 0.036418
v -0.049687 0.038446 0.031311
v -0.051987 0.034947 0.028373
v -0.049499 0.032204 0.030318
v -0.047170 0.030050 0.031632
v -0.050913 0.024335 0.024208
v -0.049141 0.024359 0.025837
v -0.049201 0.026175 0.027195
v -0.051020 0.026790 0.025722
v -0.053078 0.024334 0.022033
v -0.053470 0.027639 0.023722
v -0.050491 0.029296 0.027869
v -0.048426 0.028012 0.029249
v -0.053082 0.030916 0.026064
v -0.022833 0.032833 0.038552
v -0.023470 0.031330 0.037165
v -0.020635 0.029142 0.035907
v -0.019228 0.029730 0.036753
v -0.021684 0.034224 0.039632
v -0.017182 0.030601 0.037799
v -0.035959 0.036952 0.039317
v -0.034977 0.033931 0.038238
v -0.024766 0.029396 0.036099
v -0.022759 0.028082 0.035960
v -0.024409 0.029564 0.036023
v -0.022137 0.028028 0.035762
v -0.040993 0.028035 0.034041
v -0.041616 0.028554 0.033879
v -0.044040 0.027444 0.032091
v -0.043488 0.026960 0.032264
v -0.045339 0.025902 0.030297
v -0.045919 0.026386 0.030227
v -0.046986 0.025278 0.028541
v -0.046484 0.024976 0.028691
v -0.047109 0.024154 0.027511
v -0.047583 0.024160 0.027084
v -0.022163 0.028934 0.036022
v -0.024188 0.030027 0.036505
v -0.044283 0.073252 0.022796
v -0.051300 0.069681 0.016154
v -0.049207 0.063280 0.021710
v -0.042615 0.029630 0.034327
v -0.045192 0.028398 0.032228
v -0.046909 0.027083 0.030042
v -0.047907 0.025719 0.028231
v -0.048315 0.024724 0.027014
v -0.064524 -0.002295 0.011972
v -0.065866 0.007108 0.006174
v -0.008989 0.014098 0.049668
v -0.003389 0.028864 0.048488
v -0.061093 0.069107 0.000853
v -0.054318 0.076455 0.008010
v -0.068602 0.000301 -0.000541
v -0.068475 0.012923 -0.003293
v -0.066942 0.026684 -0.005193
v -0.067018 0.041169 -0.005847
v -0.047617 0.057479 0.025639
v -0.046528 0.080647 0.015342
v -0.055638 0.024169 0.019029
v -0.054815 0.019568 0.018274
v -0.056122 0.028971 0.020456
v -0.053316 0.014687 0.020179
v -0.045411 0.003142 0.032553
v -0.031392 0.009705 0.036489
v -0.026536 0.010390 0.037347
v -0.035040 0.009356 0.035386
v -0.041349 0.003816 0.034237
v -0.037929 0.004518 0.035533
v -0.049233 0.010214 0.026196
v -0.046937 0.009468 0.028463
v -0.041250 0.009020 0.032561
v -0.038355 0.009098 0.034026
v -0.044251 0.009154 0.030643
v -0.021922 0.011983 0.037314
v -0.017282 0.014014 0.037300
v -0.014602 0.031053 0.039463
v -0.012388 0.028215 0.038751
v -0.006655 0.028694 0.045793
v -0.018488 0.035293 0.041862
v -0.014049 0.016781 0.037245
v -0.012245 0.019366 0.037175
v -0.011327 0.021998 0.037492
v -0.011102 0.025225 0.038019
v -0.029679 0.048547 0.043078
v -0.026215 0.042096 0.044666
v -0.057701 0.062307 0.009857
v -0.061367 0.053883 0.005844
v -0.050565 0.043722 0.028194
v -0.053731 0.039514 0.025065
v -0.055617 0.034362 0.022348
v -0.063250 0.042374 0.002974
v -0.064060 0.029923 0.002446
v -0.065190 0.018161 0.003427
v -0.038348 0.083917 0.022281
v -0.036539 0.075477 0.028866
v 0.000602 0.042237 0.049298
v 0.000659 0.078518 0.039669
v 0.000543 0.020254 0.055558
v 0.000538 0.088778 0.034063
v 0.000560 0.061243 0.045368
v 0.000747 0.048438 0.048754
v 0.000615 0.029159 0.050174
v 0.000613 0.068667 0.043005
v 0.000520 0.026618 0.051062
v 0.000698 0.031710 0.049904
v 0.000510 0.023248 0.053221
v 0.000516 0.035002 0.049464
v -0.015156 0.020612 0.034363
v -0.013934 0.020870 0.035049
v -0.008239 0.020130 0.044264
v -0.016613 0.020361 0.034680
v -0.019895 0.021198 0.032538
v -0.015958 0.020494 0.034476
v -0.006859 0.019144 0.048586
v -0.017453 0.020459 0.034597
v -0.018055 0.020642 0.034496
v -0.011676 0.020727 0.037331
v -0.006517 0.016878 0.052191
v -0.029031 0.035299 0.039722
v -0.028963 0.032961 0.038334
v -0.022085 0.038377 0.043424
v -0.004404 0.038499 0.048518
v -0.009745 0.038573 0.047402
v -0.029934 0.028200 0.037141
v -0.030476 0.025951 0.035897
v -0.028813 0.030857 0.036996
v -0.030240 0.026359 0.037220
v -0.030227 0.027190 0.037554
v -0.028905 0.029862 0.036603
v -0.028870 0.029894 0.036608
v -0.027096 0.037461 0.041426
v -0.029343 0.029201 0.036570
v 0.000569 0.038557 0.049391
v -0.021001 0.048551 0.046172
v -0.051298 0.047821 0.024808
v -0.054468 0.042488 0.021981
v -0.048065 0.006404 0.029192
v -0.050728 0.007267 0.026644
v -0.018229 0.042387 0.046752
v -0.026180 0.068008 0.037933
v -0.024654 0.060909 0.041268
v -0.039008 0.053471 0.035410
v -0.046385 0.051926 0.029230
v -0.055373 0.012125 0.019287
v -0.006099 0.054463 0.047272
v -0.056705 0.017896 0.016359
v -0.014327 0.054464 0.046548
v -0.013128 0.035253 0.044173
v -0.038172 0.007097 0.034583
v -0.041219 0.006659 0.033229
v -0.054455 0.009985 0.021408
v -0.029421 0.085930 0.027411
v -0.009145 0.028564 0.042307
v -0.010959 0.031389 0.042421
v -0.021239 0.010463 0.038157
v -0.056723 0.036294 0.019438
v -0.057576 0.029665 0.017833
v -0.030833 0.008178 0.037116
v -0.057275 0.023702 0.016665
v -0.052898 0.008333 0.024020
v -0.031599 0.054290 0.040345
v -0.034703 0.007542 0.035978
v -0.008603 0.025416 0.041792
v -0.016600 0.012770 0.038481
v -0.013164 0.015793 0.038910
v -0.010805 0.018768 0.039844
v -0.008993 0.022016 0.041189
v -0.026012 0.008970 0.037997
v -0.027988 0.076872 0.033679
v -0.044693 0.006425 0.031382
v 0.000548 0.054541 0.047354
v -0.009774 0.020411 0.040674
v -0.015738 0.038587 0.045776
v -0.023123 0.054424 0.044268
v 0.015485 0.020616 0.035250
v 0.014206 0.020870 0.035753
v 0.008503 0.020141 0.044599
v 0.017036 0.020378 0.035769
v 0.020373 0.021085 0.033756
v 0.016360 0.020503 0.035499
v 0.007280 0.019182 0.048911
v 0.017918 0.020476 0.035757
v 0.018534 0.020654 0.035719
v 0.011879 0.020718 0.037850
v 0.007054 0.016935 0.052499
v 0.029981 0.035469 0.040838
v 0.029848 0.033101 0.039576
v 0.023098 0.038415 0.044398
v 0.005478 0.038489 0.048854
v 0.010754 0.038563 0.047925
v 0.030507 0.028360 0.038520
v 0.030801 0.025977 0.036879
v 0.029578 0.030978 0.038321
v 0.030739 0.026358 0.038527
v 0.030760 0.027278 0.038913
v 0.029611 0.029964 0.037980
v 0.029554 0.030001 0.038063
v 0.028093 0.037590 0.042504
v 0.029970 0.029330 0.037962
v 0.022153 0.048633 0.047113
v 0.051913 0.048248 0.025409
v 0.054884 0.042882 0.022563
v 0.048442 0.006598 0.030202
v 0.051058 0.007540 0.027592
v 0.019322 0.042391 0.047691
v 0.027034 0.068231 0.038303
v 0.025612 0.061079 0.041749
v 0.039902 0.053766 0.036093
v 0.047161 0.052315 0.029865
v 0.055920 0.012536 0.020255
v 0.007201 0.054499 0.047565
v 0.057471 0.018309 0.017411
v 0.015454 0.054550 0.047107
v 0.013998 0.035311 0.044785
v 0.038606 0.007209 0.035807
v 0.041658 0.006780 0.034417
v 0.054863 0.010343 0.022304
v 0.030098 0.086021 0.027515
v 0.009847 0.028725 0.042679
v 0.011696 0.031546 0.042865
v 0.021441 0.010347 0.038779
v 0.057007 0.036673 0.020053
v 0.057979 0.030030 0.018642
v 0.031216 0.008095 0.038025
v 0.057949 0.024079 0.017601
v 0.053301 0.008629 0.024920
v 0.032551 0.054499 0.041029
v 0.035074 0.007592 0.037095
v 0.009035 0.025561 0.042106
v 0.016699 0.012663 0.039012
v 0.013262 0.015707 0.039384
v 0.010943 0.018719 0.040276
v 0.009253 0.022089 0.041506
v 0.026152 0.008886 0.038694
v 0.028804 0.077129 0.033996
v 0.045089 0.006562 0.032469
v 0.009970 0.020412 0.041051
v 0.016734 0.038574 0.046546
v 0.024195 0.054552 0.044965
s 0
f 1 3 2
f 14 12 11
f 19 21 20
f 54 56 55
f 40 16 41
f 46 48 47
f 66 61 65
f 65 68 67
f 64 62 61
f 74 73 70
f 79 81 80
f 84 79 85
f 94 92 87
f 88 75 74
f 91 80 81
f 94 87 88
f 101 114 112
f 112 117 116
f 90 86 80
f 62 113 69
f 120 126 125
f 104 129 130
f 85 80 86
f 103 130 131
f 129 135 132
f 132 134 133
f 136 133 137
f 127 141 138
f 5 7 8
f 144 72 73
f 63 148 123
f 95 100 99
f 154 156 155
f 160 154 161
f 161 155 162
f 169 168 170
f 153 151 150
f 81 92 91
f 167 115 168
f 170 171 173
f 178 180 179
f 177 131 180
f 180 182 181
f 183 185 184
f 174 188 175
f 171 178 187
f 191 183 189
f 192 189 193
f 157 196 156
f 181 186 185
f 197 193 195
f 191 188 179
f 199 176 198
f 164 199 200
f 201 197 159
f 200 192 197
f 203 201 202
f 163 200 201
f 205 202 204
f 30 42 29
f 204 158 160
f 202 159 158
f 206 152 207
f 901 390 889
f 208 214 213
f 215 217 216
f 213 218 217
f 219 209 211
f 220 214 219
f 221 219 222
f 222 211 210
f 857 223 224
f 225 220 221
f 856 212 223
f 227 226 225
f 861 225 853
f 853 221 857
f 94 74 231
f 93 231 232
f 76 233 235
f 233 74 70
f 235 70 71
f 234 231 233
f 845 216 844
f 77 234 76
f 236 232 234
f 841 215 845
f 238 216 217
f 243 217 218
f 226 218 220
f 246 840 842
f 247 244 246
f 242 226 228
f 245 237 244
f 244 844 840
f 248 91 92
f 249 98 248
f 248 93 250
f 249 250 251
f 250 232 245
f 253 96 252
f 258 137 133
f 260 258 261
f 261 133 134
f 262 134 139
f 263 261 262
f 264 262 265
f 266 100 253
f 268 184 185
f 107 268 106
f 106 185 186
f 270 269 268
f 273 240 272
f 274 277 276
f 275 272 274
f 280 837 838
f 279 246 278
f 278 842 837
f 281 278 280
f 257 249 282
f 256 282 283
f 282 251 284
f 283 284 285
f 284 247 279
f 48 764 766
f 3 286 290
f 289 287 286
f 299 294 298
f 297 295 294
f 286 293 292
f 302 292 300
f 292 301 300
f 298 269 271
f 306 304 303
f 307 306 303
f 860 303 848
f 277 305 306
f 276 306 308
f 859 227 861
f 314 228 312
f 843 46 47
f 230 162 229
f 152 315 316
f 322 196 194
f 323 321 322
f 190 324 323
f 323 194 190
f 325 304 305
f 313 325 314
f 206 849 855
f 151 855 858
f 331 287 330
f 317 330 316
f 316 207 152
f 321 332 320
f 334 296 333
f 332 293 331
f 303 849 848
f 269 295 184
f 252 97 257
f 873 762 833
f 19 45 44
f 333 301 332
f 858 311 859
f 82 87 81
f 121 119 118
f 53 51 50
f 320 331 317
f 198 175 188
f 119 125 127
f 879 110 888
f 265 139 140
f 13 35 36
f 337 843 847
f 101 116 104
f 73 71 70
f 27 29 28
f 118 117 113
f 25 23 22
f 137 182 136
f 336 37 335
f 255 252 254
f 193 190 194
f 177 102 103
f 172 177 178
f 125 142 141
f 143 265 140
f 34 763 758
f 761 41 16
f 358 887 357
f 204 212 205
f 223 160 224
f 759 23 41
f 149 147 148
f 142 100 143
f 195 194 196
f 877 371 890
f 48 768 47
f 168 172 171
f 321 334 333
f 117 127 128
f 150 861 229
f 84 144 83
f 98 96 95
f 144 75 83
f 63 118 62
f 290 292 291
f 377 255 371
f 765 22 23
f 355 28 329
f 144 146 145
f 101 103 102
f 874 360 872
f 358 270 360
f 872 111 879
f 318 155 156
f 395 884 864
f 396 885 884
f 256 369 254
f 254 371 255
f 896 10 886
f 886 9 890
f 108 374 110
f 105 186 137
f 866 39 888
f 874 14 887
f 259 375 374
f 264 378 263
f 898 372 368
f 115 102 172
f 260 378 375
f 865 368 18
f 370 283 379
f 379 285 380
f 883 380 892
f 896 379 883
f 136 131 130
f 344 346 343
f 769 57 54
f 876 381 384
f 892 385 893
f 22 875 25
f 899 388 895
f 388 274 389
f 254 257 256
f 891 382 881
f 25 901 869
f 37 109 166
f 57 383 56
f 851 55 852
f 50 868 869
f 141 143 140
f 900 384 850
f 130 132 136
f 852 876 900
f 29 392 28
f 289 4 309
f 128 138 135
f 846 275 388
f 328 28 392
f 845 237 236
f 393 341 392
f 342 392 341
f 55 882 876
f 863 30 27
f 377 878 376
f 271 357 298
f 842 239 241
f 871 27 355
f 290 395 394
f 391 860 4
f 290 2 3
f 884 11 43
f 302 359 396
f 291 396 395
f 867 850 391
f 864 43 30
f 397 60 393
f 12 397 42
f 398 354 397
f 42 393 29
f 36 399 13
f 399 353 398
f 336 350 399
f 26 892 21
f 365 367 364
f 13 398 12
f 389 276 382
f 869 24 25
f 46 891 49
f 298 359 299
f 870 2 871
f 288 309 310
f 848 310 309
f 875 862 901
f 183 190 189
f 51 897 868
f 52 401 51
f 401 880 897
f 174 171 187
f 49 338 48
f 159 195 157
f 90 98 95
f 24 41 23
f 402 404 405
f 327 400 401
f 116 128 129
f 406 408 409
f 411 413 410
f 345 410 346
f 415 348 347
f 405 417 418
f 420 361 419
f 421 423 424
f 426 428 425
f 893 387 894
f 429 431 432
f 110 107 108
f 865 17 866
f 68 114 167
f 877 372 878
f 32 867 862
f 66 148 64
f 889 1 870
f 267 376 264
f 437 439 436
f 436 441 440
f 443 440 442
f 444 436 443
f 446 448 445
f 449 448 450
f 454 456 457
f 458 457 450
f 459 454 458
f 460 455 454
f 457 462 463
f 450 463 449
f 461 465 455
f 455 466 456
f 456 467 462
f 467 469 462
f 469 463 462
f 471 473 470
f 465 473 466
f 464 470 465
f 475 470 474
f 476 478 479
f 481 483 480
f 813 485 486
f 487 444 489
f 476 489 490
f 491 476 479
f 492 487 491
f 494 496 493
f 493 438 437
f 488 437 444
f 492 493 488
f 496 498 438
f 499 496 495
f 501 495 500
f 494 500 495
f 492 502 494
f 491 503 492
f 479 504 491
f 505 478 506
f 507 509 510
f 504 510 503
f 505 507 504
f 511 508 507
f 513 515 516
f 502 516 500
f 503 513 502
f 510 514 513
f 500 517 501
f 516 518 517
f 519 447 520
f 519 521 522
f 519 459 458
f 450 519 458
f 523 441 439
f 438 523 439
f 526 528 525
f 529 531 532
f 533 532 534
f 535 529 533
f 536 530 529
f 541 490 489
f 443 489 444
f 442 541 443
f 543 542 541
f 542 546 490
f 544 545 542
f 551 478 477
f 551 546 552
f 554 552 553
f 506 551 554
f 556 554 555
f 555 553 557
f 559 557 558
f 560 555 559
f 552 545 561
f 548 545 547
f 562 548 549
f 553 561 562
f 564 557 563
f 565 557 553
f 566 563 565
f 567 564 563
f 569 568 567
f 571 567 566
f 534 569 571
f 532 570 569
f 572 549 550
f 573 550 540
f 565 573 566
f 565 562 572
f 573 539 574
f 574 538 575
f 571 575 534
f 566 574 571
f 575 577 576
f 576 579 578
f 533 578 535
f 534 576 533
f 580 527 526
f 588 582 587
f 587 453 589
f 591 589 590
f 592 587 591
f 593 583 588
f 594 588 592
f 595 593 594
f 596 585 593
f 789 586 787
f 790 597 789
f 599 594 600
f 601 600 602
f 794 599 601
f 786 595 599
f 469 449 463
f 468 605 469
f 605 608 607
f 607 451 609
f 445 609 446
f 449 607 445
f 778 590 589
f 774 589 453
f 608 452 451
f 606 610 608
f 612 590 613
f 614 613 615
f 617 614 616
f 617 591 612
f 600 592 617
f 600 616 602
f 611 619 618
f 618 621 620
f 773 620 775
f 777 618 773
f 622 466 473
f 623 473 472
f 468 622 624
f 624 623 625
f 619 625 621
f 606 624 619
f 471 627 626
f 626 629 628
f 631 628 630
f 472 626 631
f 632 512 480
f 633 480 483
f 634 632 633
f 635 508 632
f 636 509 635
f 637 635 634
f 638 636 637
f 639 514 636
f 475 640 627
f 627 641 629
f 642 558 643
f 644 643 645
f 482 642 644
f 481 559 642
f 614 647 646
f 646 649 648
f 651 648 650
f 651 614 646
f 620 653 652
f 652 655 654
f 770 654 771
f 775 652 770
f 623 631 656
f 656 630 657
f 625 656 658
f 658 657 659
f 653 659 655
f 621 658 653
f 661 663 660
f 660 7 664
f 666 664 665
f 667 660 666
f 669 671 668
f 668 673 672
f 643 672 645
f 643 669 668
f 675 666 674
f 676 666 665
f 671 676 673
f 670 674 671
f 678 680 677
f 681 680 682
f 793 677 681
f 782 677 781
f 679 651 680
f 680 650 682
f 601 686 685
f 687 686 688
f 791 685 687
f 792 601 685
f 602 688 686
f 537 604 603
f 689 537 528
f 689 527 690
f 692 690 691
f 692 530 689
f 693 531 692
f 693 691 694
f 696 694 695
f 696 570 693
f 697 695 698
f 564 698 558
f 568 697 564
f 699 678 700
f 699 687 688
f 688 679 699
f 782 580 788
f 788 526 791
f 701 703 427
f 661 705 704
f 704 691 690
f 581 690 527
f 662 704 581
f 706 667 675
f 707 675 670
f 695 706 707
f 694 705 706
f 669 698 708
f 708 695 707
f 670 708 707
f 315 162 155
f 314 305 242
f 324 295 334
f 108 106 105
f 312 227 311
f 327 329 328
f 313 312 311
f 302 297 299
f 259 105 258
f 38 36 35
f 153 229 162
f 887 11 885
f 316 318 317
f 360 107 111
f 89 95 99
f 330 288 207
f 240 239 238
f 83 82 79
f 710 412 411
f 512 556 560
f 776 711 780
f 390 4 1
f 763 409 758
f 761 416 759
f 795 54 851
f 769 432 767
f 795 429 769
f 578 586 597
f 535 597 598
f 759 365 765
f 121 123 122
f 31 33 32
f 277 240 242
f 285 279 281
f 768 59 47
f 328 356 327
f 267 253 255
f 300 296 297
f 765 364 762
f 380 281 385
f 719 403 402
f 702 720 714
f 603 528 537
f 50 870 53
f 768 434 760
f 187 179 188
f 683 662 684
f 850 307 860
f 346 808 821
f 721 645 672
f 723 672 673
f 343 821 819
f 724 482 644
f 722 644 645
f 808 724 722
f 806 486 724
f 853 224 230
f 340 830 820
f 726 630 628
f 728 628 629
f 339 820 824
f 490 477 476
f 560 480 512
f 351 799 800
f 633 732 634
f 483 731 633
f 414 800 822
f 733 641 638
f 729 811 812
f 832 729 812
f 735 638 637
f 634 735 637
f 799 725 832
f 657 727 736
f 830 736 727
f 659 736 737
f 817 737 736
f 511 506 556
f 485 482 486
f 868 40 24
f 385 280 387
f 240 243 242
f 738 650 739
f 816 739 815
f 810 738 816
f 741 682 738
f 772 419 776
f 737 655 659
f 826 742 737
f 779 649 771
f 742 654 655
f 827 743 742
f 834 744 779
f 745 650 648
f 744 648 649
f 829 745 744
f 825 739 745
f 740 432 431
f 412 484 413
f 784 430 429
f 802 425 803
f 801 407 796
f 796 809 836
f 5 823 804
f 8 746 5
f 835 741 810
f 783 681 741
f 804 6 5
f 8 663 683
f 748 404 403
f 702 403 703
f 714 748 702
f 749 713 435
f 797 405 798
f 664 751 665
f 6 664 7
f 805 402 797
f 818 343 819
f 676 723 673
f 665 752 676
f 798 418 818
f 718 754 753
f 753 344 417
f 749 417 404
f 435 753 749
f 716 710 755
f 755 411 345
f 754 345 344
f 717 755 754
f 384 308 307
f 756 701 757
f 757 427 426
f 831 426 802
f 814 757 831
f 418 344 343
f 424 712 740
f 381 276 308
f 320 322 321
f 427 719 428
f 581 684 662
f 536 598 604
f 366 416 415
f 807 407 406
f 121 124 120
f 31 833 763
f 78 213 215
f 882 382 381
f 44 839 843
f 122 86 124
f 221 856 857
f 895 389 891
f 224 161 230
f 43 12 42
f 112 69 113
f 179 181 183
f 715 709 710
f 109 888 39
f 319 156 196
f 138 140 139
f 357 885 359
f 317 319 320
f 497 459 498
f 461 497 499
f 464 499 501
f 474 501 517
f 475 517 518
f 522 524 523
f 498 522 523
f 518 639 640
f 640 638 641
f 734 629 641
f 811 728 734
f 61 69 68
f 858 150 151
f 838 273 275
f 52 355 329
f 310 207 288
f 135 139 134
f 67 167 169
f 199 191 192
f 768 423 422
f 251 245 247
f 712 767 432
f 423 764 712
f 807 762 364
f 873 32 875
f 38 879 109
f 158 157 154
f 124 89 126
f 828 779 743
f 743 771 654
f 421 776 422
f 422 780 434
f 615 770 647
f 647 771 649
f 613 777 773
f 613 775 615
f 610 774 452
f 611 778 610
f 56 881 882
f 123 147 84
f 126 99 142
f 266 264 265
f 122 84 85
f 767 338 57
f 335 349 336
f 747 793 783
f 801 783 835
f 409 785 784
f 758 784 795
f 700 791 687
f 678 788 700
f 525 794 792
f 525 791 526
f 684 781 683
f 683 793 8
f 598 786 604
f 603 786 794
f 595 789 596
f 789 584 596
f 58 883 26
f 387 838 846
f 894 846 899
f 378 865 375
f 408 835 785
f 21 893 20
f 420 834 828
f 406 833 807
f 239 844 216
f 858 326 313
f 730 824 811
f 229 853 230
f 373 890 9
f 364 809 807
f 841 236 77
f 347 831 415
f 415 802 366
f 751 818 752
f 752 819 723
f 805 750 6
f 750 798 751
f 428 805 804
f 785 810 430
f 804 425 428
f 836 367 803
f 823 803 425
f 746 836 823
f 747 796 746
f 366 803 367
f 424 815 825
f 421 825 829
f 772 829 834
f 362 828 827
f 363 827 826
f 430 816 431
f 431 815 740
f 897 15 40
f 386 826 817
f 433 817 830
f 799 735 732
f 832 733 735
f 812 734 733
f 822 731 485
f 800 732 731
f 824 726 728
f 820 727 726
f 210 856 222
f 413 813 806
f 410 806 808
f 819 721 723
f 821 722 721
f 53 871 355
f 484 822 813
f 860 309 4
f 49 881 383
f 839 895 46
f 376 898 378
f 837 241 273
f 34 852 33
f 758 851 34
f 375 866 374
f 369 890 371
f 374 888 110
f 20 894 45
f 394 864 863
f 869 889 50
f 394 871 2
f 33 900 867
f 855 304 326
f 45 899 839
f 862 391 390
f 370 886 369
f 35 872 38
f 1 4 3
f 14 13 12
f 54 57 56
f 40 15 16
f 46 49 48
f 66 64 61
f 65 61 68
f 64 63 62
f 74 75 73
f 79 82 81
f 84 83 79
f 94 93 92
f 88 82 75
f 91 90 80
f 101 115 114
f 112 113 117
f 90 89 86
f 62 118 113
f 120 124 126
f 104 116 129
f 85 79 80
f 103 104 130
f 129 128 135
f 132 135 134
f 136 132 133
f 127 125 141
f 5 6 7
f 144 145 72
f 63 64 148
f 95 96 100
f 154 157 156
f 160 158 154
f 161 154 155
f 169 167 168
f 153 152 151
f 81 87 92
f 167 114 115
f 170 168 171
f 178 177 180
f 177 103 131
f 180 131 182
f 183 181 185
f 174 187 188
f 171 172 178
f 191 179 183
f 192 191 189
f 157 195 196
f 181 182 186
f 197 192 193
f 191 198 188
f 199 165 176
f 164 165 199
f 201 200 197
f 200 199 192
f 203 163 201
f 163 164 200
f 205 203 202
f 30 43 42
f 204 202 158
f 202 201 159
f 206 151 152
f 901 862 390
f 208 209 214
f 215 213 217
f 213 214 218
f 219 214 209
f 220 218 214
f 221 220 219
f 222 219 211
f 857 856 223
f 225 226 220
f 856 854 212
f 227 228 226
f 861 227 225
f 853 225 221
f 94 88 74
f 93 94 231
f 76 234 233
f 233 231 74
f 235 233 70
f 234 232 231
f 845 215 216
f 77 236 234
f 236 237 232
f 841 78 215
f 238 239 216
f 243 238 217
f 226 243 218
f 246 244 840
f 247 245 244
f 242 243 226
f 245 232 237
f 244 237 844
f 248 98 91
f 249 97 98
f 248 92 93
f 249 248 250
f 250 93 232
f 253 100 96
f 258 105 137
f 260 259 258
f 261 258 133
f 262 261 134
f 263 260 261
f 264 263 262
f 266 143 100
f 268 269 184
f 107 270 268
f 106 268 185
f 270 271 269
f 273 241 240
f 274 272 277
f 275 273 272
f 280 278 837
f 279 247 246
f 278 246 842
f 281 279 278
f 257 97 249
f 256 257 282
f 282 249 251
f 283 282 284
f 284 251 247
f 48 338 764
f 3 289 286
f 289 288 287
f 299 297 294
f 297 296 295
f 286 287 293
f 302 291 292
f 292 293 301
f 298 294 269
f 306 305 304
f 307 308 306
f 860 307 303
f 277 242 305
f 276 277 306
f 859 311 227
f 314 242 228
f 843 839 46
f 230 161 162
f 152 153 315
f 322 319 196
f 323 324 321
f 190 184 324
f 323 322 194
f 325 326 304
f 313 326 325
f 206 310 849
f 151 206 855
f 331 293 287
f 317 331 330
f 316 330 207
f 321 333 332
f 334 295 296
f 332 301 293
f 303 304 849
f 269 294 295
f 252 96 97
f 873 22 762
f 19 20 45
f 333 296 301
f 858 313 311
f 82 88 87
f 121 120 119
f 53 52 51
f 320 332 331
f 198 176 175
f 119 120 125
f 879 111 110
f 265 262 139
f 13 14 35
f 337 44 843
f 101 112 116
f 73 72 71
f 27 30 29
f 118 119 117
f 25 24 23
f 137 186 182
f 335 37 166
f 336 36 37
f 255 253 252
f 193 189 190
f 172 102 177
f 125 126 142
f 143 266 265
f 34 31 763
f 761 759 41
f 358 874 887
f 204 223 212
f 223 204 160
f 759 765 23
f 149 146 147
f 142 99 100
f 195 193 194
f 877 377 371
f 48 766 768
f 168 115 172
f 321 324 334
f 117 119 127
f 150 859 861
f 84 147 144
f 98 97 96
f 144 73 75
f 63 121 118
f 290 286 292
f 377 267 255
f 765 762 22
f 355 27 28
f 144 147 146
f 101 104 103
f 874 358 360
f 358 271 270
f 872 360 111
f 166 109 39
f 318 315 155
f 395 396 884
f 396 359 885
f 256 370 369
f 254 369 371
f 896 58 10
f 886 10 9
f 108 259 374
f 105 106 186
f 866 17 39
f 874 35 14
f 259 260 375
f 264 376 378
f 898 878 372
f 115 101 102
f 260 263 378
f 865 898 368
f 370 256 283
f 379 283 285
f 883 379 380
f 896 370 379
f 136 182 131
f 344 345 346
f 769 767 57
f 876 882 381
f 892 380 385
f 22 873 875
f 899 846 388
f 388 275 274
f 254 252 257
f 891 389 382
f 25 875 901
f 37 38 109
f 57 338 383
f 851 54 55
f 50 51 868
f 141 142 143
f 900 876 384
f 130 129 132
f 852 55 876
f 29 393 392
f 289 3 4
f 128 127 138
f 846 838 275
f 328 329 28
f 845 844 237
f 393 60 341
f 342 328 392
f 55 56 882
f 863 864 30
f 377 877 878
f 271 358 357
f 842 840 239
f 871 863 27
f 290 291 395
f 391 850 860
f 290 394 2
f 884 885 11
f 302 299 359
f 291 302 396
f 867 900 850
f 864 884 43
f 397 354 60
f 12 398 397
f 398 353 354
f 42 397 393
f 36 336 399
f 399 350 353
f 336 349 350
f 26 883 892
f 361 362 363
f 365 366 367
f 13 399 398
f 389 274 276
f 869 868 24
f 46 895 891
f 298 357 359
f 870 1 2
f 288 289 309
f 848 849 310
f 875 32 862
f 183 184 190
f 51 401 897
f 52 327 401
f 401 400 880
f 174 173 171
f 49 383 338
f 159 197 195
f 90 91 98
f 24 40 41
f 402 403 404
f 327 356 400
f 116 117 128
f 406 407 408
f 411 412 413
f 345 411 410
f 415 416 348
f 405 404 417
f 420 362 361
f 421 422 423
f 426 427 428
f 893 385 387
f 429 430 431
f 110 111 107
f 865 18 17
f 68 69 114
f 877 373 372
f 32 33 867
f 66 149 148
f 889 390 1
f 267 377 376
f 437 438 439
f 436 439 441
f 443 436 440
f 444 437 436
f 446 447 448
f 449 445 448
f 454 455 456
f 458 454 457
f 459 460 454
f 460 461 455
f 457 456 462
f 450 457 463
f 461 464 465
f 455 465 466
f 456 466 467
f 467 468 469
f 471 472 473
f 465 470 473
f 464 474 470
f 475 471 470
f 476 477 478
f 481 482 483
f 813 822 485
f 487 488 444
f 476 487 489
f 491 487 476
f 492 488 487
f 494 495 496
f 493 496 438
f 488 493 437
f 492 494 493
f 496 497 498
f 499 497 496
f 501 499 495
f 494 502 500
f 492 503 502
f 491 504 503
f 479 505 504
f 505 479 478
f 507 508 509
f 504 507 510
f 505 511 507
f 511 512 508
f 513 514 515
f 502 513 516
f 503 510 513
f 510 509 514
f 500 516 517
f 516 515 518
f 519 448 447
f 519 520 521
f 519 522 459
f 450 448 519
f 523 524 441
f 438 498 523
f 526 527 528
f 529 530 531
f 533 529 532
f 535 536 529
f 536 537 530
f 541 542 490
f 443 541 489
f 442 543 541
f 543 544 542
f 542 545 546
f 544 547 545
f 551 477 546
f 554 551 552
f 506 478 551
f 556 506 554
f 555 554 553
f 559 555 557
f 560 556 555
f 552 546 545
f 548 561 545
f 562 561 548
f 553 552 561
f 564 558 557
f 565 563 557
f 566 567 563
f 567 568 564
f 569 570 568
f 571 569 567
f 534 532 569
f 532 531 570
f 572 562 549
f 573 572 550
f 565 572 573
f 565 553 562
f 573 540 539
f 574 539 538
f 571 574 575
f 566 573 574
f 575 538 577
f 576 577 579
f 533 576 578
f 534 575 576
f 580 581 527
f 588 583 582
f 587 582 453
f 591 587 589
f 592 588 587
f 593 585 583
f 594 593 588
f 595 596 593
f 596 584 585
f 789 597 586
f 790 598 597
f 599 595 594
f 601 599 600
f 794 786 599
f 786 790 595
f 469 605 449
f 468 606 605
f 605 606 608
f 607 608 451
f 445 607 609
f 449 605 607
f 778 777 590
f 774 778 589
f 608 610 452
f 606 611 610
f 612 591 590
f 614 612 613
f 617 612 614
f 617 592 591
f 600 594 592
f 600 617 616
f 611 606 619
f 618 619 621
f 773 618 620
f 777 611 618
f 622 467 466
f 623 622 473
f 468 467 622
f 624 622 623
f 619 624 625
f 606 468 624
f 471 475 627
f 626 627 629
f 631 626 628
f 472 471 626
f 632 508 512
f 633 632 480
f 634 635 632
f 635 509 508
f 636 514 509
f 637 636 635
f 638 639 636
f 639 515 514
f 475 518 640
f 627 640 641
f 642 559 558
f 644 642 643
f 482 481 642
f 481 560 559
f 614 615 647
f 646 647 649
f 651 646 648
f 651 616 614
f 620 621 653
f 652 653 655
f 770 652 654
f 775 620 652
f 623 472 631
f 656 631 630
f 625 623 656
f 658 656 657
f 653 658 659
f 621 625 658
f 661 662 663
f 660 663 7
f 666 660 664
f 667 661 660
f 669 670 671
f 668 671 673
f 643 668 672
f 643 558 669
f 675 667 666
f 676 674 666
f 671 674 676
f 670 675 674
f 678 679 680
f 681 677 680
f 793 781 677
f 782 678 677
f 679 616 651
f 680 651 650
f 601 602 686
f 687 685 686
f 791 792 685
f 792 794 601
f 602 616 688
f 537 536 604
f 689 530 537
f 689 528 527
f 692 689 690
f 692 531 530
f 693 570 531
f 693 692 691
f 696 693 694
f 696 568 570
f 697 696 695
f 564 697 698
f 568 696 697
f 699 679 678
f 699 700 687
f 688 616 679
f 782 684 580
f 788 580 526
f 701 702 703
f 661 667 705
f 704 705 691
f 581 704 690
f 662 661 704
f 706 705 667
f 707 706 675
f 695 694 706
f 694 691 705
f 669 558 698
f 708 698 695
f 670 669 708
f 315 153 162
f 314 325 305
f 324 184 295
f 108 107 106
f 312 228 227
f 327 52 329
f 313 314 312
f 302 300 297
f 259 108 105
f 38 37 36
f 153 150 229
f 887 14 11
f 316 315 318
f 360 270 107
f 89 90 95
f 330 287 288
f 240 241 239
f 83 75 82
f 710 709 412
f 512 511 556
f 776 419 711
f 390 391 4
f 763 406 409
f 761 348 416
f 795 769 54
f 769 429 432
f 795 784 429
f 578 579 586
f 535 578 597
f 759 416 365
f 121 63 123
f 31 34 33
f 277 272 240
f 285 284 279
f 768 760 59
f 328 342 356
f 267 266 253
f 300 301 296
f 765 365 364
f 380 285 281
f 719 703 403
f 702 701 720
f 603 525 528
f 50 889 870
f 768 422 434
f 187 178 179
f 683 663 662
f 850 384 307
f 346 410 808
f 721 722 645
f 723 721 672
f 343 346 821
f 724 486 482
f 722 724 644
f 808 806 724
f 806 813 486
f 853 857 224
f 340 433 830
f 726 727 630
f 728 726 628
f 339 340 820
f 490 546 477
f 560 481 480
f 351 352 799
f 633 731 732
f 483 485 731
f 414 351 800
f 733 734 641
f 729 730 811
f 832 725 729
f 735 733 638
f 634 732 735
f 799 352 725
f 657 630 727
f 830 817 736
f 659 657 736
f 817 826 737
f 511 505 506
f 485 483 482
f 868 897 40
f 385 281 280
f 240 238 243
f 738 682 650
f 816 738 739
f 810 741 738
f 741 681 682
f 772 420 419
f 737 742 655
f 826 827 742
f 779 744 649
f 742 743 654
f 827 828 743
f 834 829 744
f 745 739 650
f 744 745 648
f 829 825 745
f 825 815 739
f 740 712 432
f 784 785 430
f 802 426 425
f 801 408 407
f 796 407 809
f 5 746 823
f 8 747 746
f 835 783 741
f 783 793 681
f 804 805 6
f 8 7 663
f 748 749 404
f 702 748 403
f 714 713 748
f 749 748 713
f 797 402 405
f 664 750 751
f 6 750 664
f 805 719 402
f 818 418 343
f 676 752 723
f 665 751 752
f 798 405 418
f 718 717 754
f 753 754 344
f 749 753 417
f 435 718 753
f 716 715 710
f 755 710 411
f 754 755 345
f 717 716 755
f 384 381 308
f 756 720 701
f 757 701 427
f 831 757 426
f 814 756 757
f 418 417 344
f 424 423 712
f 381 382 276
f 320 319 322
f 427 703 719
f 581 580 684
f 536 535 598
f 366 365 416
f 807 809 407
f 121 122 124
f 31 873 833
f 78 208 213
f 882 881 382
f 44 45 839
f 122 85 86
f 221 222 856
f 895 388 389
f 224 160 161
f 43 11 12
f 112 114 69
f 179 180 181
f 109 879 888
f 319 318 156
f 138 141 140
f 357 887 885
f 317 318 319
f 497 460 459
f 461 460 497
f 464 461 499
f 474 464 501
f 475 474 517
f 522 521 524
f 498 459 522
f 518 515 639
f 640 639 638
f 734 728 629
f 811 824 728
f 61 62 69
f 858 859 150
f 838 837 273
f 52 53 355
f 310 206 207
f 135 138 139
f 67 68 167
f 199 198 191
f 768 766 423
f 251 250 245
f 712 764 767
f 423 766 764
f 807 833 762
f 873 31 32
f 38 872 879
f 158 159 157
f 124 86 89
f 828 834 779
f 743 779 771
f 421 772 776
f 422 776 780
f 615 775 770
f 647 770 771
f 613 590 777
f 613 773 775
f 610 778 774
f 611 777 778
f 56 383 881
f 123 148 147
f 126 89 99
f 266 267 264
f 122 123 84
f 767 764 338
f 747 8 793
f 801 747 783
f 409 408 785
f 758 409 784
f 700 788 791
f 678 782 788
f 525 603 794
f 525 792 791
f 684 782 781
f 683 781 793
f 598 790 786
f 603 604 786
f 595 790 789
f 789 787 584
f 58 896 883
f 387 280 838
f 894 387 846
f 378 898 865
f 408 801 835
f 21 892 893
f 420 772 834
f 406 763 833
f 239 840 844
f 858 855 326
f 730 339 824
f 229 861 853
f 373 877 890
f 364 367 809
f 841 845 236
f 347 814 831
f 415 831 802
f 751 798 818
f 752 818 819
f 805 797 750
f 750 797 798
f 428 719 805
f 785 835 810
f 804 823 425
f 836 809 367
f 823 836 803
f 746 796 836
f 747 801 796
f 366 802 803
f 424 740 815
f 421 424 825
f 772 421 829
f 362 420 828
f 363 362 827
f 430 810 816
f 431 816 815
f 897 880 15
f 386 363 826
f 433 386 817
f 799 832 735
f 832 812 733
f 812 811 734
f 822 800 731
f 800 799 732
f 824 820 726
f 820 830 727
f 210 854 856
f 413 484 813
f 410 413 806
f 819 821 721
f 821 808 722
f 53 870 871
f 484 414 822
f 860 848 309
f 49 891 881
f 839 899 895
f 376 878 898
f 837 842 241
f 34 851 852
f 758 795 851
f 375 865 866
f 369 886 890
f 374 866 888
f 847 843 47
f 20 893 894
f 394 395 864
f 869 901 889
f 394 863 871
f 33 852 900
f 855 849 304
f 45 894 899
f 862 867 391
f 370 896 886
f 35 874 872
